<svg width="126" height="126" viewBox="0 0 126 126" fill="none" xmlns="http://www.w3.org/2000/svg">
<path d="M20.5986 66.0027H69.3606C69.8827 66.0027 70.3835 65.7952 70.7527 65.426C71.1219 65.0568 71.3293 64.5561 71.3293 64.0339C71.3293 63.5118 71.1219 63.011 70.7527 62.6418C70.3835 62.2726 69.8827 62.0652 69.3606 62.0652H22.5752V25.4307C22.5752 24.9085 22.3678 24.4078 21.9986 24.0385C21.6293 23.6693 21.1286 23.4619 20.6064 23.4619C20.0843 23.4619 19.5835 23.6693 19.2143 24.0385C18.8451 24.4078 18.6377 24.9085 18.6377 25.4307V64.0339C18.6377 64.5547 18.844 65.0543 19.2115 65.4233C19.5791 65.7922 20.0778 66.0006 20.5986 66.0027ZM84.2417 35.8152H105.932C106.454 35.8152 106.955 35.6077 107.324 35.2385C107.693 34.8693 107.901 34.3686 107.901 33.8464C107.901 33.3243 107.693 32.8235 107.324 32.4543C106.955 32.0851 106.454 31.8777 105.932 31.8777H84.2417C83.7195 31.8777 83.2188 32.0851 82.8496 32.4543C82.4804 32.8235 82.2729 33.3243 82.2729 33.8464C82.2729 34.3686 82.4804 34.8693 82.8496 35.2385C83.2188 35.6077 83.7195 35.8152 84.2417 35.8152ZM84.2417 46.7089H105.932C106.454 46.7089 106.955 46.5015 107.324 46.1323C107.693 45.7631 107.901 45.2623 107.901 44.7402C107.901 44.218 107.693 43.7173 107.324 43.348C106.955 42.9788 106.454 42.7714 105.932 42.7714H84.2417C83.7195 42.7714 83.2188 42.9788 82.8496 43.348C82.4804 43.7173 82.2729 44.218 82.2729 44.7402C82.2729 45.2623 82.4804 45.7631 82.8496 46.1323C83.2188 46.5015 83.7195 46.7089 84.2417 46.7089ZM84.2417 57.6027H105.932C106.454 57.6027 106.955 57.3952 107.324 57.026C107.693 56.6568 107.901 56.1561 107.901 55.6339C107.901 55.1118 107.693 54.611 107.324 54.2418C106.955 53.8726 106.454 53.6652 105.932 53.6652H84.2417C83.7195 53.6652 83.2188 53.8726 82.8496 54.2418C82.4804 54.611 82.2729 55.1118 82.2729 55.6339C82.2729 56.1561 82.4804 56.6568 82.8496 57.026C83.2188 57.3952 83.7195 57.6027 84.2417 57.6027Z" fill="url(#paint0_linear_133_57)"/>
<path d="M28.1927 58.593C28.7067 58.5936 29.2004 58.3929 29.5682 58.0339L42.541 45.3814L48.7176 49.9384C49.1096 50.2284 49.5955 50.3622 50.0807 50.3137C50.566 50.2651 51.0158 50.0378 51.3426 49.6759L67.3866 31.8889V33.6818C67.3866 34.2039 67.594 34.7047 67.9632 35.0739C68.3324 35.4431 68.8332 35.6505 69.3553 35.6505C69.8775 35.6505 70.3782 35.4431 70.7475 35.0739C71.1167 34.7047 71.3241 34.2039 71.3241 33.6818V26.7754C71.3241 26.2532 71.1167 25.7525 70.7475 25.3833C70.3782 25.0141 69.8775 24.8066 69.3553 24.8066H61.6037C61.0816 24.8066 60.5808 25.0141 60.2116 25.3833C59.8424 25.7525 59.635 26.2532 59.635 26.7754C59.635 27.2975 59.8424 27.7983 60.2116 28.1675C60.5808 28.5367 61.0816 28.7441 61.6037 28.7441H64.9296L49.6127 45.7121L43.5332 41.2129C43.1571 40.9362 42.6949 40.802 42.2291 40.8343C41.7633 40.8665 41.3241 41.063 40.9896 41.3888L26.8146 55.2094C26.5344 55.4826 26.3419 55.8332 26.2619 56.2163C26.1818 56.5993 26.2177 56.9976 26.3651 57.3602C26.5124 57.7228 26.7645 58.0332 27.0891 58.2519C27.4137 58.4705 27.7961 58.5875 28.1875 58.5878L28.1927 58.593Z" fill="url(#paint1_linear_133_57)"/>
<path d="M119.7 5.92969H6.3C4.6286 5.93386 3.027 6.60038 1.84612 7.78323C0.665243 8.96607 0.00138417 10.5688 0 12.2402L0 85.9134C0.00138192 87.5851 0.665156 89.1881 1.84596 90.3713C3.02676 91.5546 4.62836 92.2217 6.3 92.2266H119.7C121.372 92.2217 122.973 91.5546 124.154 90.3713C125.335 89.1881 125.999 87.5851 126 85.9134V12.2402C125.999 10.5688 125.335 8.96607 124.154 7.78323C122.973 6.60038 121.371 5.93386 119.7 5.92969ZM122.062 85.9134C122.063 86.5412 121.814 87.1435 121.371 87.5886C120.929 88.0338 120.328 88.2856 119.7 88.289H6.3C5.67222 88.2856 5.07134 88.0338 4.62866 87.5886C4.18598 87.1435 3.93749 86.5412 3.9375 85.9134V12.2402C3.9375 11.6136 4.18641 11.0127 4.62946 10.5696C5.07252 10.1266 5.67343 9.87769 6.3 9.87769H119.7C120.327 9.87769 120.927 10.1266 121.371 10.5696C121.814 11.0127 122.062 11.6136 122.062 12.2402V85.9134Z" fill="url(#paint2_linear_133_57)"/>
<path d="M115.962 13.4424H10.0381C9.51594 13.4424 9.01518 13.6498 8.64597 14.019C8.27676 14.3882 8.06934 14.889 8.06934 15.4111V75.3583C8.06934 75.8804 8.27676 76.3812 8.64597 76.7504C9.01518 77.1196 9.51594 77.327 10.0381 77.327H115.962C116.484 77.327 116.985 77.1196 117.354 76.7504C117.723 76.3812 117.931 75.8804 117.931 75.3583V15.4111C117.931 14.889 117.723 14.3882 117.354 14.019C116.985 13.6498 116.484 13.4424 115.962 13.4424ZM113.993 73.3895H12.0068V17.3799H113.993V73.3895ZM84.2416 108.89H75.8626L74.5238 96.7888C74.4664 96.2698 74.2051 95.7948 73.7975 95.4684C73.3899 95.142 72.8693 94.9909 72.3503 95.0484C71.8313 95.1058 71.3564 95.3671 71.03 95.7747C70.7036 96.1823 70.5525 96.7029 70.61 97.2219L72.143 111.077C72.1966 111.558 72.4261 112.003 72.7874 112.326C73.1487 112.649 73.6165 112.828 74.1012 112.828H82.2807V116.132H43.7273V112.828H51.9068C52.3915 112.828 52.8593 112.649 53.2207 112.326C53.582 112.003 53.8115 111.558 53.8651 111.077L55.3981 97.2219C55.4265 96.9649 55.4041 96.7048 55.332 96.4565C55.2599 96.2082 55.1397 95.9765 54.978 95.7747C54.8164 95.5729 54.6167 95.4048 54.3901 95.2802C54.1636 95.1556 53.9147 95.0768 53.6577 95.0484C53.1387 94.9909 52.6181 95.142 52.2105 95.4684C51.8029 95.7948 51.5416 96.2698 51.4842 96.7888L50.1455 108.89H41.7455C41.2233 108.89 40.7226 109.097 40.3533 109.467C39.9841 109.836 39.7767 110.337 39.7767 110.859V118.101C39.7767 118.623 39.9841 119.124 40.3533 119.493C40.7226 119.862 41.2233 120.07 41.7455 120.07H84.2416C84.7637 120.07 85.2645 119.862 85.6337 119.493C86.0029 119.124 86.2103 118.623 86.2103 118.101V110.859C86.2103 110.337 86.0029 109.836 85.6337 109.467C85.2645 109.097 84.7637 108.89 84.2416 108.89Z" fill="url(#paint3_linear_133_57)"/>
<defs>
<linearGradient id="paint0_linear_133_57" x1="18.6377" y1="66.0027" x2="55.697" y2="22.8343" gradientUnits="userSpaceOnUse">
<stop stop-color="#76DCFF"/>
<stop offset="1" stop-color="#2B8EE1"/>
</linearGradient>
<linearGradient id="paint1_linear_133_57" x1="26.2202" y1="58.593" x2="54.7081" y2="37.4808" gradientUnits="userSpaceOnUse">
<stop stop-color="#76DCFF"/>
<stop offset="1" stop-color="#2B8EE1"/>
</linearGradient>
<linearGradient id="paint2_linear_133_57" x1="-1.07053e-06" y1="92.2266" x2="74.4068" y2="31.9165" gradientUnits="userSpaceOnUse">
<stop stop-color="#76DCFF"/>
<stop offset="1" stop-color="#2B8EE1"/>
</linearGradient>
<linearGradient id="paint3_linear_133_57" x1="8.06934" y1="120.07" x2="89.069" y2="73.74" gradientUnits="userSpaceOnUse">
<stop stop-color="#76DCFF"/>
<stop offset="1" stop-color="#2B8EE1"/>
</linearGradient>
</defs>
</svg>
