<svg width="433" height="436" viewBox="0 0 433 436" fill="none" xmlns="http://www.w3.org/2000/svg">
<path d="M422.657 0.493579L295.657 73.8236C295.057 74.2123 294.557 74.7376 294.199 75.3563C293.841 75.975 293.635 76.6697 293.597 77.3836V219.584C293.637 220.295 293.845 220.988 294.205 221.603C294.565 222.219 295.066 222.74 295.667 223.124L299.417 225.244C300.059 225.562 300.765 225.727 301.482 225.727C302.198 225.727 302.905 225.562 303.547 225.244L430.547 151.914C431.144 151.523 431.641 150.997 431.997 150.379C432.354 149.76 432.559 149.066 432.597 148.354V6.13358C432.559 5.42244 432.352 4.73053 431.994 4.11501C431.636 3.49948 431.136 2.97799 430.537 2.59358L426.777 0.473581C426.135 0.158659 425.429 -0.00341527 424.714 5.45607e-05C424 0.00352439 423.295 0.172443 422.657 0.493579Z" fill="#FAFAFA"/>
<path d="M301.486 224.034V81.8338C301.525 81.1201 301.732 80.4257 302.09 79.8071C302.448 79.1885 302.947 78.6631 303.546 78.2738L430.546 4.93379C431.676 4.28379 432.596 4.81379 432.596 6.12379V148.334C432.559 149.047 432.353 149.74 431.997 150.359C431.641 150.977 431.144 151.503 430.546 151.894L303.546 225.224C302.406 225.874 301.486 225.344 301.486 224.034Z" fill="#37474F"/>
<path d="M303.547 225.223C302.903 225.534 302.197 225.696 301.482 225.696C300.767 225.696 300.061 225.534 299.417 225.223L295.667 223.093C295.064 222.713 294.562 222.195 294.202 221.58C293.842 220.966 293.634 220.274 293.597 219.563V77.3832C293.626 76.637 293.854 75.9121 294.257 75.2832L302.097 79.8132C301.723 80.4156 301.513 81.1049 301.487 81.8132V224.033C301.487 225.233 302.337 225.933 303.547 225.223Z" fill="#263238"/>
<path d="M432.576 5.76378C432.416 4.76378 431.576 4.35378 430.576 4.94378L303.576 78.2738C302.968 78.6533 302.469 79.1838 302.126 79.8138L294.276 75.2838C294.613 74.684 295.099 74.1811 295.686 73.8238L422.686 0.493784C423.325 0.170441 424.031 0.00195313 424.746 0.00195312C425.462 0.00195312 426.168 0.170441 426.806 0.493784L430.556 2.61378C431.097 2.96609 431.556 3.42904 431.904 3.97203C432.253 4.51503 432.482 5.12573 432.576 5.76378Z" fill="#455A64"/>
<path d="M278.127 162.414C276.837 161.644 270.847 158.234 270.537 158.054C270.295 157.907 270.088 157.708 269.933 157.471C269.777 157.235 269.676 156.967 269.637 156.686C269.597 156.406 269.621 156.12 269.706 155.85C269.79 155.58 269.934 155.332 270.127 155.124L293.777 129.754L301.487 134.184L277.847 159.554C277.66 159.752 277.519 159.988 277.431 160.246C277.343 160.503 277.312 160.777 277.338 161.047C277.365 161.318 277.449 161.58 277.585 161.816C277.721 162.052 277.905 162.255 278.127 162.414Z" fill="#FAFAFA"/>
<path d="M278.127 162.414C276.837 161.644 270.847 158.234 270.537 158.054C270.295 157.907 270.088 157.708 269.933 157.471C269.777 157.235 269.676 156.967 269.637 156.686C269.597 156.406 269.621 156.12 269.706 155.85C269.79 155.58 269.934 155.332 270.127 155.124L293.777 129.754L301.487 134.184L277.847 159.554C277.66 159.752 277.519 159.988 277.431 160.246C277.343 160.503 277.312 160.777 277.338 161.047C277.365 161.318 277.449 161.58 277.585 161.816C277.721 162.052 277.905 162.255 278.127 162.414Z" fill="#455A64"/>
<path d="M301.487 134.184L277.847 159.554C277.585 159.834 277.415 160.186 277.357 160.565C277.3 160.944 277.358 161.331 277.525 161.676C277.691 162.021 277.958 162.307 278.29 162.498C278.623 162.688 279.005 162.774 279.387 162.744L301.487 160.924V134.184Z" fill="#FAFAFA"/>
<path d="M301.487 134.184L277.847 159.554C277.585 159.834 277.415 160.186 277.357 160.565C277.3 160.944 277.358 161.331 277.525 161.676C277.691 162.021 277.958 162.307 278.29 162.498C278.623 162.688 279.005 162.774 279.387 162.744L301.487 160.924V134.184Z" fill="#37474F"/>
<path d="M373.937 122.683C372.127 121.593 369.597 121.683 366.797 123.343C361.257 126.543 356.797 134.343 356.797 140.723C356.797 143.903 357.907 146.133 359.707 147.193C360.887 147.883 365.387 150.463 366.547 151.193C368.367 152.263 370.877 152.123 373.667 150.513C379.207 147.313 383.667 139.513 383.667 133.133C383.667 129.973 382.557 127.733 380.767 126.683C379.587 125.933 375.057 123.363 373.937 122.683Z" fill="#EBEBEB"/>
<path d="M377.237 147.604L357.447 136.174C357.016 137.653 356.787 139.183 356.767 140.724C356.767 143.904 357.877 146.134 359.677 147.194C360.857 147.884 365.357 150.464 366.517 151.194C368.337 152.264 370.847 152.124 373.637 150.514C374.963 149.712 376.174 148.733 377.237 147.604Z" fill="#E0E0E0"/>
<path d="M373.627 127.294C368.087 130.494 363.627 138.294 363.627 144.674C363.627 151.054 368.127 153.674 373.627 150.464C379.127 147.254 383.627 139.464 383.627 133.084C383.627 126.704 379.167 124.094 373.627 127.294Z" fill="#FAFAFA"/>
<path d="M373.626 131.394C371.741 132.626 370.172 134.284 369.046 136.235C367.92 138.186 367.269 140.375 367.146 142.624C367.146 146.754 370.056 148.434 373.636 146.364C375.522 145.132 377.091 143.473 378.217 141.522C379.343 139.571 379.994 137.383 380.116 135.134C380.106 131.004 377.206 129.334 373.626 131.394Z" fill="#37474F"/>
<path d="M417.056 113.714C417.056 114.644 417.056 115.444 417.006 116.384L405.676 122.934L398.856 118.994C398.856 118.234 398.856 117.124 398.856 116.374C398.856 108.634 397.016 102.444 393.856 98.0736L403.056 84.9336L409.886 88.8736C414.426 94.6636 417.056 103.074 417.056 113.714Z" fill="url(#paint0_linear_766_5009)"/>
<path d="M417.057 113.714C417.057 114.654 417.057 115.444 417.007 116.384L405.677 122.934C405.677 122.174 405.727 121.074 405.727 120.314C405.727 112.584 403.887 106.384 400.727 102.024L409.877 88.9336C414.427 94.6636 417.057 103.084 417.057 113.714Z" fill="url(#paint1_linear_766_5009)"/>
<path opacity="0.1" d="M400.696 102.014L393.866 98.0736L403.046 84.9336L409.876 88.8836L400.696 102.014Z" fill="black"/>
<path opacity="0.2" d="M405.716 120.303C405.716 121.063 405.716 122.163 405.716 122.923L398.896 118.983C398.896 118.223 398.896 117.113 398.896 116.363C398.896 108.623 397.056 102.433 393.896 98.0635L400.727 102.063C403.887 106.373 405.716 112.573 405.716 120.303Z" fill="black"/>
<path d="M407.837 85.6537L398.697 98.7337L391.867 94.7337L391.487 94.3937C388.563 93.5564 385.494 93.3586 382.487 93.8137L375.627 89.9337L379.057 75.3237C385.627 74.3237 391.517 75.3237 396.367 78.1137L403.047 81.9537C403.347 82.1237 403.647 82.3037 403.937 82.4937L404.527 82.8837C404.727 83.0137 404.927 83.1437 405.117 83.2937C405.307 83.4437 405.397 83.4937 405.527 83.6037C406.061 84.0188 406.572 84.4628 407.057 84.9337C407.357 85.1737 407.597 85.4037 407.837 85.6537Z" fill="url(#paint2_linear_766_5009)"/>
<path opacity="0.2" d="M398.696 98.7333L391.866 94.7333L391.496 94.4033C394.217 95.23 396.69 96.7177 398.696 98.7333Z" fill="black"/>
<path opacity="0.2" d="M407.847 85.6541L398.697 98.7341C394.617 94.7341 388.997 92.9541 382.457 93.8641L385.827 79.274C394.697 77.934 402.347 80.1841 407.847 85.6541Z" fill="white"/>
<path opacity="0.1" d="M378.997 75.3232L385.827 79.2732L382.457 93.8632L375.627 89.9232L378.997 75.3232Z" fill="black"/>
<path opacity="0.5" d="M396.317 78.1133L402.997 81.9533C398.177 79.2133 392.337 78.2533 385.827 79.2633L379.057 75.3233C385.577 74.3033 391.467 75.3033 396.317 78.1133Z" fill="white"/>
<path d="M382.536 79.9341L379.166 94.5041C375.835 95.4078 372.64 96.7531 369.666 98.5041C366.253 100.505 363.053 102.851 360.116 105.504L353.296 101.504L349.986 90.7141C353.903 87.1464 358.183 83.9992 362.756 81.3241C366.802 78.9313 371.161 77.1107 375.706 75.9141L382.536 79.9341Z" fill="url(#paint3_linear_766_5009)"/>
<path opacity="0.05" d="M349.986 90.8037L356.816 94.7537L360.116 105.544L353.296 101.604L349.986 90.8037Z" fill="black"/>
<path opacity="0.6" d="M382.537 79.9334C377.972 81.1174 373.596 82.9351 369.537 85.3334C364.968 88.0153 360.688 91.162 356.767 94.7234L349.937 90.7834C353.853 87.2157 358.133 84.0685 362.707 81.3934C366.753 79.0006 371.111 77.18 375.657 75.9834L382.537 79.9334Z" fill="white"/>
<path opacity="0.4" d="M382.536 79.9336L379.176 94.5036C375.845 95.4044 372.649 96.7498 369.676 98.5036C366.261 100.503 363.061 102.849 360.126 105.504L356.816 94.7136C360.733 91.1459 365.013 87.9987 369.586 85.3236C373.631 82.9336 377.99 81.1195 382.536 79.9336Z" fill="white"/>
<path d="M356.906 108.604C350.691 114.996 345.517 122.326 341.576 130.324L332.656 127.094L325.826 123.144C331.178 112.313 338.246 102.418 346.756 93.8438L353.586 97.8438L356.906 108.604Z" fill="url(#paint4_linear_766_5009)"/>
<path opacity="0.7" d="M353.586 97.7937C345.071 106.365 338.003 116.26 332.656 127.094L325.826 123.144C331.178 112.313 338.246 102.418 346.756 93.8438L353.586 97.7937Z" fill="white"/>
<path opacity="0.6" d="M356.906 108.604C350.69 115 345.517 122.333 341.576 130.334L332.656 127.094C338.003 116.26 345.071 106.365 353.586 97.7939L356.906 108.604Z" fill="white"/>
<path d="M339.516 134.753C335.926 143.163 333.786 151.433 333.656 159.613L322.146 166.263L315.316 162.263C315.536 151.043 318.616 138.983 323.736 127.523L332.736 130.763L339.516 134.753Z" fill="url(#paint5_linear_766_5009)"/>
<path opacity="0.6" d="M330.566 131.513L323.736 127.573L332.696 130.813L339.526 134.753L330.566 131.513Z" fill="white"/>
<path opacity="0.9" d="M330.566 131.513C325.436 142.983 322.366 155.033 322.146 166.263L315.316 162.263C315.536 151.043 318.616 138.983 323.736 127.523L330.566 131.513Z" fill="white"/>
<path opacity="0.75" d="M339.526 134.754C335.926 143.154 333.786 151.434 333.646 159.614L322.146 166.254C322.366 155.034 325.436 142.974 330.566 131.504L339.526 134.754Z" fill="white"/>
<path d="M411.687 108.364L409.877 107.344L360.587 145.594L360.737 152.914L362.547 153.934L411.687 108.364Z" fill="#E0E0E0"/>
<path d="M362.546 153.933L362.406 146.613L411.686 108.363L362.546 153.933Z" fill="#EBEBEB"/>
<path d="M360.587 145.594L362.407 146.614L411.687 108.364L409.877 107.344L360.587 145.594Z" fill="white"/>
<path d="M49.7861 352.074C49.9161 353.853 50.4638 355.576 51.3847 357.103C52.3056 358.63 53.5737 359.919 55.0861 360.864L170.376 427.444C172.017 428.277 173.831 428.712 175.671 428.712C177.511 428.712 179.326 428.277 180.966 427.444L383.966 310.234C385.551 309.376 386.875 308.106 387.798 306.558C388.72 305.01 389.207 303.241 389.207 301.439C389.207 299.637 388.72 297.868 387.798 296.32C386.875 294.772 385.551 293.502 383.966 292.644L268.666 226.064C267.026 225.23 265.211 224.796 263.371 224.796C261.531 224.796 259.717 225.23 258.076 226.064L55.0561 343.274C53.5496 344.225 52.2878 345.517 51.3724 347.046C50.457 348.574 49.9136 350.297 49.7861 352.074Z" fill="url(#paint6_linear_766_5009)"/>
<path opacity="0.5" d="M389.276 301.434C389.147 303.213 388.601 304.937 387.682 306.466C386.763 307.995 385.497 309.286 383.986 310.234L180.986 427.444C179.359 428.308 177.539 428.745 175.696 428.714V417.244C177.539 417.275 179.359 416.838 180.986 415.974L383.986 298.764C386.546 297.284 386.866 295.004 384.986 293.324C386.227 294.303 387.249 295.529 387.988 296.926C388.727 298.323 389.166 299.858 389.276 301.434Z" fill="black"/>
<path opacity="0.3" d="M55.0559 349.394L170.376 415.934C172.016 416.767 173.831 417.202 175.671 417.202C177.511 417.202 179.325 416.767 180.966 415.934L383.966 298.714C386.886 297.034 386.886 294.294 383.966 292.604L268.666 226.024C267.025 225.19 265.211 224.756 263.371 224.756C261.531 224.756 259.716 225.19 258.076 226.024L55.0559 343.274C52.1559 344.934 52.1559 347.704 55.0559 349.394Z" fill="black"/>
<path opacity="0.7" d="M175.676 417.244V428.704C173.831 428.746 172.005 428.312 170.376 427.444L55.0561 360.864C53.506 360.046 52.2003 358.832 51.2718 357.345C50.3434 355.859 49.8254 354.153 49.7705 352.401C49.7156 350.649 50.1258 348.914 50.9594 347.372C51.793 345.831 53.0202 344.537 54.5161 343.624C52.1461 345.324 52.3361 347.814 55.0561 349.394L170.376 415.934C172.003 416.814 173.827 417.265 175.676 417.244Z" fill="black"/>
<path d="M44.8161 343.464C42.0761 341.884 42.2261 339.214 42.2261 335.834V176.584C42.3257 174.747 42.8566 172.96 43.7757 171.367C44.6947 169.774 45.9761 168.42 47.5161 167.414L250.516 50.204C252.091 49.3672 253.841 48.9139 255.623 48.8808C257.406 48.8478 259.172 49.2361 260.776 50.014C263.526 51.594 263.376 54.274 263.376 57.644V216.934C263.277 218.772 262.745 220.56 261.824 222.154C260.903 223.747 259.619 225.101 258.076 226.104L55.0561 343.274C53.484 344.108 51.7378 344.559 49.9588 344.592C48.1797 344.625 46.4179 344.239 44.8161 343.464Z" fill="url(#paint7_linear_766_5009)"/>
<path opacity="0.3" d="M263.396 57.644C263.396 54.274 261.026 52.904 258.096 54.584L55.0559 171.804C53.4848 172.792 52.1963 174.17 51.3159 175.804L43.7559 171.404C44.6461 169.774 45.9366 168.397 47.5059 167.404L250.506 50.204C252.08 49.3672 253.83 48.9139 255.613 48.8808C257.396 48.8478 259.161 49.2361 260.766 50.014C263.536 51.594 263.396 54.274 263.396 57.644Z" fill="black"/>
<path opacity="0.5" d="M49.7861 180.934V340.224C49.7861 343.594 52.1561 344.964 55.0761 343.224L258.056 226.064C259.599 225.061 260.883 223.707 261.804 222.114C262.725 220.52 263.257 218.732 263.356 216.894V57.6441C263.356 54.2741 260.986 52.9041 258.056 54.6441L55.0561 171.804C53.5251 172.808 52.2509 174.157 51.3356 175.743C50.4204 177.328 49.8897 179.106 49.7861 180.934Z" fill="black"/>
<path opacity="0.7" d="M54.4561 343.594C52.9377 344.279 51.2873 344.623 49.6216 344.6C47.9559 344.578 46.3155 344.19 44.8161 343.464C42.0761 341.884 42.2261 339.214 42.2261 335.834V176.584C42.2874 174.743 42.8212 172.949 43.7761 171.374L51.3361 175.744C50.3925 177.317 49.8595 179.101 49.7861 180.934V340.224C49.7861 343.354 51.8261 344.764 54.4561 343.594Z" fill="black"/>
<path d="M57.9259 177.934L253.666 64.9338C255.416 63.9338 256.836 64.7438 256.836 66.7638V205.764C256.778 206.866 256.461 207.938 255.91 208.894C255.359 209.85 254.59 210.662 253.666 211.264L57.9259 324.264C56.1759 325.264 54.7559 324.454 54.7559 322.424V183.424C54.815 182.324 55.1329 181.253 55.6838 180.299C56.2346 179.345 57.0028 178.535 57.9259 177.934Z" fill="#FAFAFA"/>
<path d="M98.8963 212.874L213.826 146.524C217.236 144.524 219.996 145.954 219.996 149.644C219.996 153.334 217.236 157.934 213.826 159.934L98.8963 226.234C95.4963 228.234 92.7363 226.804 92.7363 223.114C92.7363 219.424 95.4963 214.844 98.8963 212.874Z" fill="#455A64"/>
<path d="M218.056 149.644C218.056 152.644 215.666 156.644 212.836 158.234L189.366 171.794L97.9059 224.584C97.3289 224.969 96.6585 225.19 95.9659 225.224C95.0559 225.224 94.5859 224.514 94.5859 223.114C94.5859 220.114 96.9759 216.114 99.8059 214.514L189.366 162.814L214.736 148.164C215.32 147.788 215.992 147.567 216.686 147.524C217.636 147.524 218.056 148.244 218.056 149.644Z" fill="url(#paint8_linear_766_5009)"/>
<path d="M218.056 149.644C218.056 152.644 215.666 156.644 212.836 158.234L189.366 171.794L97.9059 224.584C97.3289 224.969 96.6585 225.19 95.9659 225.224C95.0559 225.224 94.5859 224.514 94.5859 223.114C94.5859 220.114 96.9759 216.114 99.8059 214.514L189.366 162.814L214.736 148.164C215.32 147.788 215.992 147.567 216.686 147.524C217.636 147.524 218.056 148.244 218.056 149.644Z" fill="url(#paint9_linear_766_5009)"/>
<path d="M218.056 149.644C218.056 152.644 215.666 156.644 212.836 158.234L189.366 171.794V162.794L214.736 148.144C215.321 147.767 215.992 147.547 216.686 147.504C217.636 147.524 218.056 148.244 218.056 149.644Z" fill="#263238"/>
<path opacity="0.6" d="M126.126 199.344L99.846 214.514C97.016 216.144 94.626 220.084 94.626 223.114C94.626 224.514 95.096 225.224 96.006 225.224C96.6986 225.189 97.369 224.968 97.946 224.584L126.126 208.324V199.344Z" fill="white"/>
<path opacity="0.4" d="M126.136 208.314L157.986 189.934V180.954L126.136 199.344V208.314Z" fill="white"/>
<path d="M134.716 229.444C134.752 229.413 134.798 229.396 134.846 229.396C134.893 229.396 134.939 229.413 134.976 229.444C135.015 229.489 135.045 229.541 135.064 229.598C135.083 229.655 135.09 229.714 135.086 229.774V231.234C135.084 231.394 135.046 231.551 134.976 231.694C134.922 231.821 134.832 231.929 134.716 232.004L128.846 235.394C128.812 235.426 128.767 235.444 128.721 235.444C128.674 235.444 128.629 235.426 128.596 235.394C128.556 235.349 128.526 235.297 128.507 235.24C128.489 235.183 128.481 235.124 128.486 235.064V221.734C128.489 221.575 128.526 221.418 128.596 221.274C128.646 221.148 128.733 221.04 128.846 220.964L129.936 220.334C129.97 220.304 130.015 220.287 130.061 220.287C130.107 220.287 130.151 220.304 130.186 220.334C130.225 220.379 130.255 220.431 130.274 220.488C130.293 220.545 130.3 220.604 130.296 220.664V231.974L134.716 229.444Z" fill="#455A64"/>
<path d="M139.986 218.044C140.385 217.782 140.849 217.636 141.326 217.624C141.693 217.627 142.046 217.758 142.326 217.994C142.641 218.283 142.881 218.643 143.026 219.044C143.209 219.558 143.31 220.098 143.326 220.644C143.326 220.754 143.326 220.914 143.326 221.104V222.254C143.326 222.434 143.326 222.594 143.326 222.724C143.291 223.399 143.187 224.07 143.016 224.724C142.851 225.36 142.62 225.976 142.326 226.564C142.057 227.119 141.721 227.64 141.326 228.114C140.946 228.563 140.493 228.945 139.986 229.244C139.588 229.499 139.129 229.641 138.656 229.654C138.291 229.655 137.937 229.527 137.656 229.294C137.343 229.026 137.105 228.682 136.966 228.294C136.781 227.783 136.676 227.247 136.656 226.704C136.656 226.584 136.656 226.434 136.656 226.244C136.656 226.054 136.656 225.874 136.656 225.684C136.656 225.494 136.656 225.294 136.656 225.104C136.656 224.914 136.656 224.744 136.656 224.614C136.684 223.938 136.785 223.268 136.956 222.614C137.127 221.975 137.361 221.356 137.656 220.764C137.923 220.204 138.259 219.68 138.656 219.204C139.027 218.742 139.478 218.349 139.986 218.044ZM141.616 221.754C141.607 221.412 141.539 221.074 141.416 220.754C141.342 220.566 141.209 220.408 141.036 220.304C140.874 220.248 140.698 220.248 140.536 220.304C140.342 220.353 140.157 220.43 139.986 220.534C139.789 220.647 139.605 220.781 139.436 220.934C139.245 221.121 139.08 221.333 138.946 221.564C138.784 221.844 138.656 222.143 138.566 222.454C138.453 222.838 138.385 223.234 138.366 223.634C138.366 223.744 138.366 223.894 138.366 224.054C138.366 224.214 138.366 224.394 138.366 224.574C138.366 224.754 138.366 224.934 138.366 225.104C138.366 225.274 138.366 225.404 138.366 225.494C138.375 225.82 138.443 226.142 138.566 226.444C138.64 226.632 138.774 226.79 138.946 226.894C139.099 226.966 139.272 226.984 139.436 226.944C139.63 226.901 139.816 226.827 139.986 226.724C140.183 226.606 140.367 226.469 140.536 226.314C140.73 226.127 140.899 225.916 141.036 225.684C141.2 225.405 141.328 225.106 141.416 224.794C141.526 224.409 141.593 224.013 141.616 223.614C141.616 223.514 141.616 223.384 141.616 223.204V222.204C141.626 221.994 141.616 221.854 141.616 221.754Z" fill="#455A64"/>
<path d="M145.566 217.674C145.617 217.307 145.701 216.946 145.816 216.594C145.957 216.163 146.141 215.747 146.366 215.354C146.613 214.918 146.904 214.509 147.236 214.134C147.578 213.736 147.984 213.398 148.436 213.134C148.809 212.9 149.229 212.753 149.666 212.704C149.835 212.684 150.005 212.698 150.168 212.744C150.331 212.791 150.483 212.869 150.616 212.974C150.915 213.239 151.127 213.587 151.226 213.974C151.38 214.541 151.451 215.127 151.436 215.714V221.784C151.438 221.94 151.404 222.094 151.336 222.234C151.285 222.365 151.194 222.477 151.076 222.554L150.076 223.134C150.043 223.166 149.998 223.184 149.951 223.184C149.905 223.184 149.86 223.166 149.826 223.134C149.787 223.089 149.757 223.037 149.738 222.98C149.719 222.923 149.712 222.864 149.716 222.804V222.114C149.515 222.645 149.243 223.147 148.906 223.604C148.548 224.099 148.088 224.512 147.556 224.814C147.253 225.006 146.912 225.129 146.556 225.174C146.283 225.197 146.011 225.114 145.796 224.944C145.568 224.745 145.401 224.485 145.316 224.194C145.196 223.806 145.138 223.4 145.146 222.994C145.138 222.085 145.365 221.189 145.806 220.394C146.255 219.586 146.852 218.87 147.566 218.284L149.746 216.444C149.746 215.874 149.626 215.554 149.386 215.444C149.233 215.403 149.073 215.397 148.917 215.427C148.761 215.456 148.614 215.52 148.486 215.614C148.286 215.726 148.11 215.875 147.966 216.054C147.824 216.243 147.703 216.448 147.606 216.664C147.543 216.789 147.465 216.906 147.376 217.014C147.315 217.09 147.241 217.155 147.156 217.204L145.916 217.924C145.882 217.946 145.842 217.958 145.801 217.958C145.76 217.958 145.72 217.946 145.686 217.924C145.648 217.894 145.618 217.857 145.597 217.813C145.576 217.77 145.565 217.722 145.566 217.674ZM147.806 222.204C148.109 222.023 148.382 221.797 148.616 221.534C148.852 221.27 149.053 220.978 149.216 220.664C149.372 220.362 149.493 220.043 149.576 219.714C149.654 219.413 149.694 219.104 149.696 218.794V218.584L147.876 220.134C147.564 220.379 147.296 220.677 147.086 221.014C146.925 221.287 146.838 221.597 146.836 221.914C146.836 222.204 146.936 222.354 147.126 222.384C147.366 222.399 147.605 222.335 147.806 222.204Z" fill="#455A64"/>
<path d="M156.576 208.464C156.804 208.323 157.054 208.221 157.316 208.164C157.507 208.125 157.705 208.125 157.896 208.164C158.046 208.186 158.189 208.241 158.316 208.324C158.42 208.391 158.514 208.472 158.596 208.564V204.164C158.599 204.007 158.637 203.854 158.706 203.714C158.759 203.586 158.85 203.478 158.966 203.404L159.966 202.814C160.002 202.783 160.048 202.766 160.096 202.766C160.144 202.766 160.19 202.783 160.226 202.814C160.265 202.859 160.295 202.911 160.314 202.968C160.333 203.024 160.34 203.084 160.336 203.144V216.684C160.333 216.84 160.295 216.994 160.226 217.134C160.175 217.265 160.084 217.377 159.966 217.454L158.966 218.044C158.929 218.073 158.883 218.089 158.836 218.089C158.789 218.089 158.743 218.073 158.706 218.044C158.667 217.999 158.637 217.946 158.618 217.89C158.599 217.833 158.591 217.773 158.596 217.714V217.234C158.515 217.429 158.421 217.62 158.316 217.804C158.191 218.027 158.051 218.241 157.896 218.444C157.719 218.675 157.525 218.892 157.316 219.094C157.093 219.307 156.844 219.491 156.576 219.644C156.22 219.882 155.792 219.988 155.366 219.944C155 219.886 154.668 219.693 154.436 219.404C154.15 219.053 153.945 218.643 153.836 218.204C153.68 217.654 153.596 217.085 153.586 216.514C153.586 216.314 153.586 216.084 153.586 215.804C153.586 215.524 153.586 215.284 153.586 215.074C153.605 214.401 153.689 213.731 153.836 213.074C153.971 212.422 154.172 211.785 154.436 211.174C154.674 210.602 154.986 210.063 155.366 209.574C155.69 209.125 156.101 208.748 156.576 208.464ZM155.326 214.184C155.306 214.567 155.306 214.951 155.326 215.334C155.386 216.204 155.556 216.744 155.866 216.954C156.035 217.056 156.231 217.106 156.429 217.097C156.626 217.088 156.817 217.021 156.976 216.904C157.46 216.608 157.846 216.177 158.086 215.664C158.399 215.042 158.573 214.359 158.596 213.664C158.596 213.444 158.596 213.184 158.596 212.864C158.596 212.544 158.596 212.294 158.596 212.094C158.611 211.839 158.573 211.585 158.485 211.346C158.397 211.107 158.262 210.888 158.086 210.704C157.927 210.581 157.732 210.515 157.531 210.515C157.33 210.515 157.135 210.581 156.976 210.704C156.495 210.998 156.109 211.425 155.866 211.934C155.526 212.636 155.342 213.404 155.326 214.184Z" fill="#455A64"/>
<path d="M164.316 200.284C164.35 200.252 164.395 200.233 164.441 200.233C164.488 200.233 164.533 200.252 164.566 200.284C164.605 200.329 164.635 200.381 164.654 200.438C164.673 200.494 164.681 200.554 164.676 200.614V202.224C164.673 202.38 164.636 202.534 164.566 202.674C164.516 202.8 164.429 202.908 164.316 202.984L163.156 203.654C163.123 203.686 163.078 203.704 163.031 203.704C162.985 203.704 162.94 203.686 162.906 203.654C162.867 203.609 162.837 203.557 162.818 203.5C162.799 203.443 162.792 203.383 162.796 203.324V201.714C162.799 201.558 162.837 201.404 162.906 201.264C162.953 201.136 163.041 201.027 163.156 200.954L164.316 200.284ZM164.606 214.214C164.603 214.37 164.566 214.524 164.496 214.664C164.446 214.793 164.359 214.904 164.246 214.984L163.246 215.564C163.209 215.593 163.163 215.609 163.116 215.609C163.069 215.609 163.023 215.593 162.986 215.564C162.949 215.518 162.92 215.465 162.903 215.409C162.886 215.352 162.88 215.293 162.886 215.234V205.614C162.885 205.455 162.919 205.298 162.986 205.154C163.043 205.029 163.133 204.921 163.246 204.844L164.246 204.254C164.28 204.222 164.325 204.203 164.371 204.203C164.418 204.203 164.463 204.222 164.496 204.254C164.536 204.299 164.565 204.351 164.584 204.408C164.603 204.464 164.611 204.524 164.606 204.584V214.214Z" fill="#455A64"/>
<path d="M173.666 208.984C173.668 209.14 173.634 209.294 173.566 209.434C173.512 209.561 173.421 209.669 173.306 209.744L172.306 210.334C172.272 210.366 172.227 210.384 172.181 210.384C172.134 210.384 172.089 210.366 172.056 210.334C172.016 210.289 171.986 210.237 171.967 210.18C171.949 210.123 171.941 210.063 171.946 210.004V204.764C171.998 204.15 171.869 203.535 171.576 202.994C171.316 202.644 170.936 202.624 170.416 202.924C169.899 203.25 169.505 203.739 169.296 204.314C169.014 205.016 168.875 205.767 168.886 206.524V211.774C168.888 211.93 168.854 212.084 168.786 212.224C168.732 212.351 168.641 212.459 168.526 212.534L167.526 213.124C167.492 213.156 167.447 213.174 167.401 213.174C167.354 213.174 167.309 213.156 167.276 213.124C167.236 213.079 167.206 213.027 167.187 212.97C167.168 212.913 167.161 212.853 167.166 212.794V203.134C167.169 202.978 167.206 202.824 167.276 202.684C167.323 202.556 167.41 202.447 167.526 202.374L168.526 201.784C168.562 201.753 168.608 201.736 168.656 201.736C168.703 201.736 168.749 201.753 168.786 201.784C168.823 201.83 168.851 201.882 168.869 201.939C168.886 201.995 168.891 202.055 168.886 202.114V202.584C169.117 202.107 169.392 201.651 169.706 201.224C170.007 200.821 170.384 200.482 170.816 200.224C171.217 199.946 171.698 199.806 172.186 199.824C172.364 199.846 172.535 199.906 172.688 199.999C172.841 200.092 172.973 200.216 173.076 200.364C173.323 200.748 173.483 201.181 173.546 201.634C173.646 202.215 173.693 202.804 173.686 203.394L173.666 208.984Z" fill="#455A64"/>
<path d="M179.166 208.424C179.381 208.3 179.577 208.145 179.746 207.964C179.951 207.739 180.129 207.491 180.276 207.224C180.452 206.91 180.587 206.573 180.676 206.224C180.779 205.857 180.829 205.476 180.826 205.094V204.334C180.743 204.526 180.65 204.713 180.546 204.894C180.418 205.119 180.278 205.336 180.126 205.544C179.95 205.772 179.756 205.986 179.546 206.184C179.324 206.401 179.075 206.589 178.806 206.744C178.448 206.976 178.021 207.078 177.596 207.034C177.23 206.976 176.898 206.784 176.666 206.494C176.38 206.144 176.175 205.734 176.066 205.294C175.911 204.748 175.827 204.183 175.816 203.614C175.816 203.414 175.816 203.174 175.816 202.904C175.816 202.634 175.816 202.384 175.816 202.174C175.835 201.501 175.919 200.831 176.066 200.174C176.198 199.522 176.399 198.885 176.666 198.274C176.904 197.699 177.217 197.158 177.596 196.664C177.92 196.218 178.332 195.844 178.806 195.564C179.036 195.425 179.286 195.321 179.546 195.254C179.738 195.22 179.935 195.22 180.126 195.254C180.276 195.279 180.419 195.333 180.546 195.414C180.652 195.479 180.747 195.56 180.826 195.654V195.174C180.829 195.018 180.867 194.864 180.936 194.724C180.987 194.596 181.079 194.487 181.196 194.414L182.196 193.824C182.233 193.793 182.279 193.776 182.326 193.776C182.374 193.776 182.42 193.793 182.456 193.824C182.496 193.869 182.526 193.922 182.545 193.978C182.563 194.035 182.571 194.095 182.566 194.154V203.934C182.602 205.416 182.291 206.885 181.656 208.224C181.11 209.356 180.24 210.299 179.156 210.934C178.77 211.174 178.337 211.328 177.886 211.384C177.546 211.428 177.199 211.376 176.886 211.234C176.602 211.082 176.367 210.854 176.206 210.574C176.026 210.254 175.93 209.892 175.926 209.524C175.918 209.368 175.953 209.212 176.026 209.074C176.077 208.946 176.168 208.837 176.286 208.764L177.196 208.234C177.241 208.197 177.298 208.176 177.356 208.176C177.415 208.176 177.471 208.197 177.516 208.234L177.746 208.464C177.8 208.546 177.87 208.616 177.953 208.668C178.036 208.719 178.129 208.752 178.226 208.764C178.568 208.755 178.898 208.636 179.166 208.424ZM177.556 201.344C177.526 201.73 177.526 202.118 177.556 202.504C177.616 203.364 177.786 203.904 178.096 204.124C178.266 204.227 178.461 204.277 178.659 204.268C178.857 204.259 179.047 204.192 179.206 204.074C179.686 203.774 180.071 203.344 180.316 202.834C180.629 202.212 180.803 201.53 180.826 200.834C180.826 200.614 180.826 200.344 180.826 200.034C180.826 199.724 180.826 199.454 180.826 199.264C180.841 199.009 180.804 198.752 180.716 198.512C180.628 198.271 180.492 198.051 180.316 197.864C180.156 197.745 179.961 197.681 179.761 197.681C179.561 197.681 179.367 197.745 179.206 197.864C178.728 198.162 178.344 198.588 178.096 199.094C177.758 199.797 177.574 200.564 177.556 201.344Z" fill="#455A64"/>
<path d="M186.546 198.934C186.582 198.906 186.626 198.891 186.671 198.891C186.717 198.891 186.761 198.906 186.796 198.934C186.835 198.979 186.865 199.032 186.884 199.088C186.903 199.145 186.911 199.205 186.906 199.264V201.264C186.903 201.421 186.866 201.574 186.796 201.714C186.746 201.84 186.659 201.948 186.546 202.024L185.296 202.744C185.26 202.775 185.214 202.793 185.166 202.793C185.119 202.793 185.072 202.775 185.036 202.744C184.998 202.699 184.97 202.646 184.953 202.59C184.935 202.533 184.93 202.473 184.936 202.414V200.414C184.934 200.259 184.968 200.105 185.036 199.964C185.093 199.837 185.183 199.726 185.296 199.645L186.546 198.934Z" fill="#455A64"/>
<path d="M190.706 196.564C190.742 196.533 190.788 196.516 190.836 196.516C190.883 196.516 190.929 196.533 190.966 196.564C191.007 196.608 191.038 196.66 191.056 196.717C191.075 196.774 191.082 196.834 191.076 196.894V198.894C191.073 199.05 191.035 199.204 190.966 199.344C190.915 199.472 190.824 199.581 190.706 199.654L189.466 200.374C189.429 200.405 189.383 200.422 189.336 200.422C189.288 200.422 189.242 200.405 189.206 200.374C189.168 200.328 189.14 200.275 189.123 200.219C189.106 200.162 189.1 200.103 189.106 200.044V198.044C189.104 197.888 189.138 197.734 189.206 197.594C189.257 197.465 189.348 197.356 189.466 197.284L190.706 196.564Z" fill="#455A64"/>
<path d="M194.876 194.154C194.912 194.123 194.958 194.106 195.006 194.106C195.053 194.106 195.099 194.123 195.136 194.154C195.175 194.199 195.205 194.252 195.224 194.308C195.243 194.365 195.25 194.425 195.246 194.484V196.484C195.242 196.644 195.204 196.801 195.136 196.944C195.082 197.072 194.992 197.18 194.876 197.254L193.636 197.974C193.599 198.004 193.553 198.02 193.506 198.02C193.458 198.02 193.413 198.004 193.376 197.974C193.338 197.929 193.31 197.876 193.293 197.819C193.276 197.763 193.27 197.703 193.276 197.644V195.644C193.275 195.486 193.309 195.329 193.376 195.184C193.429 195.057 193.52 194.949 193.636 194.874L194.876 194.154Z" fill="#455A64"/>
<path opacity="0.3" d="M69.7356 343.594L258.176 234.794C258.998 234.38 259.905 234.164 260.826 234.164C261.746 234.164 262.654 234.38 263.476 234.794L266.616 236.514C268.076 237.364 268.076 238.734 266.616 239.574L78.1356 348.354C77.3168 348.773 76.4103 348.991 75.4906 348.991C74.571 348.991 73.6645 348.773 72.8456 348.354L69.7356 346.644C68.2756 345.804 68.2756 344.434 69.7356 343.594Z" fill="black"/>
<path opacity="0.3" d="M84.5165 352.384L272.956 243.584C273.687 243.166 274.504 242.923 275.345 242.877C276.185 242.83 277.024 242.979 277.796 243.314L326.847 271.634C328.057 272.334 327.846 273.584 326.386 274.434L138.167 383.084C137.433 383.499 136.614 383.74 135.773 383.787C134.932 383.834 134.091 383.686 133.316 383.354L84.0565 355.164C82.8465 354.474 83.0565 353.224 84.5165 352.384Z" fill="#263238"/>
<path d="M247.806 289.284L253.706 285.874C253.956 285.724 253.976 285.504 253.756 285.374L248.106 282.114C247.973 282.052 247.828 282.019 247.681 282.019C247.534 282.019 247.389 282.052 247.256 282.114L241.356 285.524C241.096 285.674 241.076 285.894 241.306 286.024L246.946 289.274C247.079 289.34 247.226 289.375 247.375 289.376C247.523 289.378 247.671 289.347 247.806 289.284ZM239.186 277.494L233.286 280.894C233.036 281.044 233.016 281.264 233.236 281.394L238.886 284.654C239.019 284.717 239.164 284.749 239.311 284.749C239.458 284.749 239.603 284.717 239.736 284.654L245.636 281.244C245.886 281.104 245.916 280.884 245.686 280.754L240.056 277.464C239.919 277.399 239.769 277.367 239.617 277.372C239.466 277.378 239.318 277.419 239.186 277.494ZM220.126 288.494L210.126 294.264C209.866 294.404 209.846 294.634 210.066 294.754L215.716 298.014C215.849 298.083 215.996 298.118 216.146 298.118C216.295 298.118 216.443 298.083 216.576 298.014L226.576 292.254C226.826 292.104 226.846 291.884 226.576 291.754L220.936 288.494C220.808 288.438 220.67 288.409 220.531 288.409C220.391 288.409 220.253 288.438 220.126 288.494ZM230.566 282.494L224.666 285.894C224.416 286.044 224.396 286.264 224.616 286.394L230.256 289.654C230.39 289.718 230.537 289.751 230.686 289.751C230.835 289.751 230.981 289.718 231.116 289.654L237.016 286.244C237.266 286.104 237.286 285.884 237.066 285.754L231.426 282.494C231.294 282.423 231.148 282.384 230.998 282.38C230.849 282.377 230.7 282.409 230.566 282.474V282.494ZM207.416 295.834L201.516 299.244C201.266 299.384 201.246 299.604 201.466 299.734L207.116 302.994C207.247 303.063 207.393 303.098 207.541 303.098C207.689 303.098 207.835 303.063 207.966 302.994L213.866 299.594C214.116 299.444 214.146 299.224 213.916 299.094L208.276 295.834C208.141 295.77 207.995 295.737 207.846 295.737C207.697 295.737 207.55 295.77 207.416 295.834ZM198.796 300.834L192.896 304.244C192.646 304.384 192.626 304.604 192.846 304.734L198.486 307.994C198.619 308.063 198.766 308.098 198.916 308.098C199.065 308.098 199.213 308.063 199.346 307.994L205.246 304.584C205.496 304.444 205.516 304.224 205.296 304.094L199.656 300.834C199.524 300.763 199.378 300.724 199.228 300.72C199.079 300.717 198.93 300.749 198.796 300.814V300.834ZM220.916 314.134L226.816 310.724C227.066 310.584 227.096 310.354 226.866 310.234L221.226 306.934C221.093 306.866 220.945 306.83 220.796 306.83C220.646 306.83 220.499 306.866 220.366 306.934L214.466 310.334C214.216 310.484 214.196 310.704 214.466 310.834L220.116 314.094C220.241 314.152 220.376 314.184 220.514 314.188C220.651 314.191 220.788 314.166 220.916 314.114V314.134ZM212.296 319.134L218.196 315.724C218.446 315.574 218.466 315.354 218.246 315.224L212.606 311.934C212.471 311.87 212.325 311.837 212.176 311.837C212.027 311.837 211.88 311.87 211.746 311.934L205.846 315.344C205.596 315.494 205.576 315.714 205.846 315.844L211.486 319.104C211.614 319.159 211.752 319.187 211.892 319.185C212.031 319.183 212.169 319.152 212.296 319.094V319.134ZM203.676 324.134L209.576 320.724C209.826 320.574 209.846 320.354 209.576 320.224L203.976 316.934C203.843 316.872 203.698 316.839 203.551 316.839C203.404 316.839 203.259 316.872 203.126 316.934L197.226 320.344C196.966 320.494 196.946 320.714 197.226 320.834L202.866 324.094C202.995 324.148 203.133 324.173 203.273 324.17C203.412 324.167 203.55 324.134 203.676 324.074V324.134ZM195.046 329.134L200.946 325.734C201.196 325.584 201.226 325.364 200.996 325.234L195.356 321.934C195.221 321.87 195.075 321.837 194.926 321.837C194.777 321.837 194.63 321.87 194.496 321.934L188.596 325.344C188.346 325.484 188.326 325.714 188.596 325.834L194.246 329.094C194.376 329.148 194.516 329.172 194.657 329.163C194.797 329.155 194.934 329.114 195.056 329.044L195.046 329.134ZM239.176 294.344L245.076 290.944C245.326 290.794 245.356 290.574 245.126 290.444L239.486 287.184C239.351 287.12 239.205 287.087 239.056 287.087C238.907 287.087 238.76 287.12 238.626 287.184L232.726 290.594C232.476 290.734 232.456 290.964 232.676 291.084L238.326 294.344C238.464 294.399 238.614 294.42 238.762 294.404C238.91 294.388 239.052 294.337 239.176 294.254V294.344ZM229.546 309.224L242.706 301.624C242.956 301.474 242.976 301.254 242.756 301.124L229.056 293.124C228.921 293.06 228.775 293.027 228.626 293.027C228.477 293.027 228.33 293.06 228.196 293.124L221.396 297.054C221.146 297.204 221.116 297.424 221.346 297.554L228.596 301.744C228.826 301.864 228.796 302.094 228.546 302.234L223.056 305.404C222.806 305.554 222.776 305.774 223.056 305.904L228.696 309.164C228.831 309.222 228.977 309.249 229.124 309.244C229.271 309.239 229.415 309.201 229.546 309.134V309.224ZM190.176 305.884L184.276 309.284C184.016 309.434 183.996 309.654 184.216 309.784L189.866 313.044C190 313.108 190.147 313.141 190.296 313.141C190.445 313.141 190.591 313.108 190.726 313.044L196.626 309.634C196.876 309.494 196.896 309.274 196.676 309.144L191.056 305.764C190.918 305.695 190.766 305.662 190.612 305.667C190.458 305.672 190.308 305.716 190.176 305.794V305.884ZM181.546 310.884L175.646 314.284C175.396 314.434 175.376 314.654 175.596 314.784L181.246 318.044C181.379 318.107 181.524 318.139 181.671 318.139C181.818 318.139 181.963 318.107 182.096 318.044L187.996 314.634C188.246 314.494 188.276 314.264 188.046 314.144L182.406 310.884C182.282 310.798 182.139 310.743 181.989 310.724C181.84 310.705 181.687 310.722 181.546 310.774V310.884ZM133.826 363.934C133.959 364.003 134.106 364.038 134.256 364.038C134.405 364.038 134.553 364.003 134.686 363.934L140.586 360.534C140.836 360.384 140.856 360.164 140.636 360.034L134.996 356.774C134.861 356.71 134.715 356.677 134.566 356.677C134.417 356.677 134.27 356.71 134.136 356.774L128.236 360.184C127.986 360.324 127.966 360.554 128.186 360.674L133.826 363.934ZM112.566 350.614L106.666 354.014C106.406 354.164 106.386 354.384 106.616 354.514L112.256 357.774C112.39 357.838 112.537 357.871 112.686 357.871C112.835 357.871 112.981 357.838 113.116 357.774L119.016 354.364C119.266 354.224 119.286 353.994 119.016 353.874L113.366 350.614C113.242 350.552 113.105 350.519 112.967 350.518C112.828 350.516 112.691 350.546 112.566 350.604V350.614ZM123.496 360.614C123.63 360.678 123.777 360.711 123.926 360.711C124.075 360.711 124.221 360.678 124.356 360.614L130.256 357.204C130.506 357.064 130.526 356.844 130.306 356.714L124.656 353.454C124.525 353.386 124.379 353.35 124.231 353.35C124.083 353.35 123.937 353.386 123.806 353.454L117.906 356.854C117.656 357.004 117.626 357.224 117.906 357.354L123.496 360.614ZM147.286 365.934L153.186 362.524C153.436 362.384 153.466 362.164 153.236 362.034L147.596 358.774C147.463 358.706 147.315 358.67 147.166 358.67C147.016 358.67 146.869 358.706 146.736 358.774L140.836 362.174C140.586 362.324 140.566 362.544 140.786 362.674L146.436 365.934C146.569 365.997 146.714 366.029 146.861 366.029C147.008 366.029 147.153 365.997 147.286 365.934ZM137.806 370.934C137.94 370.998 138.087 371.031 138.236 371.031C138.385 371.031 138.531 370.998 138.666 370.934L144.566 367.524C144.816 367.384 144.836 367.164 144.616 367.034L138.976 363.774C138.843 363.706 138.695 363.67 138.546 363.67C138.396 363.67 138.249 363.706 138.116 363.774L132.216 367.174C131.966 367.324 131.946 367.544 132.216 367.674L137.806 370.934ZM121.186 345.614L115.286 349.014C115.036 349.164 115.016 349.384 115.286 349.514L120.926 352.774C121.06 352.838 121.207 352.871 121.356 352.871C121.505 352.871 121.651 352.838 121.786 352.774L127.686 349.364C127.936 349.224 127.956 349.004 127.686 348.874L122.056 345.594C121.919 345.529 121.769 345.497 121.617 345.502C121.466 345.508 121.318 345.549 121.186 345.624V345.614ZM164.306 320.714L158.406 324.124C158.146 324.274 158.126 324.494 158.346 324.624L163.996 327.874C164.13 327.938 164.277 327.971 164.426 327.971C164.575 327.971 164.721 327.938 164.856 327.874L170.756 324.464C171.006 324.314 171.026 324.094 170.806 323.964L165.156 320.714C165.023 320.649 164.877 320.616 164.73 320.618C164.582 320.619 164.437 320.656 164.306 320.724V320.714ZM129.806 340.634L123.906 344.044C123.656 344.184 123.636 344.404 123.906 344.534L129.556 347.794C129.689 347.857 129.834 347.889 129.981 347.889C130.128 347.889 130.273 347.857 130.406 347.794L136.306 344.384C136.556 344.244 136.586 344.024 136.356 343.894L130.716 340.634C130.576 340.559 130.419 340.52 130.259 340.522C130.1 340.524 129.944 340.566 129.806 340.644V340.634ZM172.926 315.744L167.026 319.144C166.776 319.294 166.756 319.514 166.976 319.644L172.616 322.904C172.75 322.968 172.897 323.001 173.046 323.001C173.195 323.001 173.341 322.968 173.476 322.904L179.376 319.494C179.626 319.354 179.646 319.124 179.426 319.004L173.786 315.744C173.652 315.677 173.504 315.643 173.355 315.645C173.205 315.647 173.058 315.684 172.926 315.754V315.744ZM155.676 325.694L149.776 329.104C149.526 329.244 149.506 329.474 149.726 329.594L155.376 332.854C155.507 332.923 155.653 332.958 155.801 332.958C155.949 332.958 156.095 332.923 156.226 332.854L162.126 329.454C162.376 329.304 162.406 329.084 162.176 328.954L156.536 325.694C156.401 325.632 156.253 325.6 156.105 325.602C155.956 325.604 155.809 325.639 155.676 325.704V325.694ZM147.056 330.694L141.156 334.104C140.906 334.244 140.886 334.464 141.156 334.594L146.796 337.854C146.929 337.923 147.076 337.958 147.226 337.958C147.375 337.958 147.523 337.923 147.656 337.854L153.556 334.454C153.806 334.304 153.826 334.084 153.606 333.954L147.966 330.694C147.826 330.621 147.67 330.581 147.512 330.58C147.354 330.578 147.197 330.614 147.056 330.684V330.694ZM138.436 335.694L132.536 339.104C132.276 339.244 132.256 339.464 132.476 339.594L138.126 342.854C138.259 342.923 138.406 342.958 138.556 342.958C138.705 342.958 138.853 342.923 138.986 342.854L144.886 339.444C145.136 339.304 145.156 339.084 144.886 338.954L139.236 335.694C139.112 335.634 138.977 335.601 138.839 335.596C138.701 335.591 138.564 335.614 138.436 335.664V335.694ZM177.806 339.034L183.706 335.624C183.956 335.484 183.976 335.264 183.706 335.134L178.056 331.874C177.923 331.812 177.778 331.779 177.631 331.779C177.484 331.779 177.339 331.812 177.206 331.874L171.306 335.284C171.046 335.424 171.026 335.644 171.256 335.774L176.896 339.034C177.038 339.107 177.195 339.142 177.355 339.137C177.514 339.132 177.669 339.086 177.806 339.004V339.034ZM258.246 266.514L252.346 269.924C252.096 270.064 252.076 270.294 252.296 270.414L257.946 273.674C258.079 273.743 258.226 273.778 258.376 273.778C258.525 273.778 258.673 273.743 258.806 273.674L264.706 270.274C264.956 270.124 264.976 269.904 264.756 269.774L259.106 266.514C258.974 266.446 258.828 266.407 258.679 266.402C258.53 266.397 258.382 266.425 258.246 266.484V266.514ZM247.816 272.514L241.916 275.924C241.656 276.064 241.636 276.284 241.856 276.414L247.506 279.674C247.639 279.743 247.786 279.778 247.936 279.778C248.085 279.778 248.233 279.743 248.366 279.674L254.266 276.264C254.516 276.124 254.536 275.904 254.316 275.774L248.666 272.514C248.533 272.452 248.388 272.419 248.241 272.419C248.094 272.419 247.949 272.452 247.816 272.514ZM266.876 261.514L260.976 264.924C260.726 265.074 260.696 265.294 260.926 265.424L266.566 268.674C266.7 268.738 266.847 268.771 266.996 268.771C267.145 268.771 267.291 268.738 267.426 268.674L273.326 265.264C273.576 265.114 273.596 264.894 273.376 264.764L267.726 261.504C267.593 261.442 267.448 261.409 267.301 261.409C267.154 261.409 267.009 261.442 266.876 261.504V261.514ZM219.206 305.794L225.106 302.394C225.356 302.244 225.386 302.024 225.106 301.894L219.466 298.634C219.331 298.57 219.185 298.537 219.036 298.537C218.887 298.537 218.74 298.57 218.606 298.634L212.706 302.044C212.456 302.184 212.436 302.404 212.706 302.534L218.356 305.794C218.488 305.861 218.634 305.895 218.782 305.893C218.93 305.892 219.075 305.854 219.206 305.784V305.794ZM276.356 256.514C276.223 256.446 276.075 256.41 275.926 256.41C275.776 256.41 275.629 256.446 275.496 256.514L269.596 259.914C269.346 260.064 269.326 260.284 269.546 260.414L275.186 263.674C275.32 263.738 275.467 263.771 275.616 263.771C275.765 263.771 275.911 263.738 276.046 263.674L281.946 260.264C282.196 260.124 282.226 259.894 281.996 259.774L276.356 256.514ZM186.426 334.034L192.326 330.634C192.576 330.484 192.596 330.264 192.326 330.134L186.686 326.874C186.551 326.81 186.405 326.777 186.256 326.777C186.107 326.777 185.96 326.81 185.826 326.874L179.926 330.284C179.676 330.424 179.656 330.644 179.926 330.774L185.566 334.034C185.7 334.101 185.847 334.135 185.997 334.133C186.147 334.132 186.294 334.094 186.426 334.024V334.034ZM292.176 273.034L298.076 269.624C298.326 269.484 298.346 269.254 298.126 269.134L292.486 265.874C292.353 265.806 292.205 265.77 292.056 265.77C291.906 265.77 291.759 265.806 291.626 265.874L285.726 269.274C285.476 269.424 285.446 269.644 285.676 269.774L291.316 273.034C291.457 273.083 291.608 273.099 291.757 273.082C291.906 273.065 292.049 273.014 292.176 272.934V273.034ZM275.486 273.354L281.386 269.944C281.636 269.804 281.666 269.584 281.436 269.454L275.796 266.194C275.661 266.13 275.515 266.097 275.366 266.097C275.217 266.097 275.07 266.13 274.936 266.194L269.036 269.604C268.786 269.744 268.766 269.964 268.986 270.094L274.636 273.354C274.772 273.414 274.92 273.439 275.068 273.429C275.216 273.418 275.359 273.372 275.486 273.294V273.354ZM284.416 261.214C284.281 261.15 284.135 261.117 283.986 261.117C283.837 261.117 283.69 261.15 283.556 261.214L277.656 264.624C277.406 264.764 277.386 264.984 277.606 265.114L283.256 268.374C283.389 268.443 283.536 268.478 283.686 268.478C283.835 268.478 283.983 268.443 284.116 268.374L290.056 264.934C290.306 264.784 290.326 264.564 290.106 264.434L284.416 261.214ZM286.236 260.164L299.946 268.084C300.079 268.147 300.224 268.179 300.371 268.179C300.518 268.179 300.663 268.147 300.796 268.084L306.696 264.674C306.946 264.534 306.976 264.314 306.746 264.184L293.056 256.174C292.923 256.112 292.778 256.079 292.631 256.079C292.484 256.079 292.339 256.112 292.206 256.174L286.306 259.584C286.056 259.754 286.056 259.984 286.236 260.104V260.164ZM266.316 271.164L260.416 274.574C260.166 274.714 260.136 274.934 260.366 275.064L266.006 278.324C266.14 278.388 266.287 278.421 266.436 278.421C266.585 278.421 266.731 278.388 266.866 278.324L272.766 274.914C273.016 274.774 273.036 274.554 272.816 274.424L267.176 271.164C267.044 271.093 266.898 271.054 266.748 271.05C266.599 271.047 266.45 271.079 266.316 271.144V271.164ZM201.416 308.634L195.516 312.044C195.266 312.184 195.236 312.404 195.466 312.534L201.106 315.794C201.239 315.863 201.386 315.898 201.536 315.898C201.685 315.898 201.833 315.863 201.966 315.794L207.866 312.384C208.116 312.244 208.136 312.024 207.916 311.894L202.266 308.634C202.136 308.563 201.991 308.524 201.843 308.52C201.695 308.517 201.549 308.549 201.416 308.614V308.634ZM282.696 278.004C282.83 278.068 282.977 278.101 283.126 278.101C283.275 278.101 283.421 278.068 283.556 278.004L289.456 274.594C289.706 274.454 289.726 274.224 289.506 274.104L283.856 270.844C283.725 270.776 283.579 270.74 283.431 270.74C283.283 270.74 283.137 270.776 283.006 270.844L277.106 274.244C276.846 274.394 276.826 274.614 277.046 274.744L282.696 278.004ZM210.056 303.634L204.156 307.044C203.906 307.184 203.886 307.404 204.106 307.534L209.746 310.794C209.879 310.863 210.026 310.898 210.176 310.898C210.325 310.898 210.473 310.863 210.606 310.794L216.506 307.394C216.756 307.244 216.776 307.024 216.506 306.894L210.866 303.634C210.738 303.578 210.6 303.549 210.461 303.549C210.321 303.549 210.183 303.578 210.056 303.634ZM142.456 358.934C142.587 359.001 142.733 359.036 142.881 359.036C143.028 359.036 143.174 359.001 143.306 358.934L149.206 355.524C149.456 355.374 149.486 355.154 149.206 355.024L143.566 351.774C143.431 351.71 143.285 351.677 143.136 351.677C142.987 351.677 142.84 351.71 142.706 351.774L136.806 355.184C136.556 355.334 136.536 355.554 136.756 355.684L142.456 358.934ZM132.456 348.434L126.556 351.844C126.306 351.984 126.286 352.204 126.506 352.334L132.146 355.594C132.28 355.658 132.427 355.691 132.576 355.691C132.725 355.691 132.871 355.658 133.006 355.594L138.906 352.184C139.156 352.044 139.176 351.824 138.956 351.694L133.316 348.434C133.178 348.362 133.025 348.325 132.869 348.327C132.714 348.329 132.562 348.369 132.426 348.444L132.456 348.434ZM151.966 353.934L157.866 350.524C158.116 350.384 158.136 350.154 157.916 350.034L152.266 346.774C152.135 346.706 151.989 346.67 151.841 346.67C151.693 346.67 151.547 346.706 151.416 346.774L145.516 350.174C145.266 350.324 145.236 350.544 145.466 350.674L151.056 353.934C151.193 354.001 151.343 354.036 151.496 354.036C151.648 354.036 151.799 354.001 151.936 353.934H151.966ZM160.586 348.934L166.486 345.524C166.736 345.384 166.756 345.164 166.486 345.034L160.846 341.774C160.713 341.706 160.565 341.67 160.416 341.67C160.266 341.67 160.119 341.706 159.986 341.774L154.086 345.174C153.836 345.324 153.816 345.544 154.036 345.674L159.676 348.934C159.813 349.001 159.963 349.036 160.116 349.036C160.268 349.036 160.419 349.001 160.556 348.934H160.586ZM169.206 343.934L175.106 340.524C175.356 340.384 175.386 340.164 175.106 340.034L169.466 336.774C169.333 336.706 169.185 336.67 169.036 336.67C168.886 336.67 168.739 336.706 168.606 336.774L162.706 340.174C162.456 340.324 162.436 340.544 162.706 340.674L168.356 343.934C168.481 344 168.619 344.039 168.76 344.047C168.902 344.056 169.043 344.034 169.176 343.984L169.206 343.934ZM141.056 343.464L135.156 346.874C134.906 347.014 134.886 347.234 135.106 347.364L140.756 350.624C140.887 350.693 141.033 350.728 141.181 350.728C141.329 350.728 141.475 350.693 141.606 350.624L147.506 347.214C147.756 347.074 147.786 346.854 147.556 346.724L141.916 343.464C141.781 343.4 141.635 343.367 141.486 343.367C141.337 343.367 141.19 343.4 141.056 343.464ZM149.686 338.464L143.786 341.874C143.536 342.014 143.506 342.234 143.736 342.364L149.376 345.624C149.509 345.693 149.656 345.728 149.806 345.728C149.955 345.728 150.103 345.693 150.236 345.624L156.136 342.224C156.386 342.074 156.406 341.854 156.186 341.724L150.536 338.464C150.4 338.403 150.252 338.374 150.104 338.377C149.955 338.381 149.809 338.417 149.676 338.484L149.686 338.464ZM184.176 318.554L178.276 321.954C178.026 322.104 178.006 322.324 178.226 322.454L183.866 325.714C184 325.778 184.147 325.811 184.296 325.811C184.445 325.811 184.591 325.778 184.726 325.714L190.626 322.304C190.876 322.164 190.896 321.934 190.676 321.814L185.056 318.544C184.916 318.475 184.762 318.442 184.607 318.447C184.452 318.452 184.3 318.496 184.166 318.574L184.176 318.554ZM175.556 323.554L169.656 326.954C169.406 327.104 169.376 327.324 169.606 327.454L175.246 330.714C175.38 330.778 175.527 330.811 175.676 330.811C175.825 330.811 175.971 330.778 176.106 330.714L182.006 327.304C182.256 327.164 182.276 326.934 182.056 326.814L176.406 323.554C176.273 323.484 176.126 323.448 175.976 323.448C175.826 323.448 175.678 323.484 175.546 323.554H175.556ZM192.796 313.554L186.896 316.954C186.646 317.104 186.626 317.324 186.846 317.454L192.496 320.714C192.629 320.777 192.774 320.809 192.921 320.809C193.068 320.809 193.213 320.777 193.346 320.714L199.246 317.304C199.496 317.164 199.526 316.944 199.246 316.814L193.606 313.554C193.475 313.498 193.333 313.473 193.191 313.48C193.049 313.487 192.911 313.526 192.786 313.594L192.796 313.554ZM158.306 333.464L152.406 336.874C152.156 337.014 152.136 337.244 152.356 337.364L157.996 340.624C158.129 340.693 158.276 340.728 158.426 340.728C158.575 340.728 158.723 340.693 158.856 340.624L164.756 337.224C165.006 337.074 165.026 336.854 164.806 336.724L159.166 333.464C159.027 333.405 158.877 333.378 158.726 333.385C158.576 333.391 158.428 333.432 158.296 333.504L158.306 333.464ZM166.926 328.464L161.056 331.934C160.806 332.084 160.786 332.304 161.006 332.434L166.656 335.684C166.787 335.751 166.933 335.786 167.081 335.786C167.228 335.786 167.374 335.751 167.506 335.684L173.406 332.274C173.656 332.124 173.686 331.904 173.456 331.774L167.816 328.524C167.676 328.454 167.522 328.417 167.366 328.417C167.209 328.417 167.055 328.454 166.916 328.524L166.926 328.464ZM155.926 360.894L161.826 357.484C162.076 357.344 162.096 357.124 161.876 356.994L156.226 353.734C156.095 353.666 155.949 353.63 155.801 353.63C155.653 353.63 155.507 353.666 155.376 353.734L149.476 357.144C149.216 357.284 149.196 357.504 149.416 357.634L155.066 360.894C155.194 360.967 155.338 361.009 155.486 361.016C155.634 361.023 155.781 360.995 155.916 360.934L155.926 360.894ZM110.446 358.744L104.806 355.494C104.671 355.43 104.525 355.397 104.376 355.397C104.227 355.397 104.08 355.43 103.946 355.494L98.0458 358.904C97.7958 359.054 97.7758 359.274 98.0458 359.404L103.696 362.664C103.829 362.727 103.974 362.759 104.121 362.759C104.268 362.759 104.413 362.727 104.546 362.664L110.446 359.254C110.636 359.154 110.666 358.934 110.436 358.804L110.446 358.744ZM121.686 361.574L116.056 358.374C115.923 358.306 115.775 358.27 115.626 358.27C115.476 358.27 115.329 358.306 115.196 358.374L106.126 363.614C105.876 363.754 105.846 363.974 106.076 364.104L111.716 367.364C111.849 367.433 111.996 367.468 112.146 367.468C112.295 367.468 112.443 367.433 112.576 367.364L121.646 362.124C121.876 361.984 121.906 361.754 121.676 361.634L121.686 361.574ZM102.056 352.374L96.4058 349.114C96.2745 349.046 96.1287 349.01 95.9808 349.01C95.8328 349.01 95.687 349.046 95.5558 349.114L88.2958 353.304C88.0458 353.454 88.0158 353.674 88.2358 353.804L93.8858 357.054C94.0201 357.118 94.167 357.151 94.3158 357.151C94.4645 357.151 94.6114 357.118 94.7458 357.054L102.006 352.854C102.216 352.724 102.236 352.504 102.056 352.374ZM107.626 349.154C107.757 349.223 107.903 349.258 108.051 349.258C108.199 349.258 108.345 349.223 108.476 349.154L114.376 345.754C114.626 345.604 114.656 345.384 114.426 345.254L108.746 341.934C108.611 341.87 108.465 341.837 108.316 341.837C108.167 341.837 108.02 341.87 107.886 341.934L101.986 345.344C101.736 345.484 101.716 345.714 101.936 345.834L107.626 349.154ZM132.056 364.934L126.406 361.674C126.273 361.612 126.128 361.579 125.981 361.579C125.834 361.579 125.689 361.612 125.556 361.674L114.206 368.224C113.956 368.374 113.936 368.594 114.156 368.724L119.796 371.984C119.93 372.048 120.077 372.081 120.226 372.081C120.375 372.081 120.521 372.048 120.656 371.984L132.006 365.434C132.216 365.324 132.236 365.104 132.056 364.934ZM136.056 371.934L130.406 368.674C130.275 368.606 130.129 368.57 129.981 368.57C129.833 368.57 129.687 368.606 129.556 368.674L122.226 372.934C121.976 373.074 121.956 373.294 122.226 373.424L127.876 376.684C128.007 376.753 128.153 376.788 128.301 376.788C128.449 376.788 128.595 376.753 128.726 376.684L135.996 372.494C136.196 372.344 136.216 372.114 135.996 371.994L136.056 371.934ZM171.756 312.084C171.89 312.148 172.037 312.181 172.186 312.181C172.335 312.181 172.481 312.148 172.616 312.084L178.516 308.674C178.766 308.534 178.786 308.314 178.516 308.184L172.856 304.934C172.725 304.866 172.579 304.83 172.431 304.83C172.283 304.83 172.137 304.866 172.006 304.934L166.106 308.334C165.856 308.484 165.826 308.704 166.056 308.834L171.756 312.084ZM154.506 322.084C154.64 322.148 154.787 322.181 154.936 322.181C155.085 322.181 155.231 322.148 155.366 322.084L161.266 318.674C161.516 318.524 161.546 318.304 161.266 318.174L155.616 314.934C155.481 314.87 155.335 314.837 155.186 314.837C155.037 314.837 154.89 314.87 154.756 314.934L148.856 318.344C148.606 318.494 148.586 318.714 148.806 318.844L154.506 322.084ZM116.266 344.164C116.4 344.228 116.547 344.261 116.696 344.261C116.845 344.261 116.991 344.228 117.126 344.164L123.026 340.754C123.276 340.604 123.296 340.384 123.076 340.254L117.426 337.004C117.295 336.936 117.149 336.9 117.001 336.9C116.853 336.9 116.707 336.936 116.576 337.004L110.676 340.404C110.426 340.554 110.396 340.774 110.616 340.904L116.266 344.164ZM163.056 317.124C163.19 317.188 163.337 317.221 163.486 317.221C163.635 317.221 163.781 317.188 163.916 317.124L169.816 313.714C170.066 313.574 170.086 313.344 169.866 313.224L164.236 309.934C164.103 309.866 163.955 309.83 163.806 309.83C163.656 309.83 163.509 309.866 163.376 309.934L157.476 313.334C157.226 313.484 157.206 313.704 157.476 313.834L163.056 317.124ZM145.806 327.074C145.939 327.143 146.086 327.178 146.236 327.178C146.385 327.178 146.533 327.143 146.666 327.074L152.566 323.674C152.816 323.524 152.836 323.304 152.616 323.174L146.986 319.934C146.853 319.872 146.708 319.839 146.561 319.839C146.414 319.839 146.269 319.872 146.136 319.934L140.236 323.344C139.986 323.484 139.956 323.714 140.186 323.834L145.806 327.074ZM140.206 372.334C140.071 372.27 139.925 372.237 139.776 372.237C139.627 372.237 139.48 372.27 139.346 372.334L130.276 377.574C130.026 377.724 129.996 377.944 130.226 378.074L135.866 381.334C136 381.398 136.147 381.431 136.296 381.431C136.445 381.431 136.591 381.398 136.726 381.334L145.806 376.094C146.056 375.944 146.076 375.724 145.806 375.594L140.206 372.334ZM133.436 334.224C133.569 334.287 133.714 334.319 133.861 334.319C134.008 334.319 134.153 334.287 134.286 334.224L140.186 330.814C140.436 330.674 140.466 330.454 140.186 330.324L134.546 327.064C134.413 326.996 134.265 326.96 134.116 326.96C133.966 326.96 133.819 326.996 133.686 327.064L127.786 330.464C127.536 330.614 127.516 330.834 127.736 330.964L133.436 334.224ZM124.806 339.224C124.94 339.288 125.087 339.321 125.236 339.321C125.385 339.321 125.531 339.288 125.666 339.224L131.566 335.814C131.816 335.674 131.836 335.444 131.616 335.324L125.976 332.064C125.843 331.996 125.695 331.96 125.546 331.96C125.396 331.96 125.249 331.996 125.116 332.064L119.216 335.464C118.966 335.614 118.946 335.834 119.166 335.964L124.806 339.224ZM299.966 280.124C299.833 280.056 299.685 280.02 299.536 280.02C299.386 280.02 299.239 280.056 299.106 280.124L284.586 288.504C284.336 288.654 284.316 288.874 284.536 289.004L290.176 292.264C290.31 292.328 290.457 292.361 290.606 292.361C290.755 292.361 290.901 292.328 291.036 292.264L305.556 283.874C305.806 283.734 305.836 283.514 305.606 283.384L299.966 280.124ZM280.906 291.124C280.771 291.06 280.625 291.027 280.476 291.027C280.327 291.027 280.18 291.06 280.046 291.124L274.146 294.534C273.896 294.674 273.876 294.904 274.096 295.024L279.736 298.284C279.869 298.353 280.016 298.388 280.166 298.388C280.315 298.388 280.463 298.353 280.596 298.284L286.496 294.884C286.746 294.734 286.766 294.514 286.546 294.384L280.906 291.124ZM164.536 355.934L170.436 352.534C170.686 352.384 170.706 352.164 170.486 352.034L164.846 348.774C164.711 348.71 164.565 348.677 164.416 348.677C164.267 348.677 164.12 348.71 163.986 348.774L158.086 352.184C157.836 352.324 157.816 352.544 158.036 352.674L163.676 355.934C163.809 356.003 163.956 356.038 164.106 356.038C164.255 356.038 164.403 356.003 164.536 355.934ZM263.676 301.024C263.541 300.96 263.395 300.927 263.246 300.927C263.097 300.927 262.95 300.96 262.816 301.024L256.916 304.434C256.666 304.574 256.646 304.794 256.866 304.924L262.516 308.184C262.647 308.253 262.793 308.288 262.941 308.288C263.089 308.288 263.235 308.253 263.366 308.184L269.266 304.774C269.526 304.634 269.546 304.414 269.326 304.284L263.676 301.024ZM308.606 275.084C308.475 275.016 308.329 274.98 308.181 274.98C308.033 274.98 307.887 275.016 307.756 275.084L301.856 278.484C301.606 278.634 301.576 278.854 301.806 278.984L307.446 282.244C307.58 282.308 307.727 282.341 307.876 282.341C308.025 282.341 308.171 282.308 308.306 282.244L314.206 278.834C314.456 278.694 314.476 278.474 314.256 278.344L308.606 275.084ZM322.876 273.364L309.166 265.444C309.033 265.382 308.888 265.349 308.741 265.349C308.594 265.349 308.449 265.382 308.316 265.444L302.416 268.854C302.156 269.004 302.136 269.224 302.356 269.344L316.056 277.334C316.189 277.403 316.336 277.438 316.486 277.438C316.635 277.438 316.783 277.403 316.916 277.334L322.816 273.924C323.056 273.754 323.056 273.534 322.876 273.404V273.364ZM231.456 319.664C231.321 319.6 231.175 319.567 231.026 319.567C230.877 319.567 230.73 319.6 230.596 319.664L223.336 323.864C223.086 324.004 223.056 324.224 223.286 324.354L228.926 327.614C229.059 327.683 229.206 327.718 229.356 327.718C229.505 327.718 229.653 327.683 229.786 327.614L237.046 323.424C237.296 323.274 237.316 323.054 237.096 322.924L231.456 319.664ZM253.236 307.094C253.105 307.026 252.959 306.99 252.811 306.99C252.663 306.99 252.517 307.026 252.386 307.094L243.306 312.334C243.056 312.474 243.036 312.694 243.256 312.824L248.896 316.084C249.029 316.153 249.176 316.188 249.326 316.188C249.475 316.188 249.623 316.153 249.756 316.084L258.836 310.844C259.086 310.704 259.106 310.484 258.886 310.354L253.236 307.094ZM211.486 331.194C211.351 331.13 211.205 331.097 211.056 331.097C210.907 331.097 210.76 331.13 210.626 331.194L162.066 359.194C161.816 359.344 161.786 359.564 162.066 359.694L167.706 362.954C167.84 363.018 167.987 363.051 168.136 363.051C168.285 363.051 168.431 363.018 168.566 362.954L217.056 334.934C217.306 334.784 217.326 334.564 217.056 334.434L211.486 331.194ZM160.196 360.804C160.061 360.74 159.915 360.707 159.766 360.707C159.617 360.707 159.47 360.74 159.336 360.804L152.056 365.034C151.806 365.174 151.786 365.394 152.006 365.524L157.656 368.784C157.787 368.853 157.933 368.888 158.081 368.888C158.229 368.888 158.375 368.853 158.506 368.784L165.776 364.594C166.026 364.444 166.046 364.224 165.776 364.094L160.196 360.804ZM221.466 325.434C221.335 325.366 221.189 325.33 221.041 325.33C220.893 325.33 220.747 325.366 220.616 325.434L213.346 329.624C213.096 329.774 213.076 329.994 213.346 330.124L218.996 333.374C219.127 333.441 219.273 333.476 219.421 333.476C219.568 333.476 219.714 333.441 219.846 333.374L227.116 329.174C227.366 329.034 227.386 328.814 227.166 328.684L221.466 325.434ZM150.216 366.574C150.083 366.506 149.935 366.47 149.786 366.47C149.636 366.47 149.489 366.506 149.356 366.574L142.056 370.794C141.806 370.944 141.776 371.164 142.056 371.294L147.696 374.544C147.83 374.608 147.977 374.641 148.126 374.641C148.275 374.641 148.421 374.608 148.556 374.544L155.816 370.344C156.066 370.204 156.086 369.984 155.866 369.854L150.216 366.574ZM241.436 313.934C241.303 313.866 241.155 313.83 241.006 313.83C240.856 313.83 240.709 313.866 240.576 313.934L233.316 318.124C233.066 318.274 233.046 318.494 233.266 318.624L238.916 321.884C239.049 321.947 239.194 321.979 239.341 321.979C239.488 321.979 239.633 321.947 239.766 321.884L247.036 317.684C247.286 317.544 247.306 317.324 247.036 317.194L241.436 313.934ZM272.296 296.114C272.163 296.052 272.018 296.019 271.871 296.019C271.724 296.019 271.579 296.052 271.446 296.114L265.546 299.524C265.296 299.664 265.266 299.884 265.496 300.014L271.136 303.274C271.269 303.343 271.416 303.378 271.566 303.378C271.715 303.378 271.863 303.343 271.996 303.274L277.896 299.874C278.146 299.724 278.166 299.504 277.946 299.374L272.296 296.114ZM291.616 282.634L297.516 279.234C297.766 279.084 297.786 278.864 297.566 278.734L291.926 275.474C291.791 275.41 291.645 275.377 291.496 275.377C291.347 275.377 291.2 275.41 291.066 275.474L285.166 278.884C284.916 279.024 284.896 279.244 285.116 279.374L290.756 282.634C290.891 282.698 291.04 282.729 291.189 282.723C291.339 282.718 291.485 282.677 291.616 282.604V282.634ZM256.426 284.334L262.326 280.924C262.576 280.784 262.596 280.554 262.376 280.424L256.736 277.174C256.603 277.106 256.455 277.07 256.306 277.07C256.156 277.07 256.009 277.106 255.876 277.174L249.976 280.574C249.726 280.724 249.706 280.944 249.926 281.074L255.566 284.334C255.702 284.394 255.85 284.422 255.999 284.416C256.148 284.411 256.294 284.373 256.426 284.304V284.334ZM233.526 316.174L250.766 306.224C251.016 306.074 251.046 305.854 250.816 305.724L245.176 302.464C245.041 302.4 244.895 302.367 244.746 302.367C244.597 302.367 244.45 302.4 244.316 302.464L227.066 312.464C226.816 312.604 226.796 312.824 227.066 312.954L232.716 316.214C232.847 316.264 232.989 316.283 233.129 316.271C233.269 316.259 233.405 316.216 233.526 316.144V316.174ZM282.136 287.644C282.269 287.713 282.416 287.748 282.566 287.748C282.715 287.748 282.863 287.713 282.996 287.644L288.896 284.234C289.146 284.094 289.166 283.874 288.946 283.744L283.296 280.484C283.163 280.422 283.018 280.389 282.871 280.389C282.724 280.389 282.579 280.422 282.446 280.484L276.546 283.894C276.286 284.034 276.266 284.254 276.486 284.384L282.136 287.644ZM274.926 282.934L280.826 279.524C281.076 279.374 281.106 279.154 280.876 279.024L275.236 275.774C275.101 275.71 274.955 275.677 274.806 275.677C274.657 275.677 274.51 275.71 274.376 275.774L268.476 279.184C268.226 279.334 268.206 279.554 268.426 279.684L274.056 282.934C274.19 283.004 274.339 283.041 274.491 283.041C274.642 283.041 274.791 283.004 274.926 282.934ZM224.926 321.124L230.826 317.714C231.076 317.574 231.106 317.354 230.826 317.224L225.206 313.934C225.071 313.87 224.925 313.837 224.776 313.837C224.627 313.837 224.48 313.87 224.346 313.934L218.446 317.344C218.196 317.484 218.176 317.704 218.446 317.834L224.096 321.094C224.218 321.159 224.354 321.196 224.492 321.201C224.631 321.206 224.769 321.18 224.896 321.124H224.926ZM263.056 298.624C263.189 298.687 263.334 298.719 263.481 298.719C263.628 298.719 263.773 298.687 263.906 298.624L269.806 295.214C270.066 295.074 270.086 294.844 269.866 294.724L264.216 291.464C264.083 291.396 263.935 291.36 263.786 291.36C263.636 291.36 263.489 291.396 263.356 291.464L257.456 294.864C257.206 295.014 257.186 295.234 257.406 295.364L263.056 298.624ZM181.766 346.014L187.666 342.614C187.916 342.464 187.936 342.244 187.716 342.114L182.056 338.854C181.923 338.792 181.778 338.759 181.631 338.759C181.484 338.759 181.339 338.792 181.206 338.854L175.306 342.264C175.046 342.414 175.026 342.634 175.246 342.754L180.896 346.014C181.033 346.088 181.185 346.126 181.341 346.126C181.496 346.126 181.649 346.088 181.786 346.014H181.766ZM190.386 341.014L196.286 337.604C196.536 337.454 196.556 337.234 196.336 337.104L190.716 333.934C190.583 333.866 190.435 333.83 190.286 333.83C190.136 333.83 189.989 333.866 189.856 333.934L183.956 337.334C183.706 337.484 183.686 337.704 183.906 337.834L189.546 341.094C189.684 341.151 189.833 341.175 189.981 341.167C190.13 341.158 190.275 341.116 190.406 341.044L190.386 341.014ZM173.136 350.964L179.036 347.564C179.286 347.414 179.316 347.194 179.086 347.064L173.446 343.804C173.311 343.74 173.165 343.707 173.016 343.707C172.867 343.707 172.72 343.74 172.586 343.804L166.686 347.214C166.436 347.354 166.416 347.584 166.636 347.704L172.286 350.964C172.417 351.041 172.565 351.083 172.717 351.089C172.869 351.094 173.02 351.061 173.156 350.994L173.136 350.964ZM207.636 331.054L213.536 327.644C213.786 327.504 213.806 327.284 213.586 327.154L207.956 323.934C207.823 323.866 207.675 323.83 207.526 323.83C207.376 323.83 207.229 323.866 207.096 323.934L201.196 327.334C200.946 327.484 200.926 327.704 201.196 327.834L206.846 331.094C206.974 331.149 207.112 331.177 207.252 331.175C207.391 331.173 207.529 331.142 207.656 331.084L207.636 331.054ZM199.006 336.054L204.906 332.644C205.156 332.504 205.186 332.274 204.906 332.154L199.336 328.934C199.203 328.866 199.055 328.83 198.906 328.83C198.756 328.83 198.609 328.866 198.476 328.934L192.576 332.334C192.326 332.484 192.306 332.704 192.526 332.834L198.176 336.094C198.315 336.157 198.467 336.187 198.619 336.181C198.772 336.176 198.921 336.136 199.056 336.064L199.006 336.054ZM216.256 326.054L222.156 322.644C222.406 322.504 222.426 322.284 222.156 322.154L216.586 318.934C216.453 318.866 216.305 318.83 216.156 318.83C216.006 318.83 215.859 318.866 215.726 318.934L209.826 322.344C209.576 322.484 209.546 322.704 209.776 322.834L215.416 326.094C215.549 326.16 215.696 326.195 215.845 326.196C215.993 326.198 216.141 326.167 216.276 326.104L216.256 326.054ZM263.316 256.794C263.447 256.863 263.593 256.898 263.741 256.898C263.889 256.898 264.035 256.863 264.166 256.794L270.066 253.384C270.316 253.244 270.346 253.024 270.116 252.894L268.616 252.024C268.481 251.96 268.335 251.927 268.186 251.927C268.037 251.927 267.89 251.96 267.756 252.024L261.856 255.434C261.606 255.574 261.586 255.794 261.806 255.924L263.316 256.794ZM220.456 283.934C220.589 283.997 220.734 284.029 220.881 284.029C221.028 284.029 221.173 283.997 221.306 283.934L227.206 280.524C227.456 280.384 227.486 280.154 227.256 280.034L221.616 276.774C221.483 276.706 221.335 276.67 221.186 276.67C221.036 276.67 220.889 276.706 220.756 276.774L214.856 280.174C214.606 280.324 214.586 280.544 214.856 280.674L220.456 283.934ZM237.696 273.934C237.83 273.998 237.977 274.031 238.126 274.031C238.275 274.031 238.421 273.998 238.556 273.934L244.456 270.524C244.706 270.384 244.726 270.164 244.506 270.034L238.866 266.774C238.733 266.706 238.585 266.67 238.436 266.67C238.286 266.67 238.139 266.706 238.006 266.774L232.106 270.184C231.856 270.324 231.836 270.544 232.056 270.674L237.696 273.934ZM209.926 289.934C210.059 289.997 210.204 290.029 210.351 290.029C210.498 290.029 210.643 289.997 210.776 289.934L216.676 286.524C216.926 286.384 216.956 286.154 216.726 286.034L211.086 282.774C210.953 282.706 210.805 282.67 210.656 282.67C210.506 282.67 210.359 282.706 210.226 282.774L204.326 286.174C204.076 286.324 204.056 286.544 204.326 286.674L209.926 289.934ZM229.056 279.004C229.19 279.068 229.337 279.101 229.486 279.101C229.635 279.101 229.781 279.068 229.916 279.004L235.816 275.594C236.066 275.454 236.086 275.234 235.866 275.104L230.216 271.844C230.085 271.776 229.939 271.74 229.791 271.74C229.643 271.74 229.497 271.776 229.366 271.844L223.466 275.244C223.206 275.394 223.186 275.614 223.406 275.744L229.056 279.004ZM192.656 300.004C192.789 300.073 192.936 300.108 193.086 300.108C193.235 300.108 193.383 300.073 193.516 300.004L199.416 296.604C199.666 296.454 199.686 296.234 199.416 296.104L193.766 292.844C193.633 292.782 193.488 292.749 193.341 292.749C193.194 292.749 193.049 292.782 192.916 292.844L187.016 296.254C186.756 296.404 186.736 296.624 186.966 296.744L192.656 300.004ZM201.276 295.004C201.41 295.068 201.557 295.101 201.706 295.101C201.855 295.101 202.001 295.068 202.136 295.004L208.036 291.594C208.286 291.444 208.306 291.224 208.036 291.094L202.396 287.844C202.261 287.78 202.115 287.747 201.966 287.747C201.817 287.747 201.67 287.78 201.536 287.844L195.636 291.254C195.386 291.404 195.366 291.624 195.636 291.754L201.276 295.004ZM246.056 266.804C246.19 266.868 246.337 266.901 246.486 266.901C246.635 266.901 246.781 266.868 246.916 266.804L252.816 263.394C253.066 263.254 253.086 263.034 252.816 262.904L251.316 262.034C251.183 261.966 251.035 261.93 250.886 261.93C250.736 261.93 250.589 261.966 250.456 262.034L244.556 265.444C244.306 265.584 244.276 265.804 244.506 265.934L246.056 266.804ZM271.926 251.864C272.059 251.933 272.206 251.968 272.356 251.968C272.505 251.968 272.653 251.933 272.786 251.864L278.686 248.464C278.936 248.314 278.956 248.094 278.686 247.964L277.186 247.094C277.051 247.03 276.905 246.997 276.756 246.997C276.607 246.997 276.46 247.03 276.326 247.094L270.426 250.504C270.176 250.644 270.146 250.874 270.376 250.994L271.926 251.864ZM283.786 258.714C283.919 258.777 284.064 258.809 284.211 258.809C284.358 258.809 284.503 258.777 284.636 258.714L290.536 255.304C290.796 255.164 290.816 254.944 290.596 254.814L284.946 251.554C284.813 251.486 284.665 251.45 284.516 251.45C284.366 251.45 284.219 251.486 284.086 251.554L278.186 254.954C277.936 255.104 277.916 255.324 278.136 255.454L283.786 258.714ZM300.206 277.624L306.106 274.224C306.356 274.074 306.386 273.854 306.156 273.724L300.516 270.464C300.381 270.4 300.235 270.367 300.086 270.367C299.937 270.367 299.79 270.4 299.656 270.464L293.756 273.874C293.506 274.014 293.486 274.244 293.706 274.364L299.356 277.624C299.491 277.698 299.642 277.736 299.796 277.736C299.949 277.736 300.101 277.698 300.236 277.624H300.206ZM254.676 261.824C254.81 261.888 254.957 261.921 255.106 261.921C255.255 261.921 255.401 261.888 255.536 261.824L261.436 258.414C261.686 258.274 261.706 258.054 261.436 257.924L259.936 257.054C259.803 256.986 259.655 256.95 259.506 256.95C259.356 256.95 259.209 256.986 259.076 257.054L253.176 260.464C252.926 260.604 252.906 260.824 253.126 260.954L254.676 261.824ZM184.056 304.994C184.187 305.063 184.333 305.098 184.481 305.098C184.629 305.098 184.775 305.063 184.906 304.994L190.806 301.594C191.056 301.444 191.086 301.224 190.806 301.094L185.166 297.834C185.031 297.77 184.885 297.737 184.736 297.737C184.587 297.737 184.44 297.77 184.306 297.834L178.406 301.244C178.156 301.384 178.136 301.604 178.406 301.734L184.056 304.994Z" fill="#263238"/>
<path opacity="0.4" d="M209.596 349.474L210.806 350.164L242.936 368.714L300.076 335.724L301.266 335.044L267.926 315.804L209.596 349.474Z" fill="black"/>
<path d="M210.806 350.164L242.936 368.714L300.076 335.724L267.926 317.174L210.806 350.164Z" fill="url(#paint10_linear_766_5009)"/>
<path opacity="0.45" d="M210.806 350.164L242.936 368.714L300.076 335.724L267.926 317.174L210.806 350.164Z" fill="black"/>
<path d="M44.8164 343.454C45.3301 343.751 45.8773 343.986 46.4464 344.154C45.878 343.992 45.3309 343.764 44.8164 343.474C44.6438 343.373 44.4768 343.263 44.3164 343.144C44.4771 343.256 44.644 343.36 44.8164 343.454Z" fill="url(#paint11_linear_766_5009)"/>
<path d="M54.0557 343.934C54.0557 343.934 54.0557 343.934 54.1457 343.854L54.0757 343.914L54.0557 343.934Z" fill="url(#paint12_linear_766_5009)"/>
<path d="M381.197 296.163L369.947 290.163C369.947 290.163 369.087 272.963 370.427 259.333C372.317 240.173 386.557 217.933 401.307 223.333C416.057 228.733 394.547 248.253 389.757 264.493C384.967 280.733 381.197 296.163 381.197 296.163Z" fill="url(#paint13_linear_766_5009)"/>
<path opacity="0.1" d="M381.197 296.163L369.947 290.163C369.947 290.163 369.087 272.963 370.427 259.333C372.317 240.173 386.557 217.933 401.307 223.333C416.057 228.733 394.547 248.253 389.757 264.493C384.967 280.733 381.197 296.163 381.197 296.163Z" fill="black"/>
<path d="M375.697 294.163C375.828 294.158 375.951 294.101 376.041 294.006C376.131 293.911 376.18 293.784 376.177 293.653C374.727 251.093 395.917 229.653 396.127 229.473C396.173 229.427 396.21 229.373 396.236 229.313C396.261 229.253 396.274 229.188 396.274 229.123C396.274 229.058 396.261 228.993 396.236 228.933C396.21 228.873 396.173 228.819 396.127 228.773C396.08 228.726 396.025 228.689 395.964 228.663C395.903 228.638 395.838 228.625 395.772 228.625C395.706 228.625 395.64 228.638 395.58 228.663C395.519 228.689 395.463 228.726 395.417 228.773C395.207 228.993 373.707 250.703 375.167 293.693C375.171 293.759 375.187 293.823 375.216 293.882C375.245 293.941 375.285 293.994 375.334 294.038C375.383 294.082 375.441 294.115 375.503 294.137C375.565 294.158 375.631 294.167 375.697 294.163Z" fill="white"/>
<path d="M386.967 299.563L381.117 296.183C380.216 286.567 381.459 276.871 384.757 267.793C390.177 253.083 404.177 245.063 410.617 247.253C418.487 249.933 418.537 257.463 415.677 262.413C412.297 268.253 391.217 283.023 386.967 299.563Z" fill="url(#paint14_linear_766_5009)"/>
<path d="M383.887 298.274C384.019 298.274 384.146 298.221 384.24 298.127C384.334 298.033 384.387 297.906 384.387 297.774C384.267 270.864 409.537 252.684 409.787 252.504C409.888 252.425 409.955 252.311 409.975 252.184C409.994 252.057 409.964 251.928 409.891 251.823C409.818 251.718 409.707 251.645 409.582 251.619C409.456 251.593 409.325 251.616 409.217 251.684C408.957 251.874 383.217 270.364 383.387 297.784C383.387 297.849 383.4 297.913 383.425 297.973C383.45 298.034 383.487 298.088 383.534 298.134C383.58 298.179 383.635 298.215 383.696 298.239C383.757 298.263 383.821 298.275 383.887 298.274Z" fill="white"/>
<path d="M44.0571 307.833V284.393C44.0571 284.393 42.8571 271.163 33.5971 261.133C24.3371 251.103 16.0571 254.513 13.3471 259.273C10.6371 264.033 16.7871 273.073 20.7171 278.163C25.4471 284.283 44.0571 312.713 44.0571 325.443V307.833Z" fill="url(#paint15_linear_766_5009)"/>
<g opacity="0.2">
<path d="M44.0571 307.833V284.393C44.0571 284.393 42.8571 271.163 33.5971 261.133C24.3371 251.103 16.0571 254.513 13.3471 259.273C10.6371 264.033 16.7871 273.073 20.7171 278.163C25.4471 284.283 44.0571 312.713 44.0571 325.443V307.833Z" fill="black"/>
</g>
<path d="M44.0567 304.133C43.919 304.132 43.786 304.083 43.6816 303.993C43.5772 303.903 43.5081 303.779 43.4867 303.643C39.2667 278.083 19.8067 260.543 19.6167 260.373C19.5027 260.272 19.4333 260.13 19.4239 259.978C19.4146 259.826 19.4659 259.677 19.5667 259.563C19.6675 259.449 19.8094 259.38 19.9613 259.37C20.1132 259.361 20.2627 259.412 20.3767 259.513C20.5767 259.693 40.3767 277.513 44.6267 303.463C44.6498 303.614 44.6123 303.768 44.5224 303.892C44.4325 304.015 44.2975 304.098 44.1467 304.123L44.0567 304.133Z" fill="white"/>
<path d="M44.1769 310.933C44.1769 310.933 44.9469 308.603 41.5269 308.013C38.1069 307.423 36.7869 304.583 36.4669 299.803C36.1469 295.023 34.7069 291.603 30.4069 290.903C26.1069 290.203 22.6669 292.353 19.8769 290.203C17.0869 288.053 9.87687 282.863 3.87687 285.203C-2.12313 287.543 -0.123133 292.703 2.95687 296.023C6.03687 299.343 6.95687 300.473 4.59687 305.873C2.23687 311.273 3.94687 316.333 9.46687 317.593C14.9869 318.853 18.0869 318.213 18.1669 324.273C18.2469 330.333 19.0869 333.033 22.1669 335.413C25.2469 337.793 34.7169 336.713 38.6769 337.633C39.8659 337.936 40.9763 338.49 41.9335 339.257C42.8908 340.025 43.6728 340.988 44.2269 342.083L44.1769 310.933Z" fill="url(#paint16_linear_766_5009)"/>
<path d="M44.1768 335.873C44.078 335.873 43.9817 335.842 43.9012 335.785C43.8206 335.727 43.7597 335.646 43.7268 335.553C33.6768 305.693 10.9168 293.633 10.7268 293.553C10.6154 293.495 10.5317 293.395 10.4942 293.275C10.4567 293.155 10.4684 293.025 10.5268 292.913C10.5851 292.802 10.6853 292.718 10.8054 292.681C10.9254 292.643 11.0554 292.655 11.1668 292.713C11.3968 292.833 34.4868 305.053 44.6668 335.283C44.6871 335.342 44.6954 335.405 44.6913 335.467C44.6871 335.53 44.6706 335.59 44.6427 335.646C44.6148 335.702 44.576 335.752 44.5286 335.793C44.4812 335.833 44.4262 335.864 44.3668 335.883L44.1768 335.873Z" fill="white"/>
<path d="M29.7571 309.843H29.6471C23.0871 308.343 12.5771 309.153 12.4771 309.163C12.3513 309.174 12.2262 309.135 12.1288 309.054C12.0315 308.974 11.9698 308.858 11.9571 308.733C11.9487 308.606 11.9899 308.481 12.072 308.384C12.1541 308.287 12.2707 308.225 12.3971 308.213C12.8371 308.213 23.1571 307.383 29.8571 308.923C29.9712 308.947 30.0724 309.012 30.1409 309.106C30.2095 309.201 30.2405 309.317 30.2281 309.433C30.2156 309.549 30.1605 309.656 30.0735 309.733C29.9865 309.811 29.8737 309.854 29.7571 309.853V309.843Z" fill="white"/>
<path d="M35.1068 324.193C32.1068 324.193 28.9268 324.003 28.7268 323.993C28.6004 323.983 28.4829 323.924 28.3989 323.829C28.315 323.734 28.2713 323.61 28.2768 323.483C28.2806 323.421 28.2969 323.359 28.3247 323.303C28.3526 323.247 28.3914 323.197 28.439 323.156C28.4865 323.115 28.5418 323.084 28.6015 323.064C28.6613 323.045 28.7243 323.038 28.7868 323.043C28.8568 323.043 36.1868 323.493 39.0468 323.043C39.1123 323.024 39.1812 323.019 39.2488 323.028C39.3165 323.037 39.3814 323.061 39.4392 323.097C39.4969 323.134 39.5463 323.182 39.5839 323.239C39.6215 323.296 39.6466 323.36 39.6573 323.428C39.6681 323.495 39.6643 323.564 39.6463 323.63C39.6283 323.696 39.5964 323.757 39.5528 323.81C39.5093 323.862 39.455 323.905 39.3936 323.935C39.3322 323.965 39.2651 323.981 39.1968 323.983C37.84 324.148 36.4734 324.218 35.1068 324.193Z" fill="white"/>
<path d="M26.6767 306.343C26.5521 306.332 26.436 306.275 26.3523 306.182C26.2687 306.089 26.2237 305.968 26.2267 305.843C26.4552 302.427 27.1656 299.06 28.3367 295.843C28.3835 295.725 28.4749 295.631 28.5911 295.58C28.7072 295.529 28.8386 295.527 28.9567 295.573C29.072 295.62 29.1646 295.709 29.215 295.823C29.2654 295.937 29.2696 296.066 29.2267 296.183C28.1126 299.311 27.4394 302.579 27.2267 305.893C27.2248 305.96 27.2085 306.026 27.1788 306.087C27.1491 306.147 27.1067 306.201 27.0545 306.243C27.0023 306.286 26.9416 306.317 26.8764 306.334C26.8112 306.351 26.7431 306.354 26.6767 306.343Z" fill="white"/>
<defs>
<linearGradient id="paint0_linear_766_5009" x1="391.23" y1="92.1336" x2="440.166" y2="92.1367" gradientUnits="userSpaceOnUse">
<stop stop-color="#00A1FF"/>
<stop offset="1" stop-color="#00FF8F" stop-opacity="0.13"/>
</linearGradient>
<linearGradient id="paint1_linear_766_5009" x1="398.878" y1="95.3757" x2="433.323" y2="95.3774" gradientUnits="userSpaceOnUse">
<stop stop-color="#00A1FF"/>
<stop offset="1" stop-color="#00FF8F" stop-opacity="0.13"/>
</linearGradient>
<linearGradient id="paint2_linear_766_5009" x1="371.981" y1="79.4526" x2="439.922" y2="79.4623" gradientUnits="userSpaceOnUse">
<stop stop-color="#00A1FF"/>
<stop offset="1" stop-color="#00FF8F" stop-opacity="0.13"/>
</linearGradient>
<linearGradient id="paint3_linear_766_5009" x1="346.301" y1="81.5206" x2="414.96" y2="81.5286" gradientUnits="userSpaceOnUse">
<stop stop-color="#00A1FF"/>
<stop offset="1" stop-color="#00FF8F" stop-opacity="0.13"/>
</linearGradient>
<linearGradient id="paint4_linear_766_5009" x1="322.308" y1="100.756" x2="387.865" y2="100.762" gradientUnits="userSpaceOnUse">
<stop stop-color="#00A1FF"/>
<stop offset="1" stop-color="#00FF8F" stop-opacity="0.13"/>
</linearGradient>
<linearGradient id="paint5_linear_766_5009" x1="312.577" y1="134.864" x2="363.622" y2="134.867" gradientUnits="userSpaceOnUse">
<stop stop-color="#00A1FF"/>
<stop offset="1" stop-color="#00FF8F" stop-opacity="0.13"/>
</linearGradient>
<linearGradient id="paint6_linear_766_5009" x1="11.3611" y1="263.433" x2="727.308" y2="263.559" gradientUnits="userSpaceOnUse">
<stop stop-color="#00A1FF"/>
<stop offset="1" stop-color="#00FF8F" stop-opacity="0.13"/>
</linearGradient>
<linearGradient id="paint7_linear_766_5009" x1="17.1884" y1="104.909" x2="483.671" y2="104.946" gradientUnits="userSpaceOnUse">
<stop stop-color="#00A1FF"/>
<stop offset="1" stop-color="#00FF8F" stop-opacity="0.13"/>
</linearGradient>
<linearGradient id="paint8_linear_766_5009" x1="80.6082" y1="162.246" x2="341.046" y2="162.29" gradientUnits="userSpaceOnUse">
<stop stop-color="#00A1FF"/>
<stop offset="1" stop-color="#00FF8F" stop-opacity="0.13"/>
</linearGradient>
<linearGradient id="paint9_linear_766_5009" x1="80.6082" y1="162.246" x2="341.046" y2="162.29" gradientUnits="userSpaceOnUse">
<stop stop-color="#00A1FF"/>
<stop offset="1" stop-color="#00FF8F" stop-opacity="0.13"/>
</linearGradient>
<linearGradient id="paint10_linear_766_5009" x1="200.7" y1="326.939" x2="388.999" y2="326.974" gradientUnits="userSpaceOnUse">
<stop stop-color="#00A1FF"/>
<stop offset="1" stop-color="#00FF8F" stop-opacity="0.13"/>
</linearGradient>
<linearGradient id="paint11_linear_766_5009" x1="44.0753" y1="343.335" x2="48.5681" y2="343.336" gradientUnits="userSpaceOnUse">
<stop stop-color="#00A1FF"/>
<stop offset="1" stop-color="#00FF8F" stop-opacity="0.13"/>
</linearGradient>
<linearGradient id="paint12_linear_766_5009" x1="54.0455" y1="343.869" x2="54.2353" y2="343.869" gradientUnits="userSpaceOnUse">
<stop stop-color="#00A1FF"/>
<stop offset="1" stop-color="#00FF8F" stop-opacity="0.13"/>
</linearGradient>
<linearGradient id="paint13_linear_766_5009" x1="365.517" y1="236.466" x2="442.979" y2="236.47" gradientUnits="userSpaceOnUse">
<stop stop-color="#00A1FF"/>
<stop offset="1" stop-color="#00FF8F" stop-opacity="0.13"/>
</linearGradient>
<linearGradient id="paint14_linear_766_5009" x1="376.691" y1="256.875" x2="453.841" y2="256.881" gradientUnits="userSpaceOnUse">
<stop stop-color="#00A1FF"/>
<stop offset="1" stop-color="#00FF8F" stop-opacity="0.13"/>
</linearGradient>
<linearGradient id="paint15_linear_766_5009" x1="9.12644" y1="268.057" x2="75.3135" y2="268.06" gradientUnits="userSpaceOnUse">
<stop stop-color="#00A1FF"/>
<stop offset="1" stop-color="#00FF8F" stop-opacity="0.13"/>
</linearGradient>
<linearGradient id="paint16_linear_766_5009" x1="-5.00956" y1="295.499" x2="88.3301" y2="295.507" gradientUnits="userSpaceOnUse">
<stop stop-color="#00A1FF"/>
<stop offset="1" stop-color="#00FF8F" stop-opacity="0.13"/>
</linearGradient>
</defs>
</svg>
