<svg width="126" height="118" viewBox="0 0 126 118" fill="none" xmlns="http://www.w3.org/2000/svg">
<path d="M117.544 8.8177C117.499 8.61387 117.393 8.42626 117.239 8.27686C117.084 8.12746 116.887 8.02247 116.671 7.97419C102.257 4.67387 68.9531 16.4347 50.9095 33.3258C47.6913 36.3153 44.7575 39.5618 42.1412 43.0285C36.5771 42.5675 31.0129 42.9524 26.2706 44.8884C12.8905 50.4035 8.99486 64.794 7.90959 70.9843C7.84803 71.3232 7.87125 71.6708 7.97742 71.9997C8.08359 72.3288 8.26982 72.6302 8.52146 72.8804C8.7731 73.1306 9.08328 73.3226 9.42762 73.4415C9.77195 73.5604 10.1411 73.6029 10.5059 73.5656L31.9923 71.3462C32.0077 72.8633 32.1054 74.3786 32.2852 75.8864C32.3933 76.9335 32.8896 77.912 33.6879 78.652L42.0083 86.4258C42.7993 87.1724 43.8438 87.637 44.9615 87.7394C46.5625 87.9072 48.1715 87.9987 49.7824 88.0137L47.4249 108.111C47.3855 108.452 47.4312 108.798 47.5584 109.12C47.6855 109.442 47.8906 109.732 48.1577 109.968C48.4247 110.203 48.7463 110.378 49.0974 110.477C49.4485 110.577 49.8194 110.599 50.1811 110.542C56.7789 109.551 72.1721 105.903 78.0266 93.3721C80.0938 88.931 80.5171 83.7454 80.0397 78.5599C83.7503 76.1096 87.226 73.3612 90.4273 70.346C108.527 53.4802 121.014 22.9869 117.544 8.8177ZM72.3689 50.226C70.7161 48.6792 69.5903 46.7081 69.1339 44.5619C68.6775 42.4158 68.911 40.1912 69.8048 38.1693C70.6987 36.1475 72.2127 34.4193 74.1554 33.2035C76.0981 31.9876 78.3823 31.3386 80.7189 31.3386C83.0555 31.3386 85.3396 31.9876 87.2824 33.2035C89.2251 34.4193 90.7391 36.1475 91.633 38.1693C92.5268 40.1912 92.7603 42.4158 92.3038 44.5619C91.8474 46.7081 90.7216 48.6792 89.0688 50.226C87.9729 51.2539 86.6713 52.0693 85.2385 52.6256C83.8058 53.182 82.2699 53.4684 80.7189 53.4684C79.1678 53.4684 77.632 53.182 76.1992 52.6256C74.7665 52.0693 73.4649 51.2539 72.3689 50.226Z" fill="url(#paint0_linear_133_64)"/>
<path d="M41.4422 92.0561C40.0936 93.3214 37.9304 93.8146 35.3268 94.2364C29.4771 95.1698 24.3116 90.4359 25.3624 84.8978C25.7636 82.7982 26.9497 79.8551 27.688 79.1637C27.8494 79.0155 27.9568 78.8235 27.995 78.6148C28.0332 78.4062 28.0002 78.1916 27.9008 78.0015C27.8013 77.8115 27.6405 77.6555 27.441 77.556C27.2416 77.4564 27.0137 77.4181 26.7898 77.4467C23.5186 77.8216 20.4753 79.2105 18.1445 81.3924C12.3588 86.8153 11.8125 106.938 11.8125 106.938C11.8125 106.938 33.3112 106.426 39.0969 101.003C41.434 98.8219 42.9189 95.9675 43.3125 92.8997C43.4036 91.9363 42.1509 91.3624 41.4422 92.0561Z" fill="url(#paint1_linear_133_64)"/>
<defs>
<linearGradient id="paint0_linear_133_64" x1="7.87598" y1="59.9004" x2="118.124" y2="59.9004" gradientUnits="userSpaceOnUse">
<stop stop-color="#01E5C2"/>
<stop offset="1" stop-color="#00AD86"/>
</linearGradient>
<linearGradient id="paint1_linear_133_64" x1="11.8125" y1="92.4463" x2="43.3172" y2="92.4463" gradientUnits="userSpaceOnUse">
<stop stop-color="#01E5C2"/>
<stop offset="1" stop-color="#00AD86"/>
</linearGradient>
</defs>
</svg>
