<svg width="18" height="15" viewBox="0 0 18 15" fill="none" xmlns="http://www.w3.org/2000/svg">
<path fill-rule="evenodd" clip-rule="evenodd" d="M0.418162 2.34743C0.184609 2.52951 0.136565 2.86355 0.309337 3.10407V3.10407C0.491976 3.35833 0.849394 3.40974 1.09629 3.21727L2.9438 1.77697C3.38841 1.42476 4.27768 1.1206 4.82962 1.1206H6.17054C6.47998 1.1206 6.73083 0.869743 6.73083 0.560298V0.560298C6.73083 0.250854 6.47998 0 6.17054 0L4.82962 0C4.04768 0 2.92846 0.384203 2.29983 0.880452L0.418162 2.34743ZM5.93351 14.4397C5.93351 14.7491 5.68265 15 5.37321 15H5.16691C4.47695 15 3.69501 14.3277 3.28103 13.6713L1.86903 11.3794C1.71568 11.1305 1.7862 10.8049 2.02879 10.6418V10.6418C2.28546 10.4692 2.63416 10.5447 2.7964 10.8081L4.18564 13.063C4.50763 13.5752 4.99826 13.8794 5.16691 13.8794H5.37321C5.68265 13.8794 5.93351 14.1303 5.93351 14.4397V14.4397ZM11.6678 14.4397C11.6678 14.7491 11.9187 15 12.2281 15H12.4345C13.1244 15 13.9064 14.3277 14.3203 13.6713L15.7323 11.3794C15.8857 11.1305 15.8152 10.8049 15.5726 10.6418V10.6418C15.3159 10.4692 14.9672 10.5447 14.8049 10.8081L13.4157 13.063C13.0937 13.5752 12.6031 13.8794 12.4345 13.8794H12.2281C11.9187 13.8794 11.6678 14.1303 11.6678 14.4397V14.4397ZM16.9037 3.21726C17.1506 3.40974 17.508 3.35833 17.6907 3.10407V3.10407C17.8634 2.86355 17.8154 2.52952 17.5818 2.34744L15.7002 0.880452C15.0716 0.384203 13.9523 0 13.1703 0L11.8295 0C11.52 0 11.2692 0.250854 11.2692 0.560298V0.560298C11.2692 0.869743 11.52 1.1206 11.8295 1.1206H13.1703C13.7223 1.1206 14.6116 1.42476 15.0562 1.77697L16.9037 3.21726ZM15.5889 4.29029C14.4343 3.08477 13.2491 3.00524 13.0632 3.00029C13.0459 2.99983 13.0294 3 13.0121 3H9.00005H4.98791C4.97059 3 4.95409 2.99983 4.93678 3.00029C4.75094 3.00524 3.5658 3.08478 2.4112 4.29029V4.29029C1.99253 4.72744 1.90994 5.38735 2.20797 5.91419L5.08661 11.0028C5.09933 11.0253 5.11144 11.0475 5.12457 11.0697C5.23605 11.2585 5.84025 12.1892 6.91486 12.1892H9.00005H11.0852C12.1748 12.1892 12.7942 11.2075 12.8832 11.0561C12.8911 11.0427 12.8982 11.0298 12.9059 11.0163L15.7922 5.9142C16.0902 5.38736 16.0076 4.72743 15.5889 4.29029V4.29029ZM9.00001 10C7.67947 10 6.60562 8.87879 6.60562 7.5C6.60562 6.12121 7.67947 4.99998 9.00001 4.99998C10.3205 4.99998 11.3944 6.12121 11.3944 7.5C11.3944 8.89394 10.3205 10 9.00001 10Z" fill="url(#paint0_linear_1026_3611)"/>
<path d="M9.00014 7.06341C9.18319 7.06341 9.35875 7.14525 9.48819 7.29091C9.61763 7.43657 9.69035 7.63414 9.69035 7.84013C9.69035 8.04613 9.61763 8.2437 9.48819 8.38936C9.35875 8.53502 9.18319 8.61685 9.00014 8.61685C8.81708 8.61685 8.64153 8.53502 8.51209 8.38936C8.38265 8.2437 8.30993 8.04613 8.30993 7.84013C8.30993 7.63414 8.38265 7.43657 8.51209 7.29091C8.64153 7.14525 8.81708 7.06341 9.00014 7.06341ZM9.00014 7.35468C8.88573 7.35468 8.77601 7.40583 8.69511 7.49687C8.61421 7.58791 8.56876 7.71139 8.56876 7.84013C8.56876 7.96888 8.61421 8.09236 8.69511 8.1834C8.77601 8.27444 8.88573 8.32558 9.00014 8.32558C9.11455 8.32558 9.22427 8.27444 9.30517 8.1834C9.38607 8.09236 9.43152 7.96888 9.43152 7.84013C9.43152 7.71139 9.38607 7.58791 9.30517 7.49687C9.22427 7.40583 9.11455 7.35468 9.00014 7.35468ZM9.00014 6.38281C9.79612 6.38281 10.4834 6.99448 10.6741 7.85159C10.6824 7.88906 10.6772 7.92872 10.6596 7.96186C10.6419 7.995 10.6133 8.0189 10.58 8.0283C10.5467 8.03769 10.5115 8.03182 10.482 8.01198C10.4526 7.99213 10.4314 7.95993 10.423 7.92247C10.3431 7.56585 10.1597 7.24945 9.9019 7.02344C9.64408 6.79743 9.32659 6.67474 8.99978 6.67483C8.67297 6.67492 8.35554 6.79778 8.09782 7.02393C7.8401 7.25008 7.65684 7.56658 7.5771 7.92324C7.57299 7.94181 7.56567 7.95928 7.55556 7.97466C7.54544 7.99004 7.53274 8.00303 7.51816 8.01288C7.50359 8.02273 7.48744 8.02926 7.47062 8.03209C7.45381 8.03492 7.43666 8.03399 7.42017 8.02936C7.40367 8.02473 7.38815 8.0165 7.37448 8.00512C7.36081 7.99374 7.34927 7.97944 7.34051 7.96304C7.33176 7.94664 7.32596 7.92846 7.32344 7.90954C7.32093 7.89061 7.32175 7.87132 7.32587 7.85276C7.41944 7.4328 7.63502 7.06007 7.93836 6.79375C8.24169 6.52743 8.6154 6.3828 9.00014 6.38281Z" fill="url(#paint1_linear_1026_3611)"/>
<defs>
<linearGradient id="paint0_linear_1026_3611" x1="-2.03774" y1="2.8421" x2="35.93" y2="2.84693" gradientUnits="userSpaceOnUse">
<stop stop-color="#00A1FF"/>
<stop offset="1" stop-color="#00FF8F" stop-opacity="0"/>
</linearGradient>
<linearGradient id="paint1_linear_1026_3611" x1="6.9421" y1="6.8061" x2="14.0208" y2="6.80723" gradientUnits="userSpaceOnUse">
<stop stop-color="#00A1FF"/>
<stop offset="1" stop-color="#00FF8F" stop-opacity="0"/>
</linearGradient>
</defs>
</svg>
