<svg width="148" height="139" viewBox="0 0 148 139" fill="none" xmlns="http://www.w3.org/2000/svg">
<path d="M72.0476 67.48L86.8095 81.98C87.892 83.0433 88.4333 84.3967 88.4333 86.04C88.4333 87.6833 87.892 89.0367 86.8095 90.1C85.727 91.1633 84.3492 91.695 82.6762 91.695C81.0032 91.695 79.6254 91.1633 78.5428 90.1L62.0095 73.86C61.419 73.28 60.9762 72.6285 60.6809 71.9054C60.3857 71.1823 60.2381 70.4322 60.2381 69.655V46.6C60.2381 44.9567 60.8049 43.5801 61.9387 42.4704C63.0724 41.3607 64.4738 40.8039 66.1428 40.8C67.8159 40.8 69.2192 41.3568 70.3529 42.4704C71.4867 43.584 72.0515 44.9605 72.0476 46.6V67.48ZM107.476 35H95.6667C93.9936 35 92.5922 34.4451 91.4625 33.3354C90.3327 32.2257 89.7658 30.8472 89.7619 29.2C89.7619 27.5567 90.3287 26.1801 91.4625 25.0704C92.5962 23.9607 93.9976 23.4039 95.6667 23.4H107.476V11.8C107.476 10.1567 108.043 8.78013 109.177 7.6704C110.31 6.56067 111.712 6.00387 113.381 6C115.054 6 116.457 6.5568 117.591 7.6704C118.725 8.784 119.29 10.1605 119.286 11.8V23.4H131.095C132.768 23.4 134.172 23.9568 135.305 25.0704C136.439 26.184 137.004 27.5605 137 29.2C137 30.8433 136.433 32.2218 135.299 33.3354C134.166 34.449 132.764 35.0039 131.095 35H119.286V46.6C119.286 48.2433 118.719 49.6218 117.585 50.7354C116.451 51.849 115.05 52.4039 113.381 52.4C111.708 52.4 110.307 51.8432 109.177 50.7296C108.047 49.616 107.48 48.2395 107.476 46.6V35ZM66.1428 122C58.7619 122 51.8494 120.647 45.4053 117.94C38.9613 115.233 33.3262 111.512 28.5 106.775C23.6778 102.038 19.8889 96.5032 17.1333 90.1696C14.3778 83.836 13 77.0461 13 69.8C13 62.55 14.3778 55.7601 17.1333 49.4304C19.8889 43.1007 23.6778 37.5655 28.5 32.825C33.3222 28.0883 38.9573 24.3667 45.4053 21.66C51.8533 18.9533 58.7658 17.6 66.1428 17.6C67.2254 17.6 68.2351 17.6251 69.172 17.6754C70.1089 17.7257 71.1166 17.8455 72.1952 18.035C73.8682 18.035 75.2716 18.5918 76.4053 19.7054C77.539 20.819 78.1039 22.1955 78.1 23.835C78.1 25.4783 77.5331 26.8568 76.3994 27.9704C75.2657 29.084 73.8643 29.6389 72.1952 29.635C71.1127 29.635 70.103 29.5615 69.1661 29.4146C68.2292 29.2677 67.2215 29.1961 66.1428 29.2C54.5302 29.2 44.7381 33.115 36.7667 40.945C28.7952 48.775 24.8095 58.3933 24.8095 69.8C24.8095 81.2067 28.7952 90.825 36.7667 98.655C44.7381 106.485 54.5302 110.4 66.1428 110.4C77.7555 110.4 87.5476 106.485 95.519 98.655C103.49 90.825 107.476 81.2067 107.476 69.8C107.476 68.1567 108.043 66.7801 109.177 65.6704C110.31 64.5607 111.712 64.0039 113.381 64C115.054 64 116.457 64.5568 117.591 65.6704C118.725 66.784 119.29 68.1605 119.286 69.8C119.286 77.05 117.908 83.8418 115.152 90.1754C112.397 96.509 108.608 102.042 103.786 106.775C98.9635 111.512 93.3284 115.233 86.8804 117.94C80.4324 120.647 73.5199 122 66.1428 122Z" fill="url(#paint0_linear_133_62)"/>
<defs>
<linearGradient id="paint0_linear_133_62" x1="13" y1="65.0175" x2="137" y2="65.0175" gradientUnits="userSpaceOnUse">
<stop stop-color="#A9317B"/>
<stop offset="1" stop-color="#FE0060"/>
</linearGradient>
</defs>
</svg>
