<svg width="868" height="271" viewBox="0 0 868 271" fill="none" xmlns="http://www.w3.org/2000/svg">
<path d="M882 232.533H843C823.041 224.422 809.303 199.374 803.059 196.738C787.852 190.32 782.359 185.132 776.648 181.572C761.241 171.971 750.799 115.498 734.466 115.498C718.133 115.498 711.834 108.334 703.099 106.929C697.96 106.103 693.845 106.155 690.753 107.082C690.294 107.11 688.548 107.612 685.515 108.593L678.545 97.3971L683.224 88.925C683.224 88.925 691.389 71.5487 689.619 55.5024C687.848 39.4548 684.149 32.2896 677.773 22.3108C673.522 15.6565 666.191 9.74117 655.782 4.5636L651.849 11.0862C660.068 13.5384 666.812 18.5733 672.079 26.1909C679.981 37.6166 681.628 44.8715 682.918 54.3177C683.779 60.6148 683.211 67.4023 681.216 74.6816C679.535 73.3026 677.143 72.9575 674.038 73.6463C670.932 74.3365 666.809 74.6816 661.666 74.6816C660.244 74.3772 658.528 73.6545 656.518 72.5105C656.284 72.3775 656.037 72.2762 655.782 72.2089C655.836 71.5568 655.864 70.8952 655.864 70.2268H661.666C661.994 70.225 662.318 70.1504 662.621 70.0074C662.923 69.8643 663.198 69.6555 663.429 69.393C663.66 69.1304 663.842 68.8193 663.966 68.4772C664.09 68.1352 664.153 67.769 664.152 67.3995C664.154 67.03 664.091 66.6637 663.967 66.3215C663.843 65.9793 663.66 65.6679 663.429 65.4052C663.198 65.1425 662.924 64.9336 662.621 64.7905C662.319 64.6473 661.994 64.5727 661.666 64.571H655.864V59.2997L666.789 53.974C667.397 53.6733 667.875 53.1147 668.119 52.4196C668.364 51.7244 668.355 50.9488 668.094 50.261C667.968 49.9209 667.783 49.6124 667.55 49.3533C667.317 49.0942 667.041 48.8897 666.737 48.7516C666.434 48.6135 666.109 48.5446 665.781 48.5488C665.454 48.553 665.131 48.6302 664.83 48.7761L655.864 53.1453V49.3684H638.166V44.6813H649.342C649.342 43.2779 648.053 37.4848 644.556 36.0515L649.543 31.3699L648.235 29.73L642.856 34.6875C640.744 33.8384 639.002 33.4145 637.632 33.4145C636.492 33.4145 634.528 33.8384 631.742 34.6875L627.455 29.73L625.983 31.3699L630.193 36.0515C627.578 37.5664 626.383 43.2181 626.383 44.6813H637.863V49.3684H619.483L619.4 53.1453L608.778 47.9677C608.477 47.8219 608.154 47.7446 607.826 47.7404C607.499 47.7362 607.174 47.8052 606.87 47.9433C606.567 48.0814 606.29 48.2859 606.057 48.545C605.825 48.804 605.64 49.1125 605.513 49.4526C604.973 50.8887 605.692 52.5108 606.954 53.1262C615.034 57.0757 619.182 59.051 619.4 59.051V64.571H613.599C613.271 64.5727 612.946 64.6473 612.643 64.7905C612.341 64.9336 612.066 65.1425 611.835 65.4052C611.604 65.6679 611.422 65.9793 611.298 66.3215C611.174 66.6637 611.111 67.03 611.113 67.3995C611.111 67.769 611.174 68.1352 611.298 68.4772C611.422 68.8193 611.605 69.1304 611.836 69.393C612.067 69.6555 612.341 69.8643 612.644 70.0074C612.946 70.1504 613.271 70.225 613.599 70.2268H619.4C619.4 70.8952 619.428 71.5568 619.483 72.2103C619.227 72.2772 618.98 72.3779 618.746 72.5105L607.145 79.1092C606.356 79.563 605.758 80.3487 605.48 81.2959C605.202 82.243 605.268 83.2752 605.662 84.1686C605.854 84.61 606.121 85.0042 606.449 85.3283C606.778 85.6524 607.16 85.8999 607.573 86.0566C607.987 86.2133 608.424 86.276 608.86 86.2411C609.295 86.2062 609.72 86.0743 610.11 85.8532L621.312 79.4828C621.312 88.1995 626.789 96.2681 638.166 96.2681C649.543 96.2681 653.963 88.1995 653.963 79.457C656.839 80.9542 658.996 82.0791 660.435 82.8263C662.616 83.9634 667.544 87.512 669.38 83.8248C671.214 80.1376 665.098 76.9912 662.646 75.7114C661.125 74.9166 669.404 75.7535 672.385 74.8989C675.293 74.0634 678.083 74.3351 680.758 75.7114C679.684 79.5154 678.348 82.8956 676.746 85.8546C675.146 88.8122 672.571 92.6597 669.024 97.3971C660.641 105.546 653.327 109.926 647.083 110.539C637.717 111.458 628.661 114.161 613.599 104.556C598.538 94.9503 593.658 80.139 591.61 67.3982C589.564 54.6587 591.193 45.1459 598.55 31.1987C605.905 17.2501 621.082 11.0712 621.082 11.0712L621.645 13.0045C616.342 15.5567 611.444 19.0659 607.145 23.3936C600.689 29.889 597.949 37.0569 596.805 41.3133C595.661 45.5698 596.584 48.4296 598.549 45.6948C600.516 42.9599 600.516 39.7102 604.368 34.6875C608.221 29.6635 608.885 27.4408 615.95 22.3108C623.014 17.1794 629.994 14.8046 631.742 14.8046C633.489 14.8046 634.373 13.4433 633.489 12.3768C632.605 11.3103 630.822 10.9503 628.348 10.9503C626.699 10.9503 625.049 11.3796 623.395 12.241L623.042 10.4205C628.597 8.94096 632.88 8.17879 635.89 8.13804C638.9 8.09456 643.534 8.70593 649.793 9.97213L653.965 3.65878C647.246 1.2405 639.679 0.471537 631.264 1.35326C618.64 2.67788 597.719 12.241 589.51 34.6875C581.301 57.1341 583.926 77.2602 595.743 96.2681C607.558 115.277 625.992 118.848 642.399 118.677C650.584 118.591 659.248 114.659 668.391 106.88L674.038 115.498M674.038 115.498C675.888 122.193 677.391 125.65 678.545 125.869M674.038 115.498L680.758 126.828C680.437 126.408 679.7 126.089 678.545 125.869M674.038 115.498C672.732 115.498 671.061 117.196 669.024 120.595C665.968 125.692 667.788 131.252 671.025 131.551C674.26 131.85 676.418 131.337 678.545 129.041C679.964 127.512 685.467 123.398 695.057 116.701L684.312 126.828M678.545 125.869L684.312 126.828M678.545 125.869L673.595 117.772C680.9 111.006 685.358 107.443 686.969 107.082C690.291 106.342 687.515 107.335 688.525 108.593C690.014 110.45 696.84 118.037 698.919 122.947C699.155 123.504 698.202 124.479 696.058 125.869C706.179 137.939 712.849 145.161 716.071 147.538C720.904 151.105 739.369 153.97 734.466 157.184C729.564 160.397 721.516 154.947 721.516 147.538C721.516 140.13 727.806 125.309 725.479 137.288C723.152 149.267 720.538 143.361 718.078 140.126C717.685 139.607 702.245 131.905 709.512 137.288C714.358 140.877 716.19 139.285 715.009 132.514H709.512L700.163 124.358C695.451 125.365 692.315 125.365 690.754 124.358C688.413 122.846 684.626 126.498 684.312 126.828M684.312 126.828C683.401 127.786 679.872 131.298 684.312 138.839C687.272 143.869 690.853 149.157 695.057 154.706L705.613 165.901L713.124 175.146L718.078 185.818V191.175L715.009 187.345L709.512 184.689H715.009L709.512 172.986C707.441 171.89 705.304 170.064 703.099 167.51C700.894 164.956 699.092 162.218 697.694 159.297C695.766 162.665 693.074 163.18 689.619 160.842C684.434 157.334 687.292 152.387 682.918 147.538C680.002 144.305 679.283 141.407 680.758 138.839C685.162 146.018 688.115 150.556 689.619 152.452C691.121 154.349 693.268 156.247 696.06 158.146C694.34 165.056 694.34 170.318 696.06 173.929C697.778 177.543 701.991 181.129 708.695 184.689C709.752 187.562 711.23 189.724 713.124 191.175C715.019 192.624 717.129 193.207 719.453 192.922C723.678 199.59 727.716 204.331 731.566 207.146C735.416 209.959 740.469 211.863 746.725 212.858C748.574 215.351 750.597 217.151 752.792 218.261C756.086 219.925 759.674 219.806 763.772 221.47C766.506 222.58 775.136 226.266 789.666 232.533L466.81 231.079L440.871 238.778C437.854 238.623 436.26 238.391 436.087 238.081C435.916 237.772 437.105 237.272 439.652 236.579C403.768 232.83 385.703 230.998 385.458 231.079C385.296 231.134 373.6 235.277 350.371 243.51L397.404 248.22L434.491 238.778L439.652 239.098L362.261 262.013H356.446L224.151 241.649L345.797 218.261L479.703 229.132V236.579L368.481 270H362.261C268.135 260.009 220.146 253.88 218.293 251.617C216.441 249.352 215.514 247.4 215.514 245.761V229.132L175.253 72.2089L297.996 73.6463L334.263 207.145L245.692 223.796C243.649 210.298 242.404 203.591 241.956 203.672L314.467 191.173L312.308 181.867C258.601 189.773 231.703 193.571 231.618 193.266C231.594 193.179 242.335 191.228 263.843 187.417L262.14 181.869L233.598 186.783L224.603 152.451C248.035 148.935 259.956 147.297 260.366 147.538C261.887 148.435 270.463 184.913 271.747 184.689C277.298 183.72 286.483 182.572 299.301 181.248L294.457 173.929C284.83 177.382 278.026 176.005 274.048 169.793C267.664 159.828 272.726 152.452 279.414 150.329C286.101 148.206 295.692 148.331 299.301 154.706C300.623 157.043 302.197 159.297 301.268 164.305L295.446 164.321L291.343 155.698C284.311 156.561 280.737 157.009 280.617 157.043C279.964 157.222 281.71 159.334 281.326 159.491C281.144 159.566 284.237 159.301 290.606 158.695L291.343 160.495L279.005 161.84L280.617 165.666L293.586 164.769L294.457 166.519L278.481 167.864L279.573 169.793L297.024 168.448L296.007 165.901H301.267C300.386 168.436 298.77 170.565 296.422 172.289L302.058 180.553L311.548 179.157L289.32 101.455L202.492 103.211L211.406 141.112L228 139.121C223.046 120.568 220.707 111.272 220.984 111.233C221.262 111.192 224.295 120.403 230.084 138.867L241.956 137.288C238.072 122.286 236.339 114.763 236.757 114.712C237.174 114.665 239.708 122.161 244.36 137.204L255.884 135.871C252.956 123.831 251.585 117.798 251.774 117.772C251.962 117.745 253.861 123.705 257.474 135.648L268.055 134.798C265.818 125.355 264.797 120.622 264.992 120.595C265.188 120.568 266.714 125.232 269.573 134.588C285.45 133.569 293.388 133.067 293.391 133.076C293.467 133.386 266.34 136.894 212.013 143.597L227.071 205.35C234.807 203.898 238.676 203.34 238.681 203.672C238.711 205.784 239.803 212.717 241.956 224.474L212.067 229.134V241.502L165.055 59.2997L302.197 64.571L341.076 212.858L220.816 237.784L212.067 238.778L171.957 238.254C161.557 251.514 145.827 258.145 124.766 258.145C93.1755 258.145 70.1332 246.238 69.6323 236.003C69.1303 225.767 80.4457 219.329 82.233 217.385C83.4254 216.089 86.2458 214.949 90.6955 213.961V205.35C100.586 211.092 110.815 213.962 121.383 213.962C137.234 213.962 148.78 212.082 153.706 205.349C158.631 198.619 149.934 192.509 139.48 189.229C129.027 185.951 117.165 186.62 104.219 189.229C95.588 190.971 90.1415 194.44 87.8787 199.636C87.8364 214.393 89.2207 224.203 92.0302 229.071C96.2433 236.371 103.901 242.675 110.559 244.991C117.218 247.308 128.466 246.567 135.249 244.108C142.031 241.649 144.15 237.587 147.405 232.329C150.66 227.07 153.408 216.114 153.705 211.869C154.003 207.625 154.003 208.79 157.329 205.35C160.654 201.909 167.647 201.468 170.463 205.35C173.281 209.232 173.281 216.254 171.957 220.439C171.074 223.229 166.516 226.508 158.281 230.275L147.405 233.995C149.862 230.697 152.613 227.691 155.614 225.025C160.104 221.039 165.333 221.262 167.256 217.385C169.178 213.507 166.937 209.232 163.447 209.232C161.12 209.232 157.874 211.949 153.706 217.385C163.573 219.701 170.103 223.195 173.292 227.865C178.076 234.87 176.174 238.254 171.957 244.108C167.741 249.964 153.437 260.186 131.842 263.628C110.245 267.07 93.6896 260.574 84.666 258.145C78.6499 256.526 71.2181 251.026 62.3683 241.649L58.1697 232.533L1 232.248" stroke="url(#paint0_linear_133_42)" stroke-width="2" stroke-linecap="round" stroke-linejoin="round"/>
<defs>
<linearGradient id="paint0_linear_133_42" x1="-98.7359" y1="51.9683" x2="1759.57" y2="52.6135" gradientUnits="userSpaceOnUse">
<stop stop-color="#00A1FF"/>
<stop offset="1" stop-color="#00FF8F" stop-opacity="0"/>
</linearGradient>
</defs>
</svg>
