<svg width="864" height="200" viewBox="0 0 864 200" fill="none" xmlns="http://www.w3.org/2000/svg">
<path fill-rule="evenodd" clip-rule="evenodd" d="M-1 174.029H52.16L128.087 191.217L114.282 114.825L37.949 101.838L51.754 166.008L141.892 184.342L175.187 167.536C152.367 165.227 138.021 162.936 132.147 160.66C123.337 157.248 137.02 151.493 133.772 151.493C130.523 151.493 126.535 150.252 124.027 146.91C121.519 143.567 124.601 143.096 124.027 140.034C123.644 137.994 122.832 135.956 121.591 133.923C124.616 131.606 128.135 127.278 132.147 120.936C138.166 111.425 138.221 106.886 141.892 101.838C145.562 96.792 150.367 93.049 153.261 91.908C155.191 91.146 159.791 91.146 167.066 91.908C161.606 88.072 158.358 81.197 157.321 71.282C156.285 61.367 157.097 52.709 159.757 45.308C160.81 52.1 162.164 56.684 163.817 59.058C165.472 61.434 169.262 64.235 175.187 67.462L171.127 59.059C177.762 62.704 182.905 64.741 186.555 65.17C190.205 65.6 194.265 64.58 198.736 62.115C189.616 60.17 182.849 58.133 178.435 56.003C171.815 52.809 170.005 51.377 167.065 46.836C164.128 42.296 162.011 39.711 163.818 36.141C165.625 32.571 168.499 29.911 175.187 29.266C181.874 28.621 186.555 28.502 194.676 33.086C202.796 37.669 205.233 42.253 206.045 46.836C206.586 49.892 205.503 55.494 202.797 63.642C205.075 60.3 207.511 58.772 210.105 59.059C213.995 59.489 215.669 60.246 217.414 65.17C219.158 70.095 218.21 73.526 216.602 77.393C214.992 81.26 211.747 84.26 210.105 85.033C208.463 85.804 202.797 86.56 201.172 85.033C199.548 83.504 196.758 82.347 196.3 77.393C195.842 72.439 197.32 67.962 198.736 67.462C200.153 66.962 203.72 71.257 200.36 79.685C198.12 85.303 194.331 89.377 188.992 91.907C187.367 94.454 183.848 95.727 178.435 95.727C170.315 95.727 170.112 90.949 169.502 95.727C167.878 108.459 168.961 121.191 172.75 133.923C176.332 120.975 179.85 111.807 183.307 106.422C188.492 98.344 196.015 91.872 198.737 90.38C201.457 88.887 200.402 93.171 206.045 95.727C211.688 98.283 217.414 98.783 220.662 100.311C223.91 101.838 227.158 104.131 231.219 112.533C235.279 120.936 247.181 164.836 246.648 167.536C246.115 170.236 223.91 166.008 220.662 166.008C218.996 166.008 204.182 166.951 192.24 166.008C180.894 165.111 172.433 162.329 169.502 162.188C165.492 161.995 161.432 162.249 157.322 162.952C148.118 160.915 144.058 159.387 145.14 158.368C146.764 156.841 158.012 150.758 161.382 149.965C164.751 149.173 166.063 151.659 169.502 153.021C172.942 154.383 173.562 156.077 175.187 156.077C176.811 156.077 184.1 151.481 186.555 153.021C183.167 158.114 181.813 160.661 182.495 160.661C183.177 160.661 185.342 158.114 188.992 153.021L213.353 149.965L255.58 160.66L253.956 140.034H280.754L277.506 172.883L258.829 174.411V169.063L253.956 171.355L238.527 172.883L222.286 178.994C206.162 175.423 195.606 173.386 190.616 172.883C185.626 172.38 181.024 172.889 176.811 174.411V184.341H219.038L227.158 182.814L257.204 175.939V180.522H280.754L343.283 160.66V104.13L435.045 114.825V182.814L343.283 169.064V172.883L435.045 188.925L473.212 174.411V162.951C470.124 160.571 466.605 159.043 462.655 158.367C456.73 157.354 454.538 157.057 448.038 158.367C443.705 159.241 440.998 160.769 439.918 162.951V175.938L461.031 174.41C454.234 174.316 449.362 173.806 446.414 172.882C441.992 171.495 440.53 169.568 450.474 169.062C457.104 168.725 465.766 169.489 476.46 171.354C494.325 163.714 506.236 159.386 512.19 158.367C518.146 157.349 526.537 148.691 537.365 132.394C535.56 126.766 533.395 122.946 530.868 120.935C527.078 117.919 519.499 116.352 516.251 117.88C513.003 119.408 512.091 125.411 501.634 135.45C494.662 142.142 485.73 149.018 474.836 156.076C471.588 150.983 467.528 147.418 462.656 145.381C457.783 143.344 451.828 142.58 444.79 143.089C449.473 122.55 452.721 110.327 454.535 106.421C457.255 100.561 464.511 93.575 469.964 88.851C473.599 85.701 479.284 82.645 487.017 79.684L485.393 62.114C486.863 65.694 488.487 67.984 490.265 68.989C492.933 70.495 497.574 73.572 503.258 71.281C507.048 69.753 510.567 66.697 513.815 62.114C509.845 68.394 507.139 72.214 505.695 73.572C503.527 75.611 501.877 77.392 497.574 77.392C494.704 77.392 492.269 76.119 490.265 73.572C490.52 81.211 490.52 88.086 490.265 94.198C490.01 100.31 488.928 107.185 487.017 114.824C494.544 99.909 499.957 89.978 503.258 85.031C507.767 78.272 515.878 74.796 516.251 71.281C517.875 56.002 518.525 51.876 519.499 49.127C520.473 46.378 523.32 50.593 525.996 45.307C528.671 40.022 528.432 35.377 527.62 33.849C527.079 32.83 525.184 33.085 521.935 34.612C518.687 22.899 516.522 16.788 515.439 16.278C513.815 15.514 503.175 21.044 497.574 20.862C493.84 20.741 491.945 18.958 491.889 15.514C489.564 16.308 487.399 19.364 485.393 24.682C483.387 30 482.575 34.838 482.957 39.196L484.581 56.002C481.139 36.428 479.785 23.951 480.521 18.57C481.624 10.5 490.468 3.608 491.889 2.528C493.311 1.448 495.369 3.27 503.259 2.528C508.517 2.033 513.66 1.524 518.687 1C513.768 3.82 511.873 5.347 513.003 5.584C514.697 5.938 521.541 2.649 525.183 3.292C528.826 3.934 523.549 6.991 524.372 7.875C525.194 8.76 529.244 10.167 531.68 9.403C534.116 8.639 528.432 12.459 529.244 13.987C530.056 15.514 535.74 16.278 536.553 17.042C537.365 17.806 532.085 20.872 531.68 23.918C531.276 26.963 535.74 24.682 533.304 34.612C530.868 44.543 524.372 52.947 524.372 56.002C524.372 59.058 521.935 71.281 525.996 71.281C528.703 71.281 539.259 74.081 557.666 79.684C549.004 79.684 542.236 81.466 537.365 85.031C532.492 88.596 528.703 92.925 525.995 98.018C534.116 91.398 540.342 87.068 544.673 85.031C551.17 81.975 556.042 80.448 563.35 84.267C570.659 88.087 569.278 93.823 569.035 108.713C568.791 123.603 566.547 126.475 559.29 136.978C554.452 143.979 546.873 150.345 536.553 156.076L541.425 138.506C559.832 129.339 569.847 124.755 571.471 124.755C572.848 124.755 574.27 136.879 569.035 160.659C568.407 163.51 566.512 168.094 563.35 174.409C532.097 174.903 516.397 174.393 516.251 172.882C516.105 171.37 531.534 169.079 562.538 166.007L573.908 174.41H634L646.992 187.396H756.62L759.869 122.463H653.489L649.429 178.993C642.932 166.771 636.706 156.076 630.751 146.909C621.819 133.159 656.099 107.909 659.985 100.309C663.872 92.709 659.199 90.161 661.61 86.559C664.02 82.957 673.79 77.392 673.79 79.684C673.79 81.975 668.918 94.198 671.354 94.198C673.79 94.198 676.844 81.975 678.663 81.975C680.482 81.975 676.227 94.198 678.663 94.198C681.099 94.198 682.445 82.488 683.535 81.975C684.625 81.463 681.911 93.435 683.535 93.435C684.618 93.435 686.513 88.851 689.22 79.684C685.43 78.156 682.994 76.119 681.911 73.572C680.287 69.752 678.361 56.82 680.287 47.599C682.212 38.379 687.595 31.557 693.28 30.029C698.964 28.501 706.558 33.27 711.957 39.196C715.557 43.146 717.452 49.767 717.642 59.058C719.452 56.55 721.347 56.041 723.326 57.53C726.294 59.764 724.996 64.364 724.138 67.461C723.566 69.525 721.4 71.563 717.642 73.572C718.47 75.353 718.74 77.391 718.454 79.684C718.024 83.124 714.686 86.184 715.205 87.323C715.725 88.463 717.967 91.099 723.326 90.379C728.685 89.659 725.841 86.559 731.446 86.559C737.052 86.559 737.617 96.491 744.439 90.379C751.262 84.266 748.499 77.398 748.499 71.281C748.499 65.163 746.488 62.911 744.439 59.058C742.391 55.204 745.337 61.713 737.943 51.418C730.549 41.124 727.416 33.543 724.138 30.793C720.86 28.043 715.735 25.06 706.273 24.682C696.81 24.302 697.302 24.156 683.535 32.321C669.768 40.485 672.064 43.47 668.106 52.947C664.148 62.423 664.046 70.517 668.106 73.572C672.166 76.628 683.536 76.628 687.596 78.156C691.656 79.684 690.217 86.633 695.716 87.323C699.382 87.783 704.796 86 711.957 81.975C709.591 85.545 708.237 88.346 707.897 90.379C707.385 93.427 712.356 90.357 709.521 96.49C706.686 102.623 694.714 107.068 698.152 106.42C701.591 105.774 711.991 95.182 723.326 94.198C734.661 93.214 754.996 104.129 762.305 111.004C769.613 117.88 773.595 124.446 780.17 141.561C784.554 152.971 786.72 163.921 786.667 174.41L863 172.883V199.001H-1V174.029Z" stroke="url(#paint0_linear_133_119)" stroke-width="2" stroke-linecap="round" stroke-linejoin="round"/>
<defs>
<linearGradient id="paint0_linear_133_119" x1="-98.8113" y1="38.5159" x2="1723.64" y2="39.3589" gradientUnits="userSpaceOnUse">
<stop stop-color="#00A1FF"/>
<stop offset="1" stop-color="#00FF8F" stop-opacity="0"/>
</linearGradient>
</defs>
</svg>
