<svg width="393" height="370" viewBox="0 0 393 370" fill="none" xmlns="http://www.w3.org/2000/svg">
<path d="M292.47 303.5H99.6904L114.91 288.81H277.25L292.47 303.5Z" fill="#C2C2C2" stroke="#263238" stroke-linecap="round" stroke-linejoin="round"/>
<path d="M271.05 294.48C271.05 297.48 236.14 299.95 193.05 299.95C149.96 299.95 115.05 297.5 115.05 294.48C115.05 291.46 149.96 289 193.05 289C236.14 289 271.05 291.45 271.05 294.48Z" fill="url(#paint0_linear_766_5013)"/>
<path opacity="0.5" d="M271.05 294.48C271.05 297.48 236.14 299.95 193.05 299.95C149.96 299.95 115.05 297.5 115.05 294.48C115.05 291.46 149.96 289 193.05 289C236.14 289 271.05 291.45 271.05 294.48Z" fill="#C2C2C2"/>
<path d="M292.47 303.5H99.6904V317.11H292.47V303.5Z" fill="#263238" stroke="#263238" stroke-linecap="round" stroke-linejoin="round"/>
<path d="M306.11 331.79H86.0498L99.6898 317.11H292.47L306.11 331.79Z" fill="#C2C2C2" stroke="#263238" stroke-linecap="round" stroke-linejoin="round"/>
<path d="M306.07 331.79H86.0898V346.11H306.07V331.79Z" fill="#263238" stroke="#263238" stroke-linecap="round" stroke-linejoin="round"/>
<path d="M193.95 158.31V66.78H228.78V28.27" stroke="url(#paint1_linear_766_5013)" stroke-miterlimit="10"/>
<path d="M207.56 66.35V28.27" stroke="url(#paint2_linear_766_5013)" stroke-miterlimit="10"/>
<path d="M196.55 172.9H356.91V150.1H387.56" stroke="url(#paint3_linear_766_5013)" stroke-miterlimit="10"/>
<path d="M188.69 172.11H36.2004V147.75H3.19043" stroke="url(#paint4_linear_766_5013)" stroke-miterlimit="10"/>
<path d="M162.75 3.8999V38.4899H143.1V60.4899H167.47V134.38" stroke="url(#paint5_linear_766_5013)" stroke-miterlimit="10"/>
<path d="M270.44 106.08V56.5598H283.8V35.3398H294.81" stroke="url(#paint6_linear_766_5013)" stroke-miterlimit="10"/>
<path d="M108.52 101.37V63.6401L97.5098 52.6301V25.1201" stroke="url(#paint7_linear_766_5013)" stroke-miterlimit="10"/>
<path d="M300.31 123.38H327.82V105.3H345.9V95.0801H361.62" stroke="url(#paint8_linear_766_5013)" stroke-miterlimit="10"/>
<path d="M80.9998 129.67H51.9198V106.87H11.0498" stroke="url(#paint9_linear_766_5013)" stroke-miterlimit="10"/>
<path d="M107.73 253.07V273.51H94.3696V296.31H55.8496" stroke="#263238" stroke-miterlimit="10"/>
<path d="M254.72 256.22V277.44H285.37V268.8H294.02V286.87H320.75" stroke="#263238" stroke-miterlimit="10"/>
<path d="M231.02 28.27C231.018 28.7126 230.885 29.1447 230.638 29.5118C230.39 29.8788 230.04 30.1644 229.63 30.3324C229.221 30.5004 228.771 30.5433 228.337 30.4557C227.903 30.3682 227.505 30.1541 227.193 29.8404C226.88 29.5267 226.668 29.1276 226.582 28.6934C226.497 28.2591 226.542 27.8092 226.712 27.4005C226.881 26.9918 227.168 26.6425 227.537 26.3968C227.905 26.1511 228.337 26.02 228.78 26.02C229.075 26.02 229.367 26.0783 229.64 26.1915C229.912 26.3047 230.159 26.4706 230.367 26.6796C230.576 26.8887 230.74 27.1368 230.852 27.4097C230.964 27.6827 231.021 27.975 231.02 28.27Z" fill="#263238" stroke="url(#paint10_linear_766_5013)" stroke-linecap="round" stroke-linejoin="round"/>
<path d="M209.88 28.27C209.878 28.7126 209.745 29.1447 209.498 29.5118C209.251 29.8788 208.9 30.1644 208.491 30.3324C208.081 30.5004 207.631 30.5433 207.197 30.4557C206.763 30.3682 206.365 30.1541 206.053 29.8404C205.741 29.5267 205.528 29.1276 205.443 28.6934C205.357 28.2591 205.402 27.8092 205.572 27.4005C205.742 26.9918 206.029 26.6425 206.397 26.3968C206.765 26.1511 207.198 26.02 207.64 26.02C207.935 26.02 208.227 26.0783 208.5 26.1915C208.772 26.3047 209.02 26.4706 209.228 26.6796C209.436 26.8887 209.601 27.1368 209.713 27.4097C209.825 27.6827 209.882 27.975 209.88 28.27Z" fill="#263238" stroke="url(#paint11_linear_766_5013)" stroke-linecap="round" stroke-linejoin="round"/>
<path d="M165.01 3.25002C165.01 3.69546 164.878 4.13087 164.63 4.50109C164.382 4.87131 164.03 5.15969 163.618 5.32969C163.207 5.49969 162.754 5.54366 162.317 5.45603C161.88 5.3684 161.48 5.15311 161.165 4.83744C160.851 4.52177 160.637 4.11993 160.552 3.68281C160.466 3.2457 160.512 2.79299 160.684 2.38203C160.856 1.97108 161.146 1.62037 161.517 1.37435C161.888 1.12832 162.324 0.998043 162.77 1.00002C163.065 1.00002 163.357 1.05829 163.629 1.17149C163.902 1.28468 164.149 1.45057 164.357 1.65964C164.565 1.8687 164.73 2.11681 164.842 2.38974C164.954 2.66266 165.011 2.95502 165.01 3.25002Z" fill="#263238" stroke="url(#paint12_linear_766_5013)" stroke-linecap="round" stroke-linejoin="round"/>
<path d="M99.77 23.9902C99.768 24.4328 99.635 24.8649 99.3877 25.232C99.1403 25.599 98.7898 25.8846 98.3803 26.0526C97.9708 26.2206 97.5208 26.2635 97.0869 26.176C96.6531 26.0884 96.2549 25.8743 95.9426 25.5606C95.6303 25.247 95.418 24.8478 95.3324 24.4136C95.2467 23.9793 95.2917 23.5295 95.4615 23.1207C95.6313 22.712 95.9184 22.3628 96.2866 22.1171C96.6547 21.8714 97.0874 21.7402 97.53 21.7402C97.825 21.7402 98.1171 21.7985 98.3895 21.9117C98.662 22.0249 98.9093 22.1908 99.1175 22.3998C99.3256 22.6089 99.4904 22.857 99.6024 23.13C99.7144 23.4029 99.7713 23.6952 99.77 23.9902Z" fill="#263238" stroke="url(#paint13_linear_766_5013)" stroke-linecap="round" stroke-linejoin="round"/>
<path d="M13.29 106.87C13.292 107.316 13.1615 107.752 12.915 108.124C12.6685 108.495 12.3172 108.785 11.9057 108.957C11.4941 109.128 11.0409 109.174 10.6035 109.087C10.1661 109.001 9.76432 108.786 9.44905 108.471C9.13378 108.156 8.91929 107.754 8.83279 107.316C8.74629 106.879 8.79169 106.426 8.96323 106.014C9.13476 105.603 9.4247 105.251 9.79624 105.005C10.1678 104.758 10.6042 104.628 11.05 104.63C11.6441 104.63 12.2139 104.866 12.6339 105.286C13.054 105.706 13.29 106.276 13.29 106.87Z" fill="#263238" stroke="url(#paint14_linear_766_5013)" stroke-linecap="round" stroke-linejoin="round"/>
<path d="M5.5 147.68C5.5 148.125 5.36804 148.56 5.12081 148.93C4.87357 149.3 4.52217 149.589 4.11104 149.759C3.69991 149.929 3.24751 149.974 2.81105 149.887C2.37459 149.8 1.97368 149.586 1.65901 149.271C1.34434 148.956 1.13005 148.556 1.04323 148.119C0.956418 147.683 1.00097 147.23 1.17127 146.819C1.34157 146.408 1.62996 146.057 1.99997 145.809C2.36998 145.562 2.80499 145.43 3.25 145.43C3.84674 145.43 4.41903 145.667 4.84099 146.089C5.26295 146.511 5.5 147.083 5.5 147.68Z" fill="#263238" stroke="url(#paint15_linear_766_5013)" stroke-linecap="round" stroke-linejoin="round"/>
<path d="M58.29 295.88C58.29 296.325 58.1578 296.761 57.9101 297.131C57.6625 297.501 57.3105 297.79 56.8987 297.96C56.487 298.13 56.0341 298.174 55.5974 298.086C55.1607 297.998 54.7598 297.783 54.4455 297.467C54.1312 297.152 53.9177 296.75 53.8321 296.313C53.7464 295.876 53.7924 295.423 53.9642 295.012C54.136 294.601 54.426 294.25 54.7973 294.004C55.1686 293.758 55.6046 293.628 56.05 293.63C56.345 293.63 56.6371 293.688 56.9096 293.801C57.182 293.915 57.4294 294.08 57.6375 294.29C57.8456 294.499 58.0104 294.747 58.1224 295.02C58.2344 295.293 58.2914 295.585 58.29 295.88Z" fill="#263238" stroke="#263238" stroke-linecap="round" stroke-linejoin="round"/>
<path d="M324.13 286.43C324.132 286.875 324.002 287.311 323.756 287.683C323.51 288.054 323.159 288.344 322.748 288.516C322.337 288.688 321.884 288.734 321.447 288.648C321.01 288.562 320.608 288.349 320.292 288.035C319.977 287.72 319.761 287.319 319.674 286.883C319.586 286.446 319.63 285.993 319.8 285.581C319.97 285.17 320.259 284.818 320.629 284.57C320.999 284.322 321.434 284.19 321.88 284.19C322.175 284.189 322.467 284.246 322.74 284.358C323.013 284.47 323.261 284.634 323.47 284.842C323.679 285.051 323.845 285.298 323.958 285.57C324.072 285.843 324.13 286.135 324.13 286.43Z" fill="#263238" stroke="#263238" stroke-linecap="round" stroke-linejoin="round"/>
<path d="M390.94 149.66C390.94 150.103 390.809 150.536 390.562 150.904C390.316 151.273 389.967 151.56 389.557 151.729C389.148 151.899 388.697 151.943 388.263 151.857C387.828 151.77 387.429 151.557 387.116 151.244C386.803 150.931 386.589 150.531 386.503 150.097C386.417 149.662 386.461 149.212 386.63 148.803C386.8 148.393 387.087 148.044 387.455 147.797C387.824 147.551 388.257 147.42 388.7 147.42C389.294 147.42 389.864 147.656 390.284 148.076C390.704 148.496 390.94 149.066 390.94 149.66Z" fill="#263238" stroke="url(#paint16_linear_766_5013)" stroke-linecap="round" stroke-linejoin="round"/>
<path d="M364.92 94.5999C364.92 95.0429 364.789 95.476 364.543 95.8443C364.297 96.2127 363.947 96.4998 363.538 96.6694C363.128 96.8389 362.678 96.8833 362.243 96.7968C361.809 96.7104 361.41 96.4971 361.097 96.1838C360.783 95.8705 360.57 95.4714 360.483 95.0369C360.397 94.6023 360.441 94.152 360.611 93.7427C360.78 93.3334 361.068 92.9835 361.436 92.7374C361.804 92.4912 362.237 92.3599 362.68 92.3599C363.275 92.3599 363.844 92.5959 364.264 93.0159C364.684 93.436 364.92 94.0058 364.92 94.5999Z" fill="#263238" stroke="url(#paint17_linear_766_5013)" stroke-linecap="round" stroke-linejoin="round"/>
<path d="M298.5 35.28C298.5 35.7231 298.368 36.1561 298.122 36.5245C297.876 36.8929 297.526 37.18 297.117 37.3495C296.707 37.5191 296.257 37.5634 295.823 37.477C295.388 37.3906 294.989 37.1772 294.676 36.864C294.362 36.5507 294.149 36.1516 294.063 35.717C293.976 35.2825 294.02 34.8321 294.19 34.4228C294.36 34.0135 294.647 33.6637 295.015 33.4175C295.383 33.1714 295.817 33.04 296.26 33.04C296.854 33.04 297.423 33.276 297.843 33.6961C298.264 34.1162 298.5 34.686 298.5 35.28Z" fill="#263238" stroke="url(#paint18_linear_766_5013)" stroke-linecap="round" stroke-linejoin="round"/>
<path d="M223.29 272.88V253.38H164.61V272.88C164.592 279.255 162.389 285.432 158.37 290.38L155.8 293.56H232.08L229.52 290.38C225.5 285.432 223.301 279.255 223.29 272.88Z" fill="#C2C2C2"/>
<mask id="mask0_766_5013" style="mask-type:luminance" maskUnits="userSpaceOnUse" x="155" y="253" width="78" height="41">
<path d="M223.29 272.88V253.38H164.61V272.88C164.592 279.255 162.389 285.432 158.37 290.38L155.8 293.56H232.08L229.52 290.38C225.5 285.432 223.301 279.255 223.29 272.88Z" fill="white"/>
</mask>
<g mask="url(#mask0_766_5013)">
<path d="M161.01 286.54H226.89C224.532 282.373 223.292 277.667 223.29 272.88V253.38H164.61V272.88C164.607 277.667 163.367 282.373 161.01 286.54Z" fill="url(#paint19_linear_766_5013)"/>
<path opacity="0.3" d="M161.01 286.54H226.89C224.532 282.373 223.292 277.667 223.29 272.88V253.38H164.61V272.88C164.607 277.667 163.367 282.373 161.01 286.54Z" fill="#C2C2C2"/>
<path d="M161.01 265.98H226.89C224.532 261.813 223.292 257.107 223.29 252.32V232.82H164.61V252.32C164.607 257.107 163.367 261.813 161.01 265.98Z" fill="#263238"/>
</g>
<path d="M223.29 272.88V253.38H164.61V272.88C164.592 279.255 162.389 285.432 158.37 290.38L155.8 293.56H232.08L229.52 290.38C225.5 285.432 223.301 279.255 223.29 272.88Z" stroke="#263238" stroke-linecap="round" stroke-linejoin="round"/>
<path d="M303.71 86.3799H84.8501C80.1667 86.3799 76.3701 90.1765 76.3701 94.8599V251.05C76.3701 255.733 80.1667 259.53 84.8501 259.53H303.71C308.394 259.53 312.19 255.733 312.19 251.05V94.8599C312.19 90.1765 308.394 86.3799 303.71 86.3799Z" fill="#263238" stroke="#263238" stroke-linecap="round" stroke-linejoin="round"/>
<path d="M76.04 232.61H311.86V251.04C311.86 253.289 310.967 255.446 309.376 257.036C307.786 258.626 305.629 259.52 303.38 259.52H84.52C82.271 259.52 80.1141 258.626 78.5238 257.036C76.9335 255.446 76.04 253.289 76.04 251.04V232.61Z" fill="#C2C2C2" stroke="#263238" stroke-linecap="round" stroke-linejoin="round"/>
<path d="M299.99 97.1499H87.9004V219.48H299.99V97.1499Z" fill="#D8D8D8" stroke="#263238" stroke-linecap="round" stroke-linejoin="round"/>
<path d="M198.3 250.38C198.318 249.516 198.078 248.666 197.611 247.939C197.144 247.212 196.471 246.641 195.678 246.297C194.885 245.954 194.007 245.855 193.158 246.013C192.308 246.17 191.524 246.577 190.907 247.182C190.29 247.787 189.866 248.561 189.691 249.408C189.516 250.254 189.596 251.133 189.923 251.933C190.249 252.733 190.807 253.418 191.524 253.9C192.241 254.382 193.086 254.64 193.95 254.64C195.091 254.651 196.19 254.208 197.006 253.409C197.821 252.611 198.286 251.521 198.3 250.38Z" fill="#263238" stroke="#263238" stroke-linecap="round" stroke-linejoin="round"/>
<path d="M232.1 293.59H155.81V297.07H232.1V293.59Z" fill="#C2C2C2" stroke="#263238" stroke-linecap="round" stroke-linejoin="round"/>
<path d="M194.27 90.7998C183.61 100.8 156.27 110.8 124.46 132.09C124.46 132.09 126.46 204.09 194.27 243.4V90.7998Z" fill="url(#paint20_linear_766_5013)" stroke="#263238" stroke-linecap="round" stroke-linejoin="round"/>
<path d="M194.27 90.7998C204.94 100.8 232.27 110.8 264.09 132.09C264.09 132.09 262.09 204.09 194.27 243.4V90.7998Z" fill="#263238" stroke="#263238" stroke-linecap="round" stroke-linejoin="round"/>
<path d="M194.27 96.9302C181.37 105.87 159.08 114.38 129.58 134.12C129.58 134.12 131.43 200.82 194.27 237.28C257.12 200.82 258.97 134.12 258.97 134.12C229.47 114.38 207.25 105.87 194.27 96.9302Z" fill="#263238" stroke="#263238" stroke-linecap="round" stroke-linejoin="round"/>
<path d="M258.97 134.12C229.47 114.39 207.25 105.87 194.27 96.9302V237.28C257.12 200.82 258.97 134.12 258.97 134.12Z" fill="url(#paint21_linear_766_5013)" stroke="#263238" stroke-linecap="round" stroke-linejoin="round"/>
<path d="M312.59 169.43H75.3096V184.79H312.59V169.43Z" fill="#263238" stroke="#263238" stroke-linecap="round" stroke-linejoin="round"/>
<path d="M79.9795 171.87C79.9855 172.186 79.8973 172.496 79.7263 172.762C79.5552 173.027 79.309 173.235 79.0191 173.36C78.7291 173.485 78.4085 173.521 78.0981 173.463C77.7877 173.405 77.5016 173.256 77.2763 173.035C77.0509 172.814 76.8964 172.531 76.8326 172.222C76.7688 171.912 76.7985 171.591 76.9179 171.299C77.0373 171.007 77.241 170.756 77.5031 170.58C77.7652 170.404 78.0738 170.31 78.3895 170.31C78.5965 170.308 78.802 170.346 78.9942 170.423C79.1863 170.5 79.3613 170.614 79.5091 170.759C79.6569 170.904 79.7745 171.077 79.8553 171.268C79.936 171.458 79.9782 171.663 79.9795 171.87Z" fill="#C2C2C2"/>
<path d="M77.4805 172.73C77.6546 172.913 77.8793 173.04 78.1258 173.095C78.3724 173.149 78.6297 173.129 78.8648 173.037C79.0999 172.944 79.3021 172.784 79.4456 172.576C79.5891 172.369 79.6674 172.123 79.6705 171.87C79.6671 171.57 79.5532 171.281 79.3505 171.06C78.6898 171.573 78.065 172.131 77.4805 172.73Z" fill="#263238"/>
<path d="M86.22 171.87C86.228 172.188 86.1409 172.501 85.97 172.77C85.7991 173.038 85.5521 173.249 85.2605 173.377C84.969 173.504 84.6461 173.541 84.3331 173.484C84.0202 173.427 83.7313 173.278 83.5036 173.056C83.2758 172.834 83.1194 172.549 83.0543 172.237C82.9893 171.926 83.0185 171.602 83.1384 171.308C83.2582 171.013 83.4632 170.761 83.7271 170.583C83.991 170.405 84.3019 170.31 84.62 170.31C84.8275 170.308 85.0335 170.346 85.2262 170.423C85.4189 170.5 85.5946 170.614 85.7431 170.759C85.8917 170.904 86.0103 171.076 86.0921 171.267C86.1739 171.458 86.2174 171.663 86.22 171.87Z" fill="#C2C2C2"/>
<path d="M83.71 172.73C83.8841 172.913 84.1087 173.04 84.3553 173.095C84.6019 173.149 84.8592 173.129 85.0943 173.037C85.3294 172.944 85.5316 172.784 85.6751 172.576C85.8186 172.369 85.8969 172.123 85.9 171.87C85.8966 171.57 85.7827 171.281 85.58 171.06C84.9215 171.576 84.2968 172.134 83.71 172.73Z" fill="#263238"/>
<path d="M92.4498 171.87C92.418 172.271 92.2362 172.646 91.9405 172.919C91.6449 173.192 91.2572 173.344 90.8548 173.344C90.4523 173.344 90.0646 173.192 89.769 172.919C89.4734 172.646 89.2916 172.271 89.2598 171.87C89.2916 171.469 89.4734 171.094 89.769 170.821C90.0646 170.548 90.4523 170.396 90.8548 170.396C91.2572 170.396 91.6449 170.548 91.9405 170.821C92.2362 171.094 92.418 171.469 92.4498 171.87Z" fill="#C2C2C2"/>
<path d="M89.9404 172.73C90.0598 172.853 90.2027 172.952 90.3608 173.019C90.5188 173.086 90.6888 173.12 90.8604 173.12C91.0259 173.121 91.19 173.09 91.3434 173.028C91.4967 172.966 91.6364 172.874 91.7543 172.758C91.8722 172.642 91.9662 172.504 92.0307 172.351C92.0952 172.199 92.1291 172.036 92.1304 171.87C92.1309 171.569 92.0165 171.279 91.8104 171.06C91.1519 171.576 90.5273 172.134 89.9404 172.73Z" fill="#263238"/>
<path d="M98.6797 171.87C98.6857 172.186 98.5975 172.496 98.4265 172.762C98.2554 173.027 98.0092 173.235 97.7193 173.36C97.4293 173.485 97.1087 173.521 96.7983 173.463C96.4879 173.405 96.2018 173.256 95.9765 173.035C95.7511 172.814 95.5966 172.531 95.5328 172.222C95.469 171.912 95.4987 171.591 95.6181 171.299C95.7375 171.007 95.9412 170.756 96.2033 170.58C96.4654 170.404 96.774 170.31 97.0897 170.31C97.2967 170.308 97.5022 170.346 97.6944 170.423C97.8865 170.5 98.0615 170.614 98.2093 170.759C98.3571 170.904 98.4747 171.077 98.5554 171.268C98.6362 171.458 98.6784 171.663 98.6797 171.87Z" fill="#C2C2C2"/>
<path d="M96.1699 172.73C96.3454 172.912 96.5707 173.037 96.8173 173.091C97.064 173.145 97.3211 173.125 97.5563 173.033C97.7915 172.941 97.9942 172.781 98.1389 172.574C98.2837 172.368 98.3641 172.122 98.3699 171.87C98.3665 171.57 98.2526 171.281 98.0499 171.06C97.3862 171.574 96.7581 172.131 96.1699 172.73Z" fill="#263238"/>
<path d="M104.91 171.87C104.916 172.186 104.828 172.496 104.657 172.762C104.486 173.027 104.24 173.235 103.95 173.36C103.66 173.485 103.339 173.521 103.029 173.463C102.718 173.405 102.432 173.256 102.207 173.035C101.982 172.814 101.827 172.531 101.763 172.222C101.699 171.912 101.729 171.591 101.849 171.299C101.968 171.007 102.172 170.756 102.434 170.58C102.696 170.404 103.004 170.31 103.32 170.31C103.527 170.308 103.733 170.346 103.925 170.423C104.117 170.5 104.292 170.614 104.44 170.759C104.588 170.904 104.705 171.077 104.786 171.268C104.867 171.458 104.909 171.663 104.91 171.87Z" fill="#C2C2C2"/>
<path d="M102.37 172.73C102.49 172.853 102.633 172.951 102.791 173.018C102.949 173.085 103.119 173.12 103.29 173.12C103.456 173.123 103.622 173.092 103.776 173.031C103.931 172.969 104.071 172.878 104.19 172.762C104.309 172.645 104.404 172.507 104.469 172.354C104.535 172.201 104.569 172.036 104.57 171.87C104.567 171.57 104.453 171.281 104.25 171.06C103.588 171.576 102.961 172.134 102.37 172.73Z" fill="#263238"/>
<path d="M111.14 171.87C111.146 172.186 111.057 172.496 110.886 172.762C110.715 173.027 110.469 173.235 110.179 173.36C109.889 173.485 109.569 173.521 109.258 173.463C108.948 173.405 108.662 173.256 108.436 173.035C108.211 172.814 108.057 172.531 107.993 172.222C107.929 171.912 107.959 171.591 108.078 171.299C108.197 171.007 108.401 170.756 108.663 170.58C108.925 170.404 109.234 170.31 109.55 170.31C109.757 170.308 109.962 170.346 110.154 170.423C110.346 170.5 110.521 170.614 110.669 170.759C110.817 170.904 110.935 171.077 111.015 171.268C111.096 171.458 111.138 171.663 111.14 171.87Z" fill="#C2C2C2"/>
<path d="M108.64 172.73C108.814 172.913 109.038 173.04 109.285 173.095C109.532 173.149 109.789 173.129 110.024 173.037C110.259 172.944 110.461 172.784 110.605 172.576C110.748 172.369 110.827 172.123 110.83 171.87C110.826 171.57 110.712 171.281 110.51 171.06C109.849 171.573 109.224 172.131 108.64 172.73Z" fill="#263238"/>
<path d="M117.37 171.87C117.378 172.188 117.291 172.501 117.12 172.77C116.95 173.038 116.702 173.249 116.411 173.377C116.119 173.504 115.796 173.541 115.483 173.484C115.171 173.427 114.882 173.278 114.654 173.056C114.426 172.834 114.27 172.549 114.205 172.237C114.14 171.926 114.169 171.602 114.289 171.308C114.409 171.013 114.614 170.761 114.877 170.583C115.141 170.405 115.452 170.31 115.77 170.31C115.978 170.308 116.184 170.346 116.377 170.423C116.569 170.5 116.745 170.614 116.894 170.759C117.042 170.904 117.161 171.076 117.243 171.267C117.324 171.458 117.368 171.663 117.37 171.87Z" fill="#C2C2C2"/>
<path d="M114.87 172.73C115.044 172.913 115.269 173.04 115.515 173.095C115.762 173.149 116.019 173.129 116.254 173.037C116.49 172.944 116.692 172.784 116.835 172.576C116.979 172.369 117.057 172.123 117.06 171.87C117.057 171.57 116.943 171.281 116.74 171.06C116.082 171.576 115.457 172.134 114.87 172.73Z" fill="#263238"/>
<path d="M123.61 171.87C123.616 172.186 123.528 172.496 123.357 172.762C123.186 173.027 122.94 173.235 122.65 173.36C122.36 173.485 122.039 173.521 121.729 173.463C121.419 173.405 121.132 173.256 120.907 173.035C120.682 172.814 120.527 172.531 120.463 172.222C120.4 171.912 120.429 171.591 120.549 171.299C120.668 171.007 120.872 170.756 121.134 170.58C121.396 170.404 121.705 170.31 122.02 170.31C122.227 170.308 122.433 170.346 122.625 170.423C122.817 170.5 122.992 170.614 123.14 170.759C123.288 170.904 123.405 171.077 123.486 171.268C123.567 171.458 123.609 171.663 123.61 171.87Z" fill="#C2C2C2"/>
<path d="M121.1 172.73C121.219 172.853 121.362 172.952 121.52 173.019C121.678 173.086 121.848 173.12 122.02 173.12C122.185 173.121 122.349 173.09 122.503 173.028C122.656 172.966 122.796 172.874 122.914 172.758C123.031 172.642 123.125 172.504 123.19 172.351C123.254 172.199 123.288 172.036 123.29 171.87C123.29 171.569 123.176 171.279 122.97 171.06C122.311 171.576 121.686 172.134 121.1 172.73Z" fill="#263238"/>
<path d="M129.84 171.87C129.846 172.186 129.758 172.496 129.587 172.762C129.416 173.027 129.169 173.235 128.879 173.36C128.589 173.485 128.269 173.521 127.958 173.463C127.648 173.405 127.362 173.256 127.137 173.035C126.911 172.814 126.757 172.531 126.693 172.222C126.629 171.912 126.659 171.591 126.778 171.299C126.898 171.007 127.101 170.756 127.363 170.58C127.626 170.404 127.934 170.31 128.25 170.31C128.457 170.308 128.662 170.346 128.855 170.423C129.047 170.5 129.222 170.614 129.369 170.759C129.517 170.904 129.635 171.077 129.716 171.268C129.796 171.458 129.839 171.663 129.84 171.87Z" fill="#C2C2C2"/>
<path d="M127.37 172.73C127.546 172.912 127.771 173.037 128.018 173.091C128.264 173.145 128.521 173.125 128.756 173.033C128.992 172.941 129.194 172.781 129.339 172.574C129.484 172.368 129.564 172.122 129.57 171.87C129.567 171.57 129.453 171.281 129.25 171.06C128.588 171.576 127.961 172.134 127.37 172.73Z" fill="#263238"/>
<path d="M136.07 171.87C136.076 172.186 135.988 172.496 135.817 172.762C135.646 173.027 135.4 173.235 135.11 173.36C134.82 173.485 134.499 173.521 134.189 173.463C133.879 173.405 133.592 173.256 133.367 173.035C133.142 172.814 132.987 172.531 132.923 172.222C132.86 171.912 132.889 171.591 133.009 171.299C133.128 171.007 133.332 170.756 133.594 170.58C133.856 170.404 134.165 170.31 134.48 170.31C134.687 170.308 134.893 170.346 135.085 170.423C135.277 170.5 135.452 170.614 135.6 170.759C135.748 170.904 135.865 171.077 135.946 171.268C136.027 171.458 136.069 171.663 136.07 171.87Z" fill="#C2C2C2"/>
<path d="M133.56 172.73C133.679 172.853 133.822 172.951 133.98 173.018C134.138 173.085 134.308 173.12 134.48 173.12C134.646 173.123 134.811 173.092 134.966 173.031C135.12 172.969 135.261 172.878 135.38 172.762C135.499 172.645 135.594 172.507 135.659 172.354C135.724 172.201 135.758 172.036 135.76 171.87C135.756 171.57 135.642 171.281 135.44 171.06C134.778 171.576 134.15 172.134 133.56 172.73Z" fill="#263238"/>
<path d="M142.3 171.87C142.306 172.186 142.218 172.496 142.047 172.762C141.876 173.027 141.629 173.235 141.339 173.36C141.049 173.485 140.729 173.521 140.418 173.463C140.108 173.405 139.822 173.256 139.597 173.035C139.371 172.814 139.217 172.531 139.153 172.222C139.089 171.912 139.119 171.591 139.238 171.299C139.358 171.007 139.561 170.756 139.823 170.58C140.086 170.404 140.394 170.31 140.71 170.31C140.917 170.308 141.122 170.346 141.314 170.423C141.507 170.5 141.682 170.614 141.829 170.759C141.977 170.904 142.095 171.077 142.176 171.268C142.256 171.458 142.299 171.663 142.3 171.87Z" fill="#C2C2C2"/>
<path d="M139.8 172.73C139.974 172.913 140.199 173.04 140.445 173.095C140.692 173.149 140.949 173.129 141.184 173.037C141.419 172.944 141.621 172.784 141.765 172.576C141.908 172.369 141.987 172.123 141.99 171.87C141.986 171.57 141.873 171.281 141.67 171.06C141.011 171.576 140.387 172.134 139.8 172.73Z" fill="#263238"/>
<path d="M148.54 171.87C148.548 172.189 148.461 172.502 148.29 172.771C148.118 173.039 147.871 173.251 147.579 173.378C147.286 173.505 146.963 173.541 146.65 173.483C146.336 173.426 146.048 173.275 145.82 173.052C145.593 172.829 145.437 172.543 145.373 172.231C145.309 171.919 145.34 171.595 145.462 171.301C145.583 171.006 145.789 170.754 146.055 170.578C146.32 170.402 146.632 170.308 146.95 170.31C147.157 170.308 147.363 170.346 147.555 170.423C147.747 170.5 147.922 170.614 148.07 170.759C148.218 170.904 148.335 171.077 148.416 171.268C148.497 171.458 148.539 171.663 148.54 171.87Z" fill="#C2C2C2"/>
<path d="M146.03 172.73C146.204 172.913 146.429 173.04 146.676 173.095C146.922 173.149 147.179 173.129 147.415 173.037C147.65 172.944 147.852 172.784 147.995 172.576C148.139 172.369 148.217 172.123 148.22 171.87C148.221 171.569 148.106 171.279 147.9 171.06C147.242 171.576 146.617 172.134 146.03 172.73Z" fill="#263238"/>
<path d="M154.77 171.87C154.776 172.186 154.687 172.496 154.516 172.762C154.345 173.027 154.099 173.235 153.809 173.36C153.519 173.485 153.199 173.521 152.888 173.463C152.578 173.405 152.292 173.256 152.066 173.035C151.841 172.814 151.686 172.531 151.623 172.222C151.559 171.912 151.589 171.591 151.708 171.299C151.827 171.007 152.031 170.756 152.293 170.58C152.555 170.404 152.864 170.31 153.18 170.31C153.387 170.308 153.592 170.346 153.784 170.423C153.976 170.5 154.151 170.614 154.299 170.759C154.447 170.904 154.565 171.077 154.645 171.268C154.726 171.458 154.768 171.663 154.77 171.87Z" fill="#C2C2C2"/>
<path d="M152.26 172.73C152.435 172.912 152.66 173.037 152.907 173.091C153.154 173.145 153.411 173.125 153.646 173.033C153.881 172.941 154.084 172.781 154.229 172.574C154.374 172.368 154.454 172.122 154.46 171.87C154.456 171.57 154.342 171.281 154.14 171.06C153.476 171.574 152.848 172.131 152.26 172.73Z" fill="#263238"/>
<path d="M161 171.87C161.006 172.186 160.918 172.496 160.747 172.762C160.576 173.027 160.33 173.235 160.04 173.36C159.75 173.485 159.429 173.521 159.119 173.463C158.808 173.405 158.522 173.256 158.297 173.035C158.071 172.814 157.917 172.531 157.853 172.222C157.789 171.912 157.819 171.591 157.938 171.299C158.058 171.007 158.262 170.756 158.524 170.58C158.786 170.404 159.094 170.31 159.41 170.31C159.617 170.308 159.823 170.346 160.015 170.423C160.207 170.5 160.382 170.614 160.53 170.759C160.677 170.904 160.795 171.077 160.876 171.268C160.956 171.458 160.999 171.663 161 171.87Z" fill="#C2C2C2"/>
<path d="M158.49 172.73C158.61 172.853 158.753 172.951 158.911 173.018C159.069 173.085 159.239 173.12 159.41 173.12C159.577 173.123 159.742 173.092 159.896 173.031C160.051 172.969 160.192 172.878 160.311 172.762C160.43 172.645 160.524 172.507 160.59 172.354C160.655 172.201 160.689 172.036 160.69 171.87C160.687 171.57 160.573 171.281 160.37 171.06C159.709 171.576 159.081 172.134 158.49 172.73Z" fill="#263238"/>
<path d="M79.9803 181.78C79.9882 182.096 79.9018 182.407 79.732 182.674C79.5622 182.941 79.3167 183.151 79.027 183.277C78.7372 183.404 78.4164 183.441 78.1053 183.384C77.7943 183.328 77.5073 183.179 77.2809 182.959C77.0545 182.738 76.8991 182.455 76.8344 182.145C76.7697 181.836 76.7988 181.514 76.9179 181.221C77.037 180.928 77.2406 180.678 77.5029 180.501C77.7652 180.325 78.0741 180.23 78.3903 180.23C78.5965 180.227 78.8011 180.265 78.9926 180.342C79.1841 180.418 79.3587 180.532 79.5063 180.676C79.654 180.82 79.7718 180.991 79.8531 181.181C79.9345 181.37 79.9777 181.574 79.9803 181.78Z" fill="#C2C2C2"/>
<path d="M77.4805 182.65C77.5976 182.774 77.7387 182.872 77.8952 182.939C78.0517 183.006 78.2202 183.04 78.3905 183.04C78.5573 183.041 78.7227 183.01 78.8772 182.947C79.0318 182.885 79.1726 182.792 79.2914 182.675C79.4103 182.558 79.5049 182.419 79.57 182.265C79.635 182.112 79.6692 181.947 79.6705 181.78C79.6647 181.483 79.5509 181.199 79.3505 180.98C78.6898 181.493 78.065 182.051 77.4805 182.65Z" fill="#263238"/>
<path d="M86.2197 181.78C86.2297 182.098 86.1444 182.413 85.9747 182.682C85.8051 182.952 85.5588 183.165 85.2675 183.293C84.9761 183.422 84.653 183.461 84.3394 183.405C84.0258 183.349 83.736 183.201 83.5072 182.979C83.2784 182.758 83.121 182.473 83.0551 182.161C82.9892 181.849 83.0178 181.525 83.1373 181.23C83.2568 180.935 83.4617 180.682 83.7258 180.504C83.9899 180.326 84.3012 180.23 84.6197 180.23C85.0371 180.225 85.4396 180.385 85.7394 180.675C86.0392 180.966 86.2118 181.363 86.2197 181.78Z" fill="#C2C2C2"/>
<path d="M83.71 182.65C83.8271 182.774 83.9682 182.872 84.1247 182.939C84.2812 183.006 84.4497 183.04 84.62 183.04C84.7867 183.041 84.9521 183.01 85.1067 182.947C85.2613 182.885 85.4021 182.792 85.5209 182.675C85.6398 182.558 85.7344 182.419 85.7995 182.265C85.8645 182.112 85.8987 181.947 85.9 181.78C85.8941 181.483 85.7804 181.199 85.58 180.98C84.9215 181.496 84.2968 182.054 83.71 182.65Z" fill="#263238"/>
<path d="M92.4502 181.78C92.4602 182.099 92.3746 182.413 92.2045 182.683C92.0344 182.953 91.7876 183.166 91.4956 183.294C91.2037 183.423 90.88 183.461 90.5661 183.405C90.2522 183.348 89.9625 183.198 89.7341 182.976C89.5057 182.753 89.3491 182.467 89.2843 182.155C89.2195 181.843 89.2496 181.518 89.3706 181.223C89.4917 180.928 89.6982 180.676 89.9636 180.499C90.229 180.322 90.5412 180.228 90.8602 180.23C91.0664 180.227 91.2711 180.265 91.4626 180.342C91.6541 180.418 91.8286 180.532 91.9762 180.676C92.1239 180.82 92.2417 180.991 92.3231 181.181C92.4044 181.37 92.4476 181.574 92.4502 181.78Z" fill="#C2C2C2"/>
<path d="M89.9404 182.65C90.1151 182.834 90.3407 182.961 90.5882 183.015C90.8357 183.069 91.0938 183.048 91.3293 182.955C91.5648 182.861 91.7669 182.699 91.9097 182.49C92.0525 182.281 92.1293 182.033 92.1304 181.78C92.1294 181.482 92.015 181.196 91.8104 180.98C91.1519 181.496 90.5273 182.054 89.9404 182.65Z" fill="#263238"/>
<path d="M98.6805 181.78C98.6884 182.096 98.602 182.407 98.4322 182.674C98.2624 182.941 98.0169 183.151 97.7272 183.277C97.4374 183.404 97.1166 183.441 96.8055 183.384C96.4945 183.328 96.2075 183.179 95.9811 182.959C95.7547 182.738 95.5993 182.455 95.5346 182.145C95.4699 181.836 95.499 181.514 95.6181 181.221C95.7371 180.928 95.9408 180.678 96.2031 180.501C96.4654 180.325 96.7743 180.23 97.0905 180.23C97.2967 180.227 97.5013 180.265 97.6928 180.342C97.8843 180.418 98.0589 180.532 98.2065 180.676C98.3542 180.82 98.472 180.991 98.5534 181.181C98.6347 181.37 98.6779 181.574 98.6805 181.78Z" fill="#C2C2C2"/>
<path d="M96.1699 182.65C96.346 182.832 96.5722 182.958 96.8197 183.011C97.0673 183.065 97.3252 183.044 97.5608 182.951C97.7963 182.857 97.999 182.696 98.143 182.488C98.287 182.28 98.366 182.033 98.3699 181.78C98.3641 181.483 98.2503 181.199 98.0499 180.98C97.3862 181.493 96.7581 182.051 96.1699 182.65Z" fill="#263238"/>
<path d="M104.91 181.78C104.918 182.096 104.831 182.407 104.662 182.674C104.492 182.941 104.246 183.151 103.957 183.277C103.667 183.404 103.346 183.441 103.035 183.384C102.724 183.328 102.437 183.179 102.211 182.959C101.984 182.738 101.829 182.455 101.764 182.145C101.699 181.836 101.728 181.514 101.848 181.221C101.967 180.928 102.17 180.678 102.433 180.501C102.695 180.325 103.004 180.23 103.32 180.23C103.526 180.227 103.731 180.265 103.922 180.342C104.114 180.418 104.288 180.532 104.436 180.676C104.584 180.82 104.702 180.991 104.783 181.181C104.864 181.37 104.907 181.574 104.91 181.78Z" fill="#C2C2C2"/>
<path d="M102.37 182.65C102.49 182.773 102.633 182.871 102.791 182.938C102.949 183.005 103.119 183.039 103.29 183.04C103.457 183.041 103.622 183.01 103.777 182.947C103.931 182.885 104.072 182.792 104.191 182.675C104.31 182.558 104.405 182.419 104.47 182.265C104.535 182.112 104.569 181.947 104.57 181.78C104.564 181.483 104.451 181.199 104.25 180.98C103.588 181.496 102.961 182.054 102.37 182.65Z" fill="#263238"/>
<path d="M111.14 181.78C111.148 182.096 111.062 182.407 110.892 182.674C110.722 182.941 110.477 183.151 110.187 183.277C109.897 183.404 109.577 183.441 109.265 183.384C108.954 183.328 108.667 183.179 108.441 182.959C108.215 182.738 108.059 182.455 107.995 182.145C107.93 181.836 107.959 181.514 108.078 181.221C108.197 180.928 108.401 180.678 108.663 180.501C108.925 180.325 109.234 180.23 109.55 180.23C109.757 180.227 109.961 180.265 110.153 180.342C110.344 180.418 110.519 180.532 110.666 180.676C110.814 180.82 110.932 180.991 111.013 181.181C111.095 181.37 111.138 181.574 111.14 181.78Z" fill="#C2C2C2"/>
<path d="M108.64 182.65C108.757 182.774 108.898 182.872 109.054 182.939C109.211 183.006 109.379 183.04 109.55 183.04C109.716 183.041 109.882 183.01 110.036 182.947C110.191 182.885 110.332 182.792 110.451 182.675C110.569 182.558 110.664 182.419 110.729 182.265C110.794 182.112 110.828 181.947 110.83 181.78C110.824 181.483 110.71 181.199 110.51 180.98C109.849 181.493 109.224 182.051 108.64 182.65Z" fill="#263238"/>
<path d="M117.37 181.78C117.38 182.098 117.295 182.413 117.125 182.682C116.955 182.952 116.709 183.165 116.418 183.293C116.127 183.422 115.803 183.461 115.49 183.405C115.176 183.349 114.886 183.201 114.658 182.979C114.429 182.758 114.271 182.473 114.206 182.161C114.14 181.849 114.168 181.525 114.288 181.23C114.407 180.935 114.612 180.682 114.876 180.504C115.14 180.326 115.452 180.23 115.77 180.23C116.187 180.225 116.59 180.385 116.89 180.675C117.19 180.966 117.362 181.363 117.37 181.78Z" fill="#C2C2C2"/>
<path d="M114.87 182.65C114.987 182.774 115.128 182.872 115.285 182.939C115.441 183.006 115.61 183.04 115.78 183.04C115.947 183.041 116.112 183.01 116.267 182.947C116.421 182.885 116.562 182.792 116.681 182.675C116.8 182.558 116.895 182.419 116.96 182.265C117.025 182.112 117.059 181.947 117.06 181.78C117.054 181.483 116.941 181.199 116.74 180.98C116.082 181.496 115.457 182.054 114.87 182.65Z" fill="#263238"/>
<path d="M123.61 181.78C123.618 182.096 123.532 182.407 123.362 182.674C123.192 182.941 122.947 183.151 122.657 183.277C122.367 183.404 122.046 183.441 121.735 183.384C121.424 183.328 121.137 183.179 120.911 182.959C120.684 182.738 120.529 182.455 120.464 182.145C120.4 181.836 120.429 181.514 120.548 181.221C120.667 180.928 120.871 180.678 121.133 180.501C121.395 180.325 121.704 180.23 122.02 180.23C122.226 180.227 122.431 180.265 122.623 180.342C122.814 180.418 122.989 180.532 123.136 180.676C123.284 180.82 123.402 180.991 123.483 181.181C123.564 181.37 123.608 181.574 123.61 181.78Z" fill="#C2C2C2"/>
<path d="M121.1 182.65C121.274 182.834 121.5 182.961 121.747 183.015C121.995 183.069 122.253 183.048 122.489 182.955C122.724 182.861 122.926 182.699 123.069 182.49C123.212 182.281 123.289 182.033 123.29 181.78C123.289 181.482 123.174 181.196 122.97 180.98C122.311 181.496 121.686 182.054 121.1 182.65Z" fill="#263238"/>
<path d="M129.84 181.78C129.848 182.096 129.761 182.407 129.591 182.674C129.422 182.941 129.176 183.151 128.886 183.277C128.597 183.404 128.276 183.441 127.965 183.384C127.654 183.328 127.367 183.179 127.14 182.959C126.914 182.738 126.758 182.455 126.694 182.145C126.629 181.836 126.658 181.514 126.777 181.221C126.896 180.928 127.1 180.678 127.362 180.501C127.625 180.325 127.934 180.23 128.25 180.23C128.456 180.227 128.661 180.265 128.852 180.342C129.044 180.418 129.218 180.532 129.366 180.676C129.513 180.82 129.631 180.991 129.713 181.181C129.794 181.37 129.837 181.574 129.84 181.78Z" fill="#C2C2C2"/>
<path d="M127.37 182.65C127.546 182.832 127.772 182.958 128.02 183.011C128.268 183.065 128.525 183.044 128.761 182.951C128.997 182.857 129.199 182.696 129.343 182.488C129.487 182.28 129.566 182.033 129.57 181.78C129.564 181.483 129.451 181.199 129.25 180.98C128.588 181.496 127.961 182.054 127.37 182.65Z" fill="#263238"/>
<path d="M136.07 181.78C136.078 182.096 135.992 182.407 135.822 182.674C135.652 182.941 135.407 183.151 135.117 183.277C134.827 183.404 134.506 183.441 134.195 183.384C133.884 183.328 133.597 183.179 133.371 182.959C133.144 182.738 132.989 182.455 132.924 182.145C132.86 181.836 132.889 181.514 133.008 181.221C133.127 180.928 133.33 180.678 133.593 180.501C133.855 180.325 134.164 180.23 134.48 180.23C134.686 180.227 134.891 180.265 135.082 180.342C135.274 180.418 135.449 180.532 135.596 180.676C135.744 180.82 135.862 180.991 135.943 181.181C136.024 181.37 136.068 181.574 136.07 181.78Z" fill="#C2C2C2"/>
<path d="M133.56 182.65C133.679 182.773 133.822 182.871 133.98 182.938C134.138 183.005 134.308 183.039 134.48 183.04C134.646 183.041 134.812 183.01 134.966 182.947C135.121 182.885 135.262 182.792 135.381 182.675C135.499 182.558 135.594 182.419 135.659 182.265C135.724 182.112 135.758 181.947 135.76 181.78C135.754 181.483 135.64 181.199 135.44 180.98C134.778 181.496 134.15 182.054 133.56 182.65Z" fill="#263238"/>
<path d="M142.3 181.78C142.308 182.096 142.221 182.407 142.051 182.674C141.882 182.941 141.636 183.151 141.346 183.277C141.057 183.404 140.736 183.441 140.425 183.384C140.114 183.328 139.827 183.179 139.6 182.959C139.374 182.738 139.218 182.455 139.154 182.145C139.089 181.836 139.118 181.514 139.237 181.221C139.356 180.928 139.56 180.678 139.822 180.501C140.085 180.325 140.393 180.23 140.71 180.23C140.916 180.227 141.12 180.265 141.312 180.342C141.503 180.418 141.678 180.532 141.826 180.676C141.973 180.82 142.091 180.991 142.172 181.181C142.254 181.37 142.297 181.574 142.3 181.78Z" fill="#C2C2C2"/>
<path d="M139.8 182.65C139.917 182.774 140.058 182.872 140.215 182.939C140.371 183.006 140.54 183.04 140.71 183.04C140.877 183.041 141.042 183.01 141.197 182.947C141.351 182.885 141.492 182.792 141.611 182.675C141.73 182.558 141.824 182.419 141.889 182.265C141.954 182.112 141.988 181.947 141.99 181.78C141.984 181.483 141.87 181.199 141.67 180.98C141.011 181.496 140.387 182.054 139.8 182.65Z" fill="#263238"/>
<path d="M148.54 181.78C148.55 182.099 148.464 182.413 148.294 182.683C148.124 182.953 147.877 183.166 147.585 183.294C147.294 183.423 146.97 183.461 146.656 183.405C146.342 183.348 146.052 183.198 145.824 182.976C145.596 182.753 145.439 182.467 145.374 182.155C145.309 181.843 145.339 181.518 145.46 181.223C145.582 180.928 145.788 180.676 146.053 180.499C146.319 180.322 146.631 180.228 146.95 180.23C147.156 180.227 147.361 180.265 147.552 180.342C147.744 180.418 147.918 180.532 148.066 180.676C148.214 180.82 148.332 180.991 148.413 181.181C148.494 181.37 148.537 181.574 148.54 181.78Z" fill="#C2C2C2"/>
<path d="M146.03 182.65C146.205 182.834 146.431 182.961 146.678 183.015C146.926 183.069 147.184 183.048 147.419 182.955C147.655 182.861 147.857 182.699 148 182.49C148.142 182.281 148.219 182.033 148.22 181.78C148.219 181.482 148.105 181.196 147.9 180.98C147.242 181.496 146.617 182.054 146.03 182.65Z" fill="#263238"/>
<path d="M154.77 181.78C154.778 182.096 154.692 182.407 154.522 182.674C154.352 182.941 154.107 183.151 153.817 183.277C153.527 183.404 153.206 183.441 152.895 183.384C152.584 183.328 152.297 183.179 152.071 182.959C151.845 182.738 151.689 182.455 151.624 182.145C151.56 181.836 151.589 181.514 151.708 181.221C151.827 180.928 152.031 180.678 152.293 180.501C152.555 180.325 152.864 180.23 153.18 180.23C153.386 180.227 153.591 180.265 153.783 180.342C153.974 180.418 154.149 180.532 154.296 180.676C154.444 180.82 154.562 180.991 154.643 181.181C154.725 181.37 154.768 181.574 154.77 181.78Z" fill="#C2C2C2"/>
<path d="M152.26 182.65C152.436 182.832 152.662 182.958 152.91 183.011C153.157 183.065 153.415 183.044 153.651 182.951C153.886 182.857 154.089 182.696 154.233 182.488C154.377 182.28 154.456 182.033 154.46 181.78C154.454 181.483 154.34 181.199 154.14 180.98C153.476 181.493 152.848 182.051 152.26 182.65Z" fill="#263238"/>
<path d="M161 181.78C161.008 182.096 160.921 182.407 160.752 182.674C160.582 182.941 160.336 183.151 160.047 183.277C159.757 183.404 159.436 183.441 159.125 183.384C158.814 183.328 158.527 183.179 158.3 182.959C158.074 182.738 157.919 182.455 157.854 182.145C157.789 181.836 157.818 181.514 157.937 181.221C158.056 180.928 158.26 180.678 158.522 180.501C158.785 180.325 159.094 180.23 159.41 180.23C159.616 180.227 159.821 180.265 160.012 180.342C160.204 180.418 160.378 180.532 160.526 180.676C160.674 180.82 160.791 180.991 160.873 181.181C160.954 181.37 160.997 181.574 161 181.78Z" fill="#C2C2C2"/>
<path d="M158.49 182.65C158.61 182.773 158.753 182.871 158.911 182.938C159.069 183.005 159.239 183.039 159.41 183.04C159.577 183.041 159.742 183.01 159.897 182.947C160.052 182.885 160.192 182.792 160.311 182.675C160.43 182.558 160.525 182.419 160.59 182.265C160.655 182.112 160.689 181.947 160.69 181.78C160.684 181.483 160.571 181.199 160.37 180.98C159.709 181.496 159.081 182.054 158.49 182.65Z" fill="#263238"/>
<path d="M230.05 171.87C230.056 172.186 229.968 172.496 229.797 172.762C229.626 173.027 229.379 173.235 229.089 173.36C228.799 173.485 228.479 173.521 228.168 173.463C227.858 173.405 227.572 173.256 227.347 173.035C227.121 172.814 226.967 172.531 226.903 172.222C226.839 171.912 226.869 171.591 226.988 171.299C227.108 171.007 227.311 170.756 227.573 170.58C227.836 170.404 228.144 170.31 228.46 170.31C228.667 170.308 228.872 170.346 229.064 170.423C229.257 170.5 229.432 170.614 229.579 170.759C229.727 170.904 229.845 171.077 229.926 171.268C230.006 171.458 230.049 171.663 230.05 171.87Z" fill="#C2C2C2"/>
<path d="M227.55 172.73C227.724 172.913 227.949 173.04 228.195 173.095C228.442 173.149 228.699 173.129 228.934 173.037C229.169 172.944 229.371 172.784 229.515 172.576C229.658 172.369 229.737 172.123 229.74 171.87C229.736 171.57 229.622 171.281 229.42 171.06C228.761 171.576 228.137 172.134 227.55 172.73Z" fill="#263238"/>
<path d="M236.29 171.87C236.298 172.189 236.211 172.502 236.04 172.771C235.868 173.039 235.621 173.251 235.329 173.378C235.036 173.505 234.713 173.541 234.4 173.483C234.086 173.426 233.798 173.275 233.57 173.052C233.343 172.829 233.187 172.543 233.123 172.231C233.059 171.919 233.09 171.595 233.212 171.301C233.333 171.006 233.539 170.754 233.805 170.578C234.07 170.402 234.382 170.308 234.7 170.31C234.907 170.308 235.113 170.346 235.305 170.423C235.497 170.5 235.672 170.614 235.82 170.759C235.968 170.904 236.085 171.077 236.166 171.268C236.247 171.458 236.289 171.663 236.29 171.87Z" fill="#C2C2C2"/>
<path d="M233.78 172.73C233.954 172.913 234.179 173.04 234.426 173.095C234.672 173.149 234.929 173.129 235.165 173.037C235.4 172.944 235.602 172.784 235.745 172.576C235.889 172.369 235.967 172.123 235.97 171.87C235.971 171.569 235.856 171.279 235.65 171.06C234.992 171.576 234.367 172.134 233.78 172.73Z" fill="#263238"/>
<path d="M242.52 171.87C242.526 172.186 242.437 172.496 242.266 172.762C242.095 173.027 241.849 173.235 241.559 173.36C241.269 173.485 240.949 173.521 240.638 173.463C240.328 173.405 240.042 173.256 239.816 173.035C239.591 172.814 239.436 172.531 239.373 172.222C239.309 171.912 239.339 171.591 239.458 171.299C239.577 171.007 239.781 170.756 240.043 170.58C240.305 170.404 240.614 170.31 240.93 170.31C241.137 170.308 241.342 170.346 241.534 170.423C241.726 170.5 241.901 170.614 242.049 170.759C242.197 170.904 242.315 171.077 242.395 171.268C242.476 171.458 242.518 171.663 242.52 171.87Z" fill="#C2C2C2"/>
<path d="M240.01 172.73C240.185 172.912 240.41 173.037 240.657 173.091C240.904 173.145 241.161 173.125 241.396 173.033C241.631 172.941 241.834 172.781 241.979 172.574C242.124 172.368 242.204 172.122 242.21 171.87C242.206 171.57 242.092 171.281 241.89 171.06C241.226 171.574 240.598 172.131 240.01 172.73Z" fill="#263238"/>
<path d="M248.75 171.87C248.756 172.186 248.668 172.496 248.497 172.762C248.326 173.027 248.08 173.235 247.79 173.36C247.5 173.485 247.179 173.521 246.869 173.463C246.558 173.405 246.272 173.256 246.047 173.035C245.821 172.814 245.667 172.531 245.603 172.222C245.539 171.912 245.569 171.591 245.688 171.299C245.808 171.007 246.012 170.756 246.274 170.58C246.536 170.404 246.844 170.31 247.16 170.31C247.367 170.308 247.573 170.346 247.765 170.423C247.957 170.5 248.132 170.614 248.28 170.759C248.427 170.904 248.545 171.077 248.626 171.268C248.707 171.458 248.749 171.663 248.75 171.87Z" fill="#C2C2C2"/>
<path d="M246.24 172.73C246.36 172.853 246.503 172.951 246.661 173.018C246.819 173.085 246.989 173.12 247.16 173.12C247.327 173.123 247.492 173.092 247.646 173.031C247.801 172.969 247.942 172.878 248.061 172.762C248.18 172.645 248.274 172.507 248.34 172.354C248.405 172.201 248.439 172.036 248.44 171.87C248.437 171.57 248.323 171.281 248.12 171.06C247.459 171.576 246.831 172.134 246.24 172.73Z" fill="#263238"/>
<path d="M254.98 171.87C254.985 172.186 254.897 172.496 254.726 172.762C254.555 173.027 254.309 173.235 254.019 173.36C253.729 173.485 253.409 173.521 253.098 173.463C252.788 173.405 252.502 173.256 252.276 173.035C252.051 172.814 251.896 172.531 251.833 172.222C251.769 171.912 251.798 171.591 251.918 171.299C252.037 171.007 252.241 170.756 252.503 170.58C252.765 170.404 253.074 170.31 253.39 170.31C253.597 170.308 253.802 170.346 253.994 170.423C254.186 170.5 254.361 170.614 254.509 170.759C254.657 170.904 254.775 171.077 254.855 171.268C254.936 171.458 254.978 171.663 254.98 171.87Z" fill="#C2C2C2"/>
<path d="M252.48 172.73C252.655 172.913 252.879 173.04 253.126 173.095C253.372 173.149 253.63 173.129 253.865 173.037C254.1 172.944 254.302 172.784 254.446 172.576C254.589 172.369 254.667 172.123 254.67 171.87C254.667 171.57 254.553 171.281 254.35 171.06C253.69 171.573 253.065 172.131 252.48 172.73Z" fill="#263238"/>
<path d="M261.22 171.87C261.228 172.188 261.141 172.501 260.97 172.77C260.799 173.038 260.552 173.249 260.261 173.377C259.969 173.504 259.646 173.541 259.333 173.484C259.02 173.427 258.731 173.278 258.504 173.056C258.276 172.834 258.119 172.549 258.054 172.237C257.989 171.926 258.019 171.602 258.138 171.308C258.258 171.013 258.463 170.761 258.727 170.583C258.991 170.405 259.302 170.31 259.62 170.31C259.828 170.308 260.033 170.346 260.226 170.423C260.419 170.5 260.595 170.614 260.743 170.759C260.892 170.904 261.01 171.076 261.092 171.267C261.174 171.458 261.217 171.663 261.22 171.87Z" fill="#C2C2C2"/>
<path d="M258.71 172.73C258.884 172.913 259.109 173.04 259.355 173.095C259.602 173.149 259.859 173.129 260.094 173.037C260.329 172.944 260.532 172.784 260.675 172.576C260.819 172.369 260.897 172.123 260.9 171.87C260.897 171.57 260.783 171.281 260.58 171.06C259.921 171.576 259.297 172.134 258.71 172.73Z" fill="#263238"/>
<path d="M267.449 171.87C267.457 172.189 267.37 172.502 267.199 172.771C267.027 173.039 266.78 173.251 266.488 173.378C266.196 173.505 265.872 173.541 265.559 173.483C265.246 173.426 264.957 173.275 264.729 173.052C264.502 172.829 264.346 172.543 264.283 172.231C264.219 171.919 264.249 171.595 264.371 171.301C264.492 171.006 264.699 170.754 264.964 170.578C265.229 170.402 265.541 170.308 265.86 170.31C266.067 170.308 266.272 170.346 266.464 170.423C266.656 170.5 266.831 170.614 266.979 170.759C267.127 170.904 267.244 171.077 267.325 171.268C267.406 171.458 267.448 171.663 267.449 171.87Z" fill="#C2C2C2"/>
<path d="M264.94 172.73C265.115 172.913 265.339 173.04 265.586 173.095C265.832 173.149 266.09 173.129 266.325 173.037C266.56 172.944 266.762 172.784 266.906 172.576C267.049 172.369 267.127 172.123 267.13 171.87C267.131 171.569 267.016 171.279 266.81 171.06C266.152 171.576 265.527 172.134 264.94 172.73Z" fill="#263238"/>
<path d="M273.68 171.87C273.686 172.186 273.597 172.496 273.426 172.762C273.255 173.027 273.009 173.235 272.719 173.36C272.429 173.485 272.109 173.521 271.798 173.463C271.488 173.405 271.202 173.256 270.976 173.035C270.751 172.814 270.597 172.531 270.533 172.222C270.469 171.912 270.499 171.591 270.618 171.299C270.738 171.007 270.941 170.756 271.203 170.58C271.465 170.404 271.774 170.31 272.09 170.31C272.297 170.308 272.502 170.346 272.694 170.423C272.886 170.5 273.061 170.614 273.209 170.759C273.357 170.904 273.475 171.077 273.555 171.268C273.636 171.458 273.678 171.663 273.68 171.87Z" fill="#C2C2C2"/>
<path d="M271.17 172.73C271.345 172.912 271.571 173.037 271.817 173.091C272.064 173.145 272.321 173.125 272.556 173.033C272.791 172.941 272.994 172.781 273.139 172.574C273.284 172.368 273.364 172.122 273.37 171.87C273.367 171.57 273.253 171.281 273.05 171.06C272.386 171.574 271.758 172.131 271.17 172.73Z" fill="#263238"/>
<path d="M279.91 171.87C279.916 172.186 279.828 172.496 279.657 172.762C279.486 173.027 279.24 173.235 278.95 173.36C278.66 173.485 278.339 173.521 278.029 173.463C277.718 173.405 277.432 173.256 277.207 173.035C276.982 172.814 276.827 172.531 276.763 172.222C276.699 171.912 276.729 171.591 276.849 171.299C276.968 171.007 277.172 170.756 277.434 170.58C277.696 170.404 278.004 170.31 278.32 170.31C278.527 170.308 278.733 170.346 278.925 170.423C279.117 170.5 279.292 170.614 279.44 170.759C279.588 170.904 279.705 171.077 279.786 171.268C279.867 171.458 279.909 171.663 279.91 171.87Z" fill="#C2C2C2"/>
<path d="M277.37 172.73C277.49 172.853 277.633 172.951 277.791 173.018C277.949 173.085 278.119 173.12 278.29 173.12C278.456 173.123 278.622 173.092 278.776 173.031C278.931 172.969 279.071 172.878 279.19 172.762C279.309 172.645 279.404 172.507 279.469 172.354C279.535 172.201 279.569 172.036 279.57 171.87C279.567 171.57 279.453 171.281 279.25 171.06C278.588 171.576 277.961 172.134 277.37 172.73Z" fill="#263238"/>
<path d="M286.14 171.87C286.146 172.186 286.057 172.496 285.886 172.762C285.715 173.027 285.469 173.235 285.179 173.36C284.889 173.485 284.569 173.521 284.258 173.463C283.948 173.405 283.662 173.256 283.436 173.035C283.211 172.814 283.057 172.531 282.993 172.222C282.929 171.912 282.959 171.591 283.078 171.299C283.197 171.007 283.401 170.756 283.663 170.58C283.925 170.404 284.234 170.31 284.55 170.31C284.757 170.308 284.962 170.346 285.154 170.423C285.346 170.5 285.521 170.614 285.669 170.759C285.817 170.904 285.935 171.077 286.015 171.268C286.096 171.458 286.138 171.663 286.14 171.87Z" fill="#C2C2C2"/>
<path d="M283.64 172.73C283.814 172.913 284.038 173.04 284.285 173.095C284.532 173.149 284.789 173.129 285.024 173.037C285.259 172.944 285.461 172.784 285.605 172.576C285.748 172.369 285.827 172.123 285.83 171.87C285.826 171.57 285.712 171.281 285.51 171.06C284.849 171.573 284.224 172.131 283.64 172.73Z" fill="#263238"/>
<path d="M292.37 171.87C292.378 172.188 292.291 172.501 292.12 172.77C291.949 173.038 291.703 173.249 291.411 173.377C291.119 173.504 290.796 173.541 290.484 173.484C290.171 173.427 289.882 173.278 289.654 173.056C289.426 172.834 289.27 172.549 289.205 172.237C289.14 171.926 289.169 171.602 289.289 171.308C289.409 171.013 289.614 170.761 289.877 170.583C290.141 170.405 290.452 170.31 290.77 170.31C290.978 170.308 291.184 170.346 291.377 170.423C291.569 170.5 291.745 170.614 291.894 170.759C292.042 170.904 292.161 171.076 292.243 171.267C292.324 171.458 292.368 171.663 292.37 171.87Z" fill="#C2C2C2"/>
<path d="M289.87 172.73C290.044 172.913 290.269 173.04 290.515 173.095C290.762 173.149 291.019 173.129 291.254 173.037C291.49 172.944 291.692 172.784 291.835 172.576C291.979 172.369 292.057 172.123 292.06 171.87C292.057 171.57 291.943 171.281 291.74 171.06C291.082 171.576 290.457 172.134 289.87 172.73Z" fill="#263238"/>
<path d="M298.61 171.87C298.616 172.186 298.528 172.496 298.357 172.762C298.186 173.027 297.94 173.235 297.65 173.36C297.36 173.485 297.039 173.521 296.729 173.463C296.419 173.405 296.132 173.256 295.907 173.035C295.682 172.814 295.527 172.531 295.463 172.222C295.4 171.912 295.429 171.591 295.549 171.299C295.668 171.007 295.872 170.756 296.134 170.58C296.396 170.404 296.705 170.31 297.02 170.31C297.227 170.308 297.433 170.346 297.625 170.423C297.817 170.5 297.992 170.614 298.14 170.759C298.288 170.904 298.405 171.077 298.486 171.268C298.567 171.458 298.609 171.663 298.61 171.87Z" fill="#C2C2C2"/>
<path d="M296.1 172.73C296.219 172.853 296.362 172.952 296.52 173.019C296.678 173.086 296.848 173.12 297.02 173.12C297.185 173.121 297.349 173.09 297.503 173.028C297.656 172.966 297.796 172.874 297.913 172.758C298.031 172.642 298.125 172.504 298.19 172.351C298.254 172.199 298.288 172.036 298.29 171.87C298.29 171.569 298.176 171.279 297.97 171.06C297.311 171.576 296.686 172.134 296.1 172.73Z" fill="#263238"/>
<path d="M304.84 171.87C304.846 172.186 304.758 172.496 304.587 172.762C304.416 173.027 304.169 173.235 303.879 173.36C303.589 173.485 303.269 173.521 302.958 173.463C302.648 173.405 302.362 173.256 302.137 173.035C301.911 172.814 301.757 172.531 301.693 172.222C301.629 171.912 301.659 171.591 301.778 171.299C301.898 171.007 302.101 170.756 302.363 170.58C302.626 170.404 302.934 170.31 303.25 170.31C303.457 170.308 303.662 170.346 303.855 170.423C304.047 170.5 304.222 170.614 304.369 170.759C304.517 170.904 304.635 171.077 304.716 171.268C304.796 171.458 304.839 171.663 304.84 171.87Z" fill="#C2C2C2"/>
<path d="M302.37 172.73C302.546 172.912 302.771 173.037 303.018 173.091C303.264 173.145 303.521 173.125 303.756 173.033C303.992 172.941 304.194 172.781 304.339 172.574C304.484 172.368 304.564 172.122 304.57 171.87C304.567 171.57 304.453 171.281 304.25 171.06C303.588 171.576 302.961 172.134 302.37 172.73Z" fill="#263238"/>
<path d="M311.07 171.87C311.076 172.186 310.988 172.496 310.817 172.762C310.646 173.027 310.4 173.235 310.11 173.36C309.82 173.485 309.499 173.521 309.189 173.463C308.879 173.405 308.592 173.256 308.367 173.035C308.142 172.814 307.987 172.531 307.923 172.222C307.86 171.912 307.889 171.591 308.009 171.299C308.128 171.007 308.332 170.756 308.594 170.58C308.856 170.404 309.165 170.31 309.48 170.31C309.687 170.308 309.893 170.346 310.085 170.423C310.277 170.5 310.452 170.614 310.6 170.759C310.748 170.904 310.865 171.077 310.946 171.268C311.027 171.458 311.069 171.663 311.07 171.87Z" fill="#C2C2C2"/>
<path d="M308.56 172.73C308.679 172.853 308.822 172.951 308.98 173.018C309.138 173.085 309.308 173.12 309.48 173.12C309.646 173.123 309.811 173.092 309.966 173.031C310.12 172.969 310.261 172.878 310.38 172.762C310.499 172.645 310.594 172.507 310.659 172.354C310.724 172.201 310.758 172.036 310.76 171.87C310.756 171.57 310.642 171.281 310.44 171.06C309.778 171.576 309.15 172.134 308.56 172.73Z" fill="#263238"/>
<path d="M230.05 181.78C230.058 182.096 229.971 182.407 229.801 182.674C229.632 182.941 229.386 183.151 229.096 183.277C228.807 183.404 228.486 183.441 228.175 183.384C227.864 183.328 227.577 183.179 227.35 182.959C227.124 182.738 226.968 182.455 226.904 182.145C226.839 181.836 226.868 181.514 226.987 181.221C227.106 180.928 227.31 180.678 227.572 180.501C227.835 180.325 228.143 180.23 228.46 180.23C228.666 180.227 228.87 180.265 229.062 180.342C229.253 180.418 229.428 180.532 229.576 180.676C229.723 180.82 229.841 180.991 229.922 181.181C230.004 181.37 230.047 181.574 230.05 181.78Z" fill="#C2C2C2"/>
<path d="M227.55 182.65C227.667 182.774 227.808 182.872 227.965 182.939C228.121 183.006 228.29 183.04 228.46 183.04C228.627 183.041 228.792 183.01 228.947 182.947C229.101 182.885 229.242 182.792 229.361 182.675C229.48 182.558 229.574 182.419 229.639 182.265C229.704 182.112 229.738 181.947 229.74 181.78C229.734 181.483 229.62 181.199 229.42 180.98C228.761 181.496 228.137 182.054 227.55 182.65Z" fill="#263238"/>
<path d="M236.29 181.78C236.3 182.099 236.214 182.413 236.044 182.683C235.874 182.953 235.627 183.166 235.335 183.294C235.044 183.423 234.72 183.461 234.406 183.405C234.092 183.348 233.802 183.198 233.574 182.976C233.346 182.753 233.189 182.467 233.124 182.155C233.059 181.843 233.089 181.518 233.21 181.223C233.332 180.928 233.538 180.676 233.803 180.499C234.069 180.322 234.381 180.228 234.7 180.23C234.906 180.227 235.111 180.265 235.302 180.342C235.494 180.418 235.668 180.532 235.816 180.676C235.964 180.82 236.082 180.991 236.163 181.181C236.244 181.37 236.287 181.574 236.29 181.78Z" fill="#C2C2C2"/>
<path d="M233.78 182.65C233.955 182.834 234.181 182.961 234.428 183.015C234.676 183.069 234.934 183.048 235.169 182.955C235.405 182.861 235.607 182.699 235.75 182.49C235.892 182.281 235.969 182.033 235.97 181.78C235.969 181.482 235.855 181.196 235.65 180.98C234.992 181.496 234.367 182.054 233.78 182.65Z" fill="#263238"/>
<path d="M242.52 181.78C242.528 182.096 242.442 182.407 242.272 182.674C242.102 182.941 241.857 183.151 241.567 183.277C241.277 183.404 240.956 183.441 240.645 183.384C240.334 183.328 240.047 183.179 239.821 182.959C239.595 182.738 239.439 182.455 239.374 182.145C239.31 181.836 239.339 181.514 239.458 181.221C239.577 180.928 239.781 180.678 240.043 180.501C240.305 180.325 240.614 180.23 240.93 180.23C241.136 180.227 241.341 180.265 241.533 180.342C241.724 180.418 241.899 180.532 242.046 180.676C242.194 180.82 242.312 180.991 242.393 181.181C242.474 181.37 242.518 181.574 242.52 181.78Z" fill="#C2C2C2"/>
<path d="M240.01 182.65C240.186 182.832 240.412 182.958 240.66 183.011C240.907 183.065 241.165 183.044 241.401 182.951C241.636 182.857 241.839 182.696 241.983 182.488C242.127 182.28 242.206 182.033 242.21 181.78C242.204 181.483 242.09 181.199 241.89 180.98C241.226 181.493 240.598 182.051 240.01 182.65Z" fill="#263238"/>
<path d="M248.75 181.78C248.758 182.096 248.671 182.407 248.502 182.674C248.332 182.941 248.086 183.151 247.797 183.277C247.507 183.404 247.186 183.441 246.875 183.384C246.564 183.328 246.277 183.179 246.05 182.959C245.824 182.738 245.669 182.455 245.604 182.145C245.539 181.836 245.568 181.514 245.687 181.221C245.806 180.928 246.01 180.678 246.272 180.501C246.535 180.325 246.844 180.23 247.16 180.23C247.366 180.227 247.571 180.265 247.762 180.342C247.954 180.418 248.128 180.532 248.276 180.676C248.424 180.82 248.541 180.991 248.623 181.181C248.704 181.37 248.747 181.574 248.75 181.78Z" fill="#C2C2C2"/>
<path d="M246.24 182.65C246.36 182.773 246.503 182.871 246.661 182.938C246.819 183.005 246.989 183.039 247.16 183.04C247.327 183.041 247.492 183.01 247.647 182.947C247.802 182.885 247.942 182.792 248.061 182.675C248.18 182.558 248.275 182.419 248.34 182.265C248.405 182.112 248.439 181.947 248.44 181.78C248.434 181.483 248.321 181.199 248.12 180.98C247.459 181.496 246.831 182.054 246.24 182.65Z" fill="#263238"/>
<path d="M254.98 181.78C254.988 182.096 254.902 182.407 254.732 182.674C254.562 182.941 254.317 183.151 254.027 183.277C253.737 183.404 253.416 183.441 253.105 183.384C252.794 183.328 252.507 183.179 252.281 182.959C252.055 182.738 251.899 182.455 251.834 182.145C251.77 181.836 251.799 181.514 251.918 181.221C252.037 180.928 252.241 180.678 252.503 180.501C252.765 180.325 253.074 180.23 253.39 180.23C253.596 180.227 253.801 180.265 253.993 180.342C254.184 180.418 254.359 180.532 254.506 180.676C254.654 180.82 254.772 180.991 254.853 181.181C254.934 181.37 254.978 181.574 254.98 181.78Z" fill="#C2C2C2"/>
<path d="M252.48 182.65C252.598 182.774 252.739 182.872 252.895 182.939C253.052 183.006 253.22 183.04 253.39 183.04C253.557 183.041 253.723 183.01 253.877 182.947C254.032 182.885 254.173 182.792 254.291 182.675C254.41 182.558 254.505 182.419 254.57 182.265C254.635 182.112 254.669 181.947 254.67 181.78C254.665 181.483 254.551 181.199 254.35 180.98C253.69 181.493 253.065 182.051 252.48 182.65Z" fill="#263238"/>
<path d="M261.22 181.78C261.23 182.098 261.144 182.413 260.975 182.682C260.805 182.952 260.559 183.165 260.267 183.293C259.976 183.422 259.653 183.461 259.339 183.405C259.026 183.349 258.736 183.201 258.507 182.979C258.278 182.758 258.121 182.473 258.055 182.161C257.989 181.849 258.018 181.525 258.137 181.23C258.257 180.935 258.462 180.682 258.726 180.504C258.99 180.326 259.301 180.23 259.62 180.23C260.037 180.225 260.44 180.385 260.739 180.675C261.039 180.966 261.212 181.363 261.22 181.78Z" fill="#C2C2C2"/>
<path d="M258.71 182.65C258.827 182.774 258.968 182.872 259.125 182.939C259.281 183.006 259.45 183.04 259.62 183.04C259.787 183.041 259.952 183.01 260.107 182.947C260.261 182.885 260.402 182.792 260.521 182.675C260.64 182.558 260.734 182.419 260.799 182.265C260.865 182.112 260.899 181.947 260.9 181.78C260.894 181.483 260.78 181.199 260.58 180.98C259.921 181.496 259.297 182.054 258.71 182.65Z" fill="#263238"/>
<path d="M267.45 181.78C267.46 182.099 267.375 182.413 267.205 182.683C267.034 182.953 266.788 183.166 266.496 183.294C266.204 183.423 265.88 183.461 265.566 183.405C265.252 183.348 264.963 183.198 264.734 182.976C264.506 182.753 264.349 182.467 264.284 182.155C264.22 181.843 264.25 181.518 264.371 181.223C264.492 180.928 264.698 180.676 264.964 180.499C265.229 180.322 265.541 180.228 265.86 180.23C266.066 180.227 266.271 180.265 266.463 180.342C266.654 180.418 266.829 180.532 266.976 180.676C267.124 180.82 267.242 180.991 267.323 181.181C267.404 181.37 267.448 181.574 267.45 181.78Z" fill="#C2C2C2"/>
<path d="M264.94 182.65C265.115 182.834 265.341 182.961 265.588 183.015C265.836 183.069 266.094 183.048 266.329 182.955C266.565 182.861 266.767 182.699 266.91 182.49C267.052 182.281 267.129 182.033 267.13 181.78C267.129 181.482 267.015 181.196 266.81 180.98C266.152 181.496 265.527 182.054 264.94 182.65Z" fill="#263238"/>
<path d="M273.679 181.78C273.687 182.096 273.601 182.407 273.431 182.674C273.261 182.941 273.016 183.151 272.726 183.277C272.436 183.404 272.116 183.441 271.805 183.384C271.494 183.328 271.207 183.179 270.98 182.959C270.754 182.738 270.598 182.455 270.534 182.145C270.469 181.836 270.498 181.514 270.617 181.221C270.736 180.928 270.94 180.678 271.202 180.501C271.464 180.325 271.773 180.23 272.089 180.23C272.296 180.227 272.5 180.265 272.692 180.342C272.883 180.418 273.058 180.532 273.206 180.676C273.353 180.82 273.471 180.991 273.552 181.181C273.634 181.37 273.677 181.574 273.679 181.78Z" fill="#C2C2C2"/>
<path d="M271.17 182.65C271.346 182.832 271.572 182.958 271.82 183.011C272.067 183.065 272.325 183.044 272.561 182.951C272.796 182.857 272.999 182.696 273.143 182.488C273.287 182.28 273.366 182.033 273.37 181.78C273.364 181.483 273.25 181.199 273.05 180.98C272.386 181.493 271.758 182.051 271.17 182.65Z" fill="#263238"/>
<path d="M279.91 181.78C279.918 182.096 279.831 182.407 279.662 182.674C279.492 182.941 279.246 183.151 278.957 183.277C278.667 183.404 278.346 183.441 278.035 183.384C277.724 183.328 277.437 183.179 277.211 182.959C276.984 182.738 276.829 182.455 276.764 182.145C276.699 181.836 276.728 181.514 276.848 181.221C276.967 180.928 277.17 180.678 277.433 180.501C277.695 180.325 278.004 180.23 278.32 180.23C278.526 180.227 278.731 180.265 278.922 180.342C279.114 180.418 279.288 180.532 279.436 180.676C279.584 180.82 279.702 180.991 279.783 181.181C279.864 181.37 279.907 181.574 279.91 181.78Z" fill="#C2C2C2"/>
<path d="M277.37 182.65C277.49 182.773 277.633 182.871 277.791 182.938C277.949 183.005 278.119 183.039 278.29 183.04C278.457 183.041 278.622 183.01 278.777 182.947C278.931 182.885 279.072 182.792 279.191 182.675C279.31 182.558 279.405 182.419 279.47 182.265C279.535 182.112 279.569 181.947 279.57 181.78C279.564 181.483 279.451 181.199 279.25 180.98C278.588 181.496 277.961 182.054 277.37 182.65Z" fill="#263238"/>
<path d="M286.14 181.78C286.148 182.096 286.062 182.407 285.892 182.674C285.722 182.941 285.477 183.151 285.187 183.277C284.897 183.404 284.577 183.441 284.265 183.384C283.954 183.328 283.667 183.179 283.441 182.959C283.215 182.738 283.059 182.455 282.995 182.145C282.93 181.836 282.959 181.514 283.078 181.221C283.197 180.928 283.401 180.678 283.663 180.501C283.925 180.325 284.234 180.23 284.55 180.23C284.757 180.227 284.961 180.265 285.153 180.342C285.344 180.418 285.519 180.532 285.666 180.676C285.814 180.82 285.932 180.991 286.013 181.181C286.095 181.37 286.138 181.574 286.14 181.78Z" fill="#C2C2C2"/>
<path d="M283.64 182.65C283.757 182.774 283.898 182.872 284.054 182.939C284.211 183.006 284.379 183.04 284.55 183.04C284.716 183.041 284.882 183.01 285.036 182.947C285.191 182.885 285.332 182.792 285.451 182.675C285.569 182.558 285.664 182.419 285.729 182.265C285.794 182.112 285.828 181.947 285.83 181.78C285.824 181.483 285.71 181.199 285.51 180.98C284.849 181.493 284.224 182.051 283.64 182.65Z" fill="#263238"/>
<path d="M292.37 181.78C292.38 182.098 292.295 182.413 292.125 182.682C291.955 182.952 291.709 183.165 291.418 183.293C291.127 183.422 290.803 183.461 290.49 183.405C290.176 183.349 289.886 183.201 289.658 182.979C289.429 182.758 289.271 182.473 289.206 182.161C289.14 181.849 289.168 181.525 289.288 181.23C289.407 180.935 289.612 180.682 289.876 180.504C290.14 180.326 290.452 180.23 290.77 180.23C291.187 180.225 291.59 180.385 291.89 180.675C292.19 180.966 292.362 181.363 292.37 181.78Z" fill="#C2C2C2"/>
<path d="M289.87 182.65C289.987 182.774 290.128 182.872 290.285 182.939C290.441 183.006 290.61 183.04 290.78 183.04C290.947 183.041 291.112 183.01 291.267 182.947C291.421 182.885 291.562 182.792 291.681 182.675C291.8 182.558 291.895 182.419 291.96 182.265C292.025 182.112 292.059 181.947 292.06 181.78C292.054 181.483 291.941 181.199 291.74 180.98C291.082 181.496 290.457 182.054 289.87 182.65Z" fill="#263238"/>
<path d="M298.61 181.78C298.618 182.096 298.532 182.407 298.362 182.674C298.192 182.941 297.947 183.151 297.657 183.277C297.367 183.404 297.046 183.441 296.735 183.384C296.424 183.328 296.137 183.179 295.911 182.959C295.684 182.738 295.529 182.455 295.464 182.145C295.4 181.836 295.429 181.514 295.548 181.221C295.667 180.928 295.871 180.678 296.133 180.501C296.395 180.325 296.704 180.23 297.02 180.23C297.226 180.227 297.431 180.265 297.623 180.342C297.814 180.418 297.989 180.532 298.136 180.676C298.284 180.82 298.402 180.991 298.483 181.181C298.564 181.37 298.608 181.574 298.61 181.78Z" fill="#C2C2C2"/>
<path d="M296.1 182.65C296.274 182.834 296.5 182.961 296.747 183.015C296.995 183.069 297.253 183.048 297.488 182.955C297.724 182.861 297.926 182.699 298.069 182.49C298.212 182.281 298.289 182.033 298.29 181.78C298.289 181.482 298.174 181.196 297.97 180.98C297.311 181.496 296.686 182.054 296.1 182.65Z" fill="#263238"/>
<path d="M304.84 181.78C304.848 182.096 304.761 182.407 304.591 182.674C304.422 182.941 304.176 183.151 303.886 183.277C303.597 183.404 303.276 183.441 302.965 183.384C302.654 183.328 302.367 183.179 302.14 182.959C301.914 182.738 301.758 182.455 301.694 182.145C301.629 181.836 301.658 181.514 301.777 181.221C301.896 180.928 302.1 180.678 302.362 180.501C302.625 180.325 302.933 180.23 303.25 180.23C303.456 180.227 303.661 180.265 303.852 180.342C304.043 180.418 304.218 180.532 304.366 180.676C304.513 180.82 304.631 180.991 304.713 181.181C304.794 181.37 304.837 181.574 304.84 181.78Z" fill="#C2C2C2"/>
<path d="M302.37 182.65C302.546 182.832 302.772 182.958 303.02 183.011C303.268 183.065 303.525 183.044 303.761 182.951C303.997 182.857 304.199 182.696 304.343 182.488C304.487 182.28 304.566 182.033 304.57 181.78C304.564 181.483 304.451 181.199 304.25 180.98C303.588 181.496 302.961 182.054 302.37 182.65Z" fill="#263238"/>
<path d="M311.07 181.78C311.078 182.096 310.992 182.407 310.822 182.674C310.652 182.941 310.407 183.151 310.117 183.277C309.827 183.404 309.506 183.441 309.195 183.384C308.884 183.328 308.597 183.179 308.371 182.959C308.144 182.738 307.989 182.455 307.924 182.145C307.86 181.836 307.889 181.514 308.008 181.221C308.127 180.928 308.33 180.678 308.593 180.501C308.855 180.325 309.164 180.23 309.48 180.23C309.686 180.227 309.891 180.265 310.082 180.342C310.274 180.418 310.449 180.532 310.596 180.676C310.744 180.82 310.862 180.991 310.943 181.181C311.024 181.37 311.068 181.574 311.07 181.78Z" fill="#C2C2C2"/>
<path d="M308.56 182.65C308.679 182.773 308.822 182.871 308.98 182.938C309.138 183.005 309.308 183.039 309.48 183.04C309.646 183.041 309.812 183.01 309.966 182.947C310.121 182.885 310.262 182.792 310.381 182.675C310.499 182.558 310.594 182.419 310.659 182.265C310.724 182.112 310.758 181.947 310.76 181.78C310.754 181.483 310.64 181.199 310.44 180.98C309.778 181.496 309.15 182.054 308.56 182.65Z" fill="#263238"/>
<path d="M218.78 164.18H170.57C169.523 164.18 168.518 163.77 167.77 163.037C167.022 162.304 166.591 161.307 166.57 160.26V138.02C166.57 122.85 179.18 110.5 194.68 110.5C210.18 110.5 222.8 122.85 222.8 138.02V160.26C222.779 161.31 222.346 162.31 221.594 163.044C220.842 163.777 219.831 164.185 218.78 164.18ZM174.57 156.38H214.77V138.02C214.77 132.689 212.653 127.577 208.883 123.807C205.114 120.038 200.001 117.92 194.67 117.92C189.339 117.92 184.227 120.038 180.457 123.807C176.688 127.577 174.57 132.689 174.57 138.02V156.38Z" fill="#C2C2C2" stroke="#263238" stroke-linecap="round" stroke-linejoin="round"/>
<path d="M224.96 153.46H163.58V204.24H224.96V153.46Z" fill="url(#paint22_linear_766_5013)" stroke="#263238" stroke-linecap="round" stroke-linejoin="round"/>
<path d="M200.66 174.55C200.593 172.822 199.86 171.187 198.613 169.988C197.367 168.788 195.705 168.119 193.975 168.119C192.246 168.119 190.583 168.788 189.337 169.988C188.09 171.187 187.357 172.822 187.29 174.55C187.295 175.739 187.625 176.903 188.244 177.918C188.862 178.933 189.746 179.76 190.8 180.31L189.68 191.84H198.27L197.15 180.31C198.204 179.76 199.088 178.933 199.706 177.918C200.325 176.903 200.655 175.739 200.66 174.55Z" fill="#263238" stroke="#263238" stroke-linecap="round" stroke-linejoin="round"/>
<path d="M30.1899 358.14C30.1899 358.14 18.6699 364.62 18.6699 367.74C18.6699 370.86 25.7799 368.94 30.4399 366.74C35.0999 364.54 38.7699 362.9 38.7699 358.58C38.7699 354.26 30.1899 358.14 30.1899 358.14Z" fill="url(#paint23_linear_766_5013)" stroke="#263238" stroke-miterlimit="10"/>
<path d="M85.37 358.14C85.37 358.14 96.89 364.62 96.89 367.74C96.89 370.86 89.79 368.94 85.13 366.74C80.47 364.54 76.79 362.9 76.79 358.58C76.79 354.26 85.37 358.14 85.37 358.14Z" fill="url(#paint24_linear_766_5013)" stroke="#263238" stroke-miterlimit="10"/>
<path d="M34.8502 252.07L29.9502 359.38C30.6271 359.939 31.4104 360.355 32.2526 360.602C33.0948 360.85 33.9785 360.924 34.8502 360.82C36.374 360.594 37.7655 359.827 38.7702 358.66L55.4402 271.07H58.8702L76.5202 360.34C77.5751 360.924 78.7468 361.265 79.9502 361.34C81.6702 361.34 84.3602 359.18 84.3602 359.18L78.7202 252.18L34.8502 252.07Z" fill="#263238" stroke="#263238" stroke-miterlimit="10"/>
<path d="M52.0102 187.04L29.7002 196.15L35.5802 247.99H78.2402L86.0802 194.23L61.8102 186.56L52.0102 187.04Z" fill="url(#paint25_linear_766_5013)" stroke="#263238" stroke-miterlimit="10"/>
<path d="M78.7306 247.03H34.8506V252.07H78.7306V247.03Z" fill="#263238" stroke="#263238" stroke-miterlimit="10"/>
<path d="M34.11 251.11L26.51 254.23C26.3854 256.402 26.5502 258.581 27 260.71C27.74 263.59 28.72 269.83 29.46 271.03C30.2 272.23 33.87 274.63 34.36 273.91C34.85 273.19 37.3 252.07 37.3 252.07L34.11 251.11Z" fill="#263238" stroke="#263238" stroke-miterlimit="10"/>
<path d="M51.2598 175.87V184.62L57.6398 191.24L64.1498 184.49V175.74L51.2598 175.87Z" fill="#C2C2C2" stroke="#263238" stroke-miterlimit="10"/>
<path d="M46.7899 167.75C46.7899 167.75 45.6399 165.12 44.8699 166.75C44.0999 168.38 44.9999 170.87 46.1499 171.87C46.9992 172.484 48.0502 172.752 49.0899 172.62L48.4499 168.87L46.7899 167.75Z" fill="#C2C2C2" stroke="#263238" stroke-miterlimit="10"/>
<path d="M67.5898 167.75C67.5898 167.75 68.7398 165.12 69.5098 166.75C70.2798 168.38 69.3798 170.87 68.2298 171.87C67.384 172.483 66.3363 172.752 65.2998 172.62L65.9298 168.87L67.5898 167.75Z" fill="#C2C2C2" stroke="#263238" stroke-miterlimit="10"/>
<path d="M48.9606 150.38C48.9606 150.38 43.6006 152.63 43.6006 156.38C43.6006 160.13 44.3606 164.38 45.6006 166.01C46.8406 167.64 47.9006 168.76 47.9006 168.76L48.1506 163.38L51.8506 157.01C51.8506 157.01 57.9806 160.88 61.0406 160.88C62.7511 160.895 64.4601 160.771 66.1506 160.51L67.3006 166.88L68.9606 162.26V158.01C68.9606 158.01 72.0206 155.13 71.3806 153.26C70.7406 151.39 60.3806 145.51 54.0206 147.01C47.6606 148.51 48.9606 150.38 48.9606 150.38Z" fill="#263238" stroke="#263238" stroke-miterlimit="10"/>
<path d="M46.3701 163C46.3701 163 47.9101 172.37 49.1801 174.87C50.8836 177.649 52.9671 180.177 55.3701 182.38C56.2601 183 59.5801 182.5 60.8601 182.5C62.1401 182.5 65.8601 175 66.4801 173.63C67.1001 172.26 67.4801 160.51 67.4801 160.51L66.3701 158.38C66.3701 158.38 60.8801 159.76 56.5401 158.01C54.1843 157.166 52.077 155.746 50.4101 153.88C50.4101 153.88 50.0301 158.13 48.5001 160.63C46.9701 163.13 46.3701 163 46.3701 163Z" fill="#C2C2C2" stroke="#263238" stroke-miterlimit="10"/>
<path d="M56.2306 164C54.6865 163.193 52.9728 162.765 51.2306 162.75C49.7354 162.691 48.2475 162.989 46.8906 163.62C46.8906 163.62 46.8906 167.87 48.2906 169.5C49.6906 171.13 53.7806 170.62 54.9306 169.25C56.0806 167.88 56.2306 164 56.2306 164Z" fill="#263238" stroke="#263238" stroke-miterlimit="10"/>
<path d="M58.0205 164C59.5647 163.193 61.2784 162.765 63.0205 162.75C64.5158 162.691 66.0036 162.989 67.3605 163.62C67.3605 163.62 67.3605 167.87 65.9505 169.5C64.5405 171.13 60.4705 170.62 59.3205 169.25C58.1705 167.88 58.0205 164 58.0205 164Z" fill="#263238" stroke="#263238" stroke-miterlimit="10"/>
<path d="M56.2305 164H58.0205" stroke="#263238" stroke-miterlimit="10"/>
<path d="M54.4602 194.47L57.1502 198.79L52.7402 235.99L58.1402 243.91L62.7902 235.27L59.1202 198.31L62.3002 193.28L57.6402 191.24L54.4602 194.47Z" fill="#263238" stroke="#263238" stroke-miterlimit="10"/>
<path d="M57.6407 191.24L54.0607 197.37L47.6807 188.87L51.2607 184.62L57.6407 191.24Z" fill="url(#paint26_linear_766_5013)" stroke="#263238" stroke-miterlimit="10"/>
<path d="M57.6406 191.24L61.9806 197.99L67.2106 188.37L64.1506 184.49L57.6406 191.24Z" fill="url(#paint27_linear_766_5013)" stroke="#263238" stroke-miterlimit="10"/>
<path d="M29.7002 196.15L2.49023 231.91L26.5102 249.19L29.9502 243.19L22.5902 229.03L32.6402 219.91L29.7002 196.15Z" fill="url(#paint28_linear_766_5013)" stroke="#263238" stroke-miterlimit="10"/>
<path d="M29.9505 243.19L38.0305 242.95L44.1605 248.47C44.1507 249.176 43.8922 249.856 43.4305 250.39C42.6905 251.11 40.7305 250.63 40.7305 250.63C40.7305 250.63 39.2605 254.23 36.5605 254.23C33.8605 254.23 26.5605 249.23 26.5605 249.23L29.9505 243.19Z" fill="#C2C2C2" stroke="#263238" stroke-miterlimit="10"/>
<path d="M27.9903 239.11L23.8203 246.55" stroke="#263238" stroke-linecap="round" stroke-linejoin="round"/>
<path d="M22.5902 229.03L19.4102 220.87" stroke="#263238" stroke-linecap="round" stroke-linejoin="round"/>
<path d="M86.0802 194.23L113.53 231.91L89.5102 249.19L86.0802 243.19L93.4302 229.03L81.9102 219.67L86.0802 194.23Z" fill="url(#paint29_linear_766_5013)" stroke="#263238" stroke-miterlimit="10"/>
<path d="M86.0804 243.19L77.9903 242.95L71.8604 248.47C71.873 249.177 72.1351 249.857 72.6004 250.39C73.3304 251.11 75.2904 250.63 75.2904 250.63C75.2904 250.63 76.7603 254.23 79.4604 254.23C82.1604 254.23 89.4604 249.23 89.4604 249.23L86.0804 243.19Z" fill="#C2C2C2" stroke="#263238" stroke-miterlimit="10"/>
<path d="M88.04 239.11L92.21 246.55" stroke="#263238" stroke-linecap="round" stroke-linejoin="round"/>
<path d="M93.4307 229.03L96.6207 220.87" stroke="#263238" stroke-linecap="round" stroke-linejoin="round"/>
<path d="M48.9802 205.75H33.9502V210.87L41.4702 213.75L48.9802 210.55V205.75Z" fill="url(#paint30_linear_766_5013)" stroke="#263238" stroke-miterlimit="10"/>
<path d="M79.0505 205.75H64.0205V210.87L71.5405 213.75L79.0505 210.55V205.75Z" fill="url(#paint31_linear_766_5013)" stroke="#263238" stroke-miterlimit="10"/>
<path d="M308.03 358.14C308.03 358.14 296.51 364.62 296.51 367.74C296.51 370.86 303.62 368.94 308.27 366.74C312.92 364.54 316.61 362.9 316.61 358.58C316.61 354.26 308.03 358.14 308.03 358.14Z" fill="url(#paint32_linear_766_5013)" stroke="#263238" stroke-miterlimit="10"/>
<path d="M363.18 358.14C363.18 358.14 374.7 364.62 374.7 367.74C374.7 370.86 367.59 368.94 362.94 366.74C358.29 364.54 354.6 362.9 354.6 358.58C354.6 354.26 363.18 358.14 363.18 358.14Z" fill="url(#paint33_linear_766_5013)" stroke="#263238" stroke-miterlimit="10"/>
<path d="M312.69 252.07L307.78 359.38C308.459 359.939 309.244 360.354 310.088 360.602C310.932 360.849 311.817 360.923 312.69 360.82C314.214 360.594 315.606 359.827 316.61 358.66L333.28 271.07H336.71L354.37 360.3C355.425 360.884 356.597 361.225 357.8 361.3C359.51 361.3 362.21 359.14 362.21 359.14L356.57 252.14L312.69 252.07Z" fill="#263238" stroke="#263238" stroke-miterlimit="10"/>
<path d="M329.85 187.04L307.54 196.15L313.42 247.99H356.07L363.92 194.23L339.65 186.56L329.85 187.04Z" fill="url(#paint34_linear_766_5013)" stroke="#263238" stroke-miterlimit="10"/>
<path d="M332.3 194.47L334.99 198.79L330.58 235.99L335.97 243.91L340.63 235.27L336.95 198.31L340.14 193.28L335.48 191.24L332.3 194.47Z" fill="#263238" stroke="#263238" stroke-miterlimit="10"/>
<path d="M335.48 191.24L331.901 197.37L325.521 188.87L329.091 184.62L335.48 191.24Z" fill="url(#paint35_linear_766_5013)" stroke="#263238" stroke-miterlimit="10"/>
<path d="M335.48 191.24L339.82 197.99L345.05 188.37L341.99 184.49L335.48 191.24Z" fill="url(#paint36_linear_766_5013)" stroke="#263238" stroke-miterlimit="10"/>
<path d="M326.82 205.75H311.79V210.87L319.31 213.75L326.82 210.55V205.75Z" fill="url(#paint37_linear_766_5013)" stroke="#263238" stroke-miterlimit="10"/>
<path d="M356.89 205.75H341.86V210.87L349.37 213.75L356.89 210.55V205.75Z" fill="url(#paint38_linear_766_5013)" stroke="#263238" stroke-miterlimit="10"/>
<path d="M356.57 247.03H312.69V252.07H356.57V247.03Z" fill="#263238" stroke="#263238" stroke-miterlimit="10"/>
<path d="M311.95 251.11L304.35 254.23C304.225 256.402 304.39 258.581 304.84 260.71C305.58 263.59 306.56 269.83 307.29 271.03C308.02 272.23 311.71 274.63 312.2 273.91C312.69 273.19 315.14 252.07 315.14 252.07L311.95 251.11Z" fill="#263238" stroke="#263238" stroke-miterlimit="10"/>
<path d="M329.09 175.87V184.62L335.48 191.24L341.99 184.49V175.74L329.09 175.87Z" fill="#C2C2C2" stroke="#263238" stroke-miterlimit="10"/>
<path d="M324.63 167.75C324.63 167.75 323.48 165.12 322.71 166.75C321.94 168.38 322.84 170.87 323.99 171.87C324.836 172.483 325.883 172.752 326.92 172.62L326.28 168.87L324.63 167.75Z" fill="#C2C2C2" stroke="#263238" stroke-miterlimit="10"/>
<path d="M345.43 167.75C345.43 167.75 346.58 165.12 347.35 166.75C348.12 168.38 347.22 170.87 346.07 171.87C345.221 172.484 344.17 172.752 343.13 172.62L343.77 168.87L345.43 167.75Z" fill="#C2C2C2" stroke="#263238" stroke-miterlimit="10"/>
<path d="M326.8 150.38C326.8 150.38 321.43 152.63 321.43 156.38C321.43 160.13 322.2 164.38 323.48 166.01C324.76 167.64 325.77 168.76 325.77 168.76L326.03 163.38L329.73 157.01C329.73 157.01 335.86 160.88 338.92 160.88C340.63 160.895 342.339 160.771 344.03 160.51L345.18 166.88L346.84 162.26V158.01C346.84 158.01 349.9 155.13 349.26 153.26C348.62 151.39 338.26 145.51 331.9 147.01C325.54 148.51 326.8 150.38 326.8 150.38Z" fill="#263238" stroke="url(#paint39_linear_766_5013)" stroke-opacity="0.1" stroke-miterlimit="10"/>
<path d="M324.24 163C324.24 163 325.77 172.37 327.05 174.87C328.733 177.644 330.797 180.168 333.18 182.37C334.07 182.99 337.39 182.49 338.67 182.49C339.95 182.49 343.67 174.99 344.28 173.62C344.89 172.25 345.28 160.5 345.28 160.5L344.16 158.38C344.16 158.38 338.67 159.76 334.33 158.01C331.974 157.166 329.867 155.746 328.2 153.88C328.2 153.88 327.82 158.13 326.28 160.63C324.74 163.13 324.24 163 324.24 163Z" fill="#C2C2C2" stroke="#263238" stroke-miterlimit="10"/>
<path d="M334.07 164C332.526 163.193 330.813 162.765 329.07 162.75C327.575 162.691 326.087 162.989 324.73 163.62C324.73 163.62 324.73 167.87 326.14 169.5C327.55 171.13 331.63 170.62 332.78 169.25C333.93 167.88 334.07 164 334.07 164Z" fill="#263238" stroke="#263238" stroke-miterlimit="10"/>
<path d="M335.86 164C337.405 163.193 339.118 162.765 340.86 162.75C342.356 162.691 343.843 162.989 345.2 163.62C345.2 163.62 345.2 167.87 343.79 169.5C342.38 171.13 338.3 170.62 337.16 169.25C336.02 167.88 335.86 164 335.86 164Z" fill="#263238" stroke="#263238" stroke-miterlimit="10"/>
<path d="M334.07 164H335.86" stroke="#263238" stroke-miterlimit="10"/>
<path d="M307.78 243.19L315.87 242.95L322 248.47C321.991 249.176 321.732 249.856 321.27 250.39C320.53 251.11 318.57 250.63 318.57 250.63C318.57 250.63 317.1 254.23 314.4 254.23C311.7 254.23 304.4 249.23 304.4 249.23L307.78 243.19Z" fill="#C2C2C2" stroke="#263238" stroke-miterlimit="10"/>
<path d="M307.54 196.15L280.33 231.91L304.35 249.19L307.78 243.19L300.43 229.03L310.48 219.91L307.54 196.15Z" fill="url(#paint40_linear_766_5013)" stroke="#263238" stroke-miterlimit="10"/>
<path d="M305.82 239.11L301.66 246.55" stroke="#263238" stroke-linecap="round" stroke-linejoin="round"/>
<path d="M300.43 229.03L297.24 220.87" stroke="#263238" stroke-linecap="round" stroke-linejoin="round"/>
<path d="M363.92 243.19L355.83 242.95L349.7 248.47C349.713 249.177 349.975 249.857 350.44 250.39C351.17 251.11 353.13 250.63 353.13 250.63C353.13 250.63 354.6 254.23 357.3 254.23C360 254.23 367.35 249.23 367.35 249.23L363.92 243.19Z" fill="#C2C2C2" stroke="#263238" stroke-miterlimit="10"/>
<path d="M363.92 194.23L391.37 231.91L367.35 249.19L363.92 243.19L371.27 229.03L359.75 219.67L363.92 194.23Z" fill="url(#paint41_linear_766_5013)" stroke="#263238" stroke-miterlimit="10"/>
<path d="M365.88 239.11L370.04 246.55" stroke="#263238" stroke-linecap="round" stroke-linejoin="round"/>
<path d="M371.271 229.03L374.461 220.87" stroke="#263238" stroke-linecap="round" stroke-linejoin="round"/>
<defs>
<linearGradient id="paint0_linear_766_5013" x1="97.3894" y1="291.075" x2="426.443" y2="291.572" gradientUnits="userSpaceOnUse">
<stop stop-color="#00A1FF"/>
<stop offset="0.9999" stop-color="#009C59"/>
<stop offset="1" stop-color="#00FF8F"/>
</linearGradient>
<linearGradient id="paint1_linear_766_5013" x1="190.007" y1="52.9091" x2="263.475" y2="52.9112" gradientUnits="userSpaceOnUse">
<stop stop-color="#00A1FF"/>
<stop offset="0.9999" stop-color="#009C59"/>
<stop offset="1" stop-color="#00FF8F"/>
</linearGradient>
<linearGradient id="paint2_linear_766_5013" x1="207.446" y1="35.4852" x2="209.556" y2="35.4852" gradientUnits="userSpaceOnUse">
<stop stop-color="#00A1FF"/>
<stop offset="0.9999" stop-color="#009C59"/>
<stop offset="1" stop-color="#00FF8F"/>
</linearGradient>
<linearGradient id="paint3_linear_766_5013" x1="174.926" y1="154.42" x2="577.827" y2="154.778" gradientUnits="userSpaceOnUse">
<stop stop-color="#00A1FF"/>
<stop offset="0.9999" stop-color="#009C59"/>
<stop offset="1" stop-color="#00FF8F"/>
</linearGradient>
<linearGradient id="paint4_linear_766_5013" x1="-17.8096" y1="152.366" x2="373.469" y2="152.681" gradientUnits="userSpaceOnUse">
<stop stop-color="#00A1FF"/>
<stop offset="0.9999" stop-color="#009C59"/>
<stop offset="1" stop-color="#00FF8F"/>
</linearGradient>
<linearGradient id="paint5_linear_766_5013" x1="140.341" y1="28.6224" x2="191.745" y2="28.6234" gradientUnits="userSpaceOnUse">
<stop stop-color="#00A1FF"/>
<stop offset="0.9999" stop-color="#009C59"/>
<stop offset="1" stop-color="#00FF8F"/>
</linearGradient>
<linearGradient id="paint6_linear_766_5013" x1="267.682" y1="48.7432" x2="319.086" y2="48.7451" gradientUnits="userSpaceOnUse">
<stop stop-color="#00A1FF"/>
<stop offset="0.9999" stop-color="#009C59"/>
<stop offset="1" stop-color="#00FF8F"/>
</linearGradient>
<linearGradient id="paint7_linear_766_5013" x1="96.2634" y1="39.5675" x2="119.487" y2="39.5678" gradientUnits="userSpaceOnUse">
<stop stop-color="#00A1FF"/>
<stop offset="0.9999" stop-color="#009C59"/>
<stop offset="1" stop-color="#00FF8F"/>
</linearGradient>
<linearGradient id="paint8_linear_766_5013" x1="293.369" y1="100.442" x2="422.691" y2="100.472" gradientUnits="userSpaceOnUse">
<stop stop-color="#00A1FF"/>
<stop offset="0.9999" stop-color="#009C59"/>
<stop offset="1" stop-color="#00FF8F"/>
</linearGradient>
<linearGradient id="paint9_linear_766_5013" x1="3.13094" y1="111.19" x2="150.678" y2="111.238" gradientUnits="userSpaceOnUse">
<stop stop-color="#00A1FF"/>
<stop offset="0.9999" stop-color="#009C59"/>
<stop offset="1" stop-color="#00FF8F"/>
</linearGradient>
<linearGradient id="paint10_linear_766_5013" x1="226.033" y1="26.8689" x2="235.483" y2="26.8699" gradientUnits="userSpaceOnUse">
<stop stop-color="#00A1FF"/>
<stop offset="0.9999" stop-color="#009C59"/>
<stop offset="1" stop-color="#00FF8F"/>
</linearGradient>
<linearGradient id="paint11_linear_766_5013" x1="204.893" y1="26.8689" x2="214.343" y2="26.8699" gradientUnits="userSpaceOnUse">
<stop stop-color="#00A1FF"/>
<stop offset="0.9999" stop-color="#009C59"/>
<stop offset="1" stop-color="#00FF8F"/>
</linearGradient>
<linearGradient id="paint12_linear_766_5013" x1="160" y1="1.85263" x2="169.492" y2="1.85364" gradientUnits="userSpaceOnUse">
<stop stop-color="#00A1FF"/>
<stop offset="0.9999" stop-color="#009C59"/>
<stop offset="1" stop-color="#00FF8F"/>
</linearGradient>
<linearGradient id="paint13_linear_766_5013" x1="94.7829" y1="22.5891" x2="104.233" y2="22.5901" gradientUnits="userSpaceOnUse">
<stop stop-color="#00A1FF"/>
<stop offset="0.9999" stop-color="#009C59"/>
<stop offset="1" stop-color="#00FF8F"/>
</linearGradient>
<linearGradient id="paint14_linear_766_5013" x1="8.28061" y1="105.483" x2="17.7725" y2="105.484" gradientUnits="userSpaceOnUse">
<stop stop-color="#00A1FF"/>
<stop offset="0.9999" stop-color="#009C59"/>
<stop offset="1" stop-color="#00FF8F"/>
</linearGradient>
<linearGradient id="paint15_linear_766_5013" x1="0.490566" y1="146.283" x2="9.98251" y2="146.284" gradientUnits="userSpaceOnUse">
<stop stop-color="#00A1FF"/>
<stop offset="0.9999" stop-color="#009C59"/>
<stop offset="1" stop-color="#00FF8F"/>
</linearGradient>
<linearGradient id="paint16_linear_766_5013" x1="385.953" y1="148.269" x2="395.403" y2="148.27" gradientUnits="userSpaceOnUse">
<stop stop-color="#00A1FF"/>
<stop offset="0.9999" stop-color="#009C59"/>
<stop offset="1" stop-color="#00FF8F"/>
</linearGradient>
<linearGradient id="paint17_linear_766_5013" x1="359.933" y1="93.2087" x2="369.383" y2="93.2097" gradientUnits="userSpaceOnUse">
<stop stop-color="#00A1FF"/>
<stop offset="0.9999" stop-color="#009C59"/>
<stop offset="1" stop-color="#00FF8F"/>
</linearGradient>
<linearGradient id="paint18_linear_766_5013" x1="293.512" y1="33.8889" x2="302.962" y2="33.8899" gradientUnits="userSpaceOnUse">
<stop stop-color="#00A1FF"/>
<stop offset="0.9999" stop-color="#009C59"/>
<stop offset="1" stop-color="#00FF8F"/>
</linearGradient>
<linearGradient id="paint19_linear_766_5013" x1="153.552" y1="259.663" x2="292.514" y2="259.692" gradientUnits="userSpaceOnUse">
<stop stop-color="#00A1FF"/>
<stop offset="0.9999" stop-color="#009C59"/>
<stop offset="1" stop-color="#00FF8F"/>
</linearGradient>
<linearGradient id="paint20_linear_766_5013" x1="116.557" y1="119.713" x2="263.809" y2="119.721" gradientUnits="userSpaceOnUse">
<stop stop-color="#00A1FF"/>
<stop offset="0.9999" stop-color="#009C59"/>
<stop offset="1" stop-color="#00FF8F"/>
</linearGradient>
<linearGradient id="paint21_linear_766_5013" x1="186.945" y1="123.523" x2="323.418" y2="123.529" gradientUnits="userSpaceOnUse">
<stop stop-color="#00A1FF"/>
<stop offset="0.9999" stop-color="#009C59"/>
<stop offset="1" stop-color="#00FF8F"/>
</linearGradient>
<linearGradient id="paint22_linear_766_5013" x1="156.631" y1="163.081" x2="286.101" y2="163.098" gradientUnits="userSpaceOnUse">
<stop stop-color="#00A1FF"/>
<stop offset="0.9999" stop-color="#009C59"/>
<stop offset="1" stop-color="#00FF8F"/>
</linearGradient>
<linearGradient id="paint23_linear_766_5013" x1="16.3945" y1="358.971" x2="58.7918" y2="358.978" gradientUnits="userSpaceOnUse">
<stop stop-color="#00A1FF"/>
<stop offset="0.9999" stop-color="#009C59"/>
<stop offset="1" stop-color="#00FF8F"/>
</linearGradient>
<linearGradient id="paint24_linear_766_5013" x1="74.5146" y1="358.971" x2="116.912" y2="358.978" gradientUnits="userSpaceOnUse">
<stop stop-color="#00A1FF"/>
<stop offset="0.9999" stop-color="#009C59"/>
<stop offset="1" stop-color="#00FF8F"/>
</linearGradient>
<linearGradient id="paint25_linear_766_5013" x1="23.3176" y1="198.199" x2="142.241" y2="198.211" gradientUnits="userSpaceOnUse">
<stop stop-color="#00A1FF"/>
<stop offset="0.9999" stop-color="#009C59"/>
<stop offset="1" stop-color="#00FF8F"/>
</linearGradient>
<linearGradient id="paint26_linear_766_5013" x1="46.5531" y1="187.036" x2="67.5619" y2="187.038" gradientUnits="userSpaceOnUse">
<stop stop-color="#00A1FF"/>
<stop offset="0.9999" stop-color="#009C59"/>
<stop offset="1" stop-color="#00FF8F"/>
</linearGradient>
<linearGradient id="paint27_linear_766_5013" x1="56.5572" y1="187.048" x2="76.7434" y2="187.049" gradientUnits="userSpaceOnUse">
<stop stop-color="#00A1FF"/>
<stop offset="0.9999" stop-color="#009C59"/>
<stop offset="1" stop-color="#00FF8F"/>
</linearGradient>
<linearGradient id="paint28_linear_766_5013" x1="-0.922973" y1="206.2" x2="62.673" y2="206.203" gradientUnits="userSpaceOnUse">
<stop stop-color="#00A1FF"/>
<stop offset="0.9999" stop-color="#009C59"/>
<stop offset="1" stop-color="#00FF8F"/>
</linearGradient>
<linearGradient id="paint29_linear_766_5013" x1="78.3305" y1="204.643" x2="145.027" y2="204.648" gradientUnits="userSpaceOnUse">
<stop stop-color="#00A1FF"/>
<stop offset="0.9999" stop-color="#009C59"/>
<stop offset="1" stop-color="#00FF8F"/>
</linearGradient>
<linearGradient id="paint30_linear_766_5013" x1="32.2487" y1="207.266" x2="63.9518" y2="207.272" gradientUnits="userSpaceOnUse">
<stop stop-color="#00A1FF"/>
<stop offset="0.9999" stop-color="#009C59"/>
<stop offset="1" stop-color="#00FF8F"/>
</linearGradient>
<linearGradient id="paint31_linear_766_5013" x1="62.319" y1="207.266" x2="94.0221" y2="207.272" gradientUnits="userSpaceOnUse">
<stop stop-color="#00A1FF"/>
<stop offset="0.9999" stop-color="#009C59"/>
<stop offset="1" stop-color="#00FF8F"/>
</linearGradient>
<linearGradient id="paint32_linear_766_5013" x1="294.234" y1="358.971" x2="336.632" y2="358.978" gradientUnits="userSpaceOnUse">
<stop stop-color="#00A1FF"/>
<stop offset="0.9999" stop-color="#009C59"/>
<stop offset="1" stop-color="#00FF8F"/>
</linearGradient>
<linearGradient id="paint33_linear_766_5013" x1="352.324" y1="358.971" x2="394.721" y2="358.978" gradientUnits="userSpaceOnUse">
<stop stop-color="#00A1FF"/>
<stop offset="0.9999" stop-color="#009C59"/>
<stop offset="1" stop-color="#00FF8F"/>
</linearGradient>
<linearGradient id="paint34_linear_766_5013" x1="301.157" y1="198.199" x2="420.081" y2="198.211" gradientUnits="userSpaceOnUse">
<stop stop-color="#00A1FF"/>
<stop offset="0.9999" stop-color="#009C59"/>
<stop offset="1" stop-color="#00FF8F"/>
</linearGradient>
<linearGradient id="paint35_linear_766_5013" x1="324.393" y1="187.036" x2="345.402" y2="187.038" gradientUnits="userSpaceOnUse">
<stop stop-color="#00A1FF"/>
<stop offset="0.9999" stop-color="#009C59"/>
<stop offset="1" stop-color="#00FF8F"/>
</linearGradient>
<linearGradient id="paint36_linear_766_5013" x1="334.397" y1="187.048" x2="354.583" y2="187.049" gradientUnits="userSpaceOnUse">
<stop stop-color="#00A1FF"/>
<stop offset="0.9999" stop-color="#009C59"/>
<stop offset="1" stop-color="#00FF8F"/>
</linearGradient>
<linearGradient id="paint37_linear_766_5013" x1="310.089" y1="207.266" x2="341.792" y2="207.272" gradientUnits="userSpaceOnUse">
<stop stop-color="#00A1FF"/>
<stop offset="0.9999" stop-color="#009C59"/>
<stop offset="1" stop-color="#00FF8F"/>
</linearGradient>
<linearGradient id="paint38_linear_766_5013" x1="340.159" y1="207.266" x2="371.862" y2="207.272" gradientUnits="userSpaceOnUse">
<stop stop-color="#00A1FF"/>
<stop offset="0.9999" stop-color="#009C59"/>
<stop offset="1" stop-color="#00FF8F"/>
</linearGradient>
<linearGradient id="paint39_linear_766_5013" x1="313.369" y1="157.571" x2="383.164" y2="157.571" gradientUnits="userSpaceOnUse">
<stop stop-color="#00A1FF"/>
<stop offset="1" stop-color="#00FF8F" stop-opacity="0"/>
</linearGradient>
<linearGradient id="paint40_linear_766_5013" x1="276.917" y1="206.2" x2="340.513" y2="206.203" gradientUnits="userSpaceOnUse">
<stop stop-color="#00A1FF"/>
<stop offset="0.9999" stop-color="#009C59"/>
<stop offset="1" stop-color="#00FF8F"/>
</linearGradient>
<linearGradient id="paint41_linear_766_5013" x1="356.17" y1="204.643" x2="422.867" y2="204.648" gradientUnits="userSpaceOnUse">
<stop stop-color="#00A1FF"/>
<stop offset="0.9999" stop-color="#009C59"/>
<stop offset="1" stop-color="#00FF8F"/>
</linearGradient>
</defs>
</svg>
