<svg width="542" height="349" viewBox="0 0 542 349" fill="none" xmlns="http://www.w3.org/2000/svg">
<path opacity="0.3" d="M516.373 82.8902C516.373 82.8902 510.904 55.5294 492.673 57.3982C484.388 58.2362 478.845 62.4932 474.04 69.1302C467.875 77.6024 465.665 72.6749 456.848 75.4571C448.956 77.9711 450.167 84.784 445.305 86.0243C440.442 87.2645 436.807 81.6751 430.118 82.9153C423.43 84.1555 419.795 91.002 419.795 91.002H541.277C540.96 88.6759 539.987 86.4952 538.475 84.728C536.964 82.9608 534.981 81.6841 532.771 81.0549C524.879 78.5409 521.228 84.7589 516.373 82.8902Z" stroke="url(#paint0_linear_801_5617)" stroke-miterlimit="10"/>
<path opacity="0.3" d="M144.297 25.0934C144.297 25.0934 140.564 6.38929 128.104 7.67143C122.438 8.24965 118.656 11.1575 115.373 15.6659C111.157 21.4565 109.643 18.0878 103.617 19.99C98.2223 21.6912 99.041 26.3756 95.7663 27.2136C92.4917 28.0516 89.9538 24.2387 85.3938 25.0934C80.8338 25.9482 78.3369 30.6159 78.3369 30.6159H161.317C161.097 29.0366 160.432 27.5571 159.404 26.3578C158.376 25.1584 157.03 24.2911 155.529 23.8616C150.109 22.1185 147.621 26.3756 144.297 25.0934Z" stroke="url(#paint1_linear_801_5617)" stroke-miterlimit="10"/>
<g opacity="0.3">
<path d="M395.991 0.999707L379.127 37.2568L440.448 67.1424L457.312 30.8852L395.991 0.999707Z" stroke="url(#paint2_linear_801_5617)" stroke-miterlimit="10"/>
<path d="M403.142 8.77851C402.602 9.93705 401.635 10.8287 400.453 11.2577C399.271 11.6867 397.971 11.6178 396.838 11.0662C396.659 10.9818 396.487 10.8838 396.323 10.7729L386.638 31.614C386.825 31.6742 387.008 31.747 387.186 31.8319C388.319 32.3864 389.19 33.3781 389.609 34.5893C390.028 35.8006 389.96 37.1325 389.421 38.2929C389.38 38.3821 389.333 38.4689 389.282 38.5526L433.097 59.8965C433.097 59.8043 433.171 59.7121 433.212 59.62C433.75 58.4599 434.717 57.5664 435.899 57.1358C437.081 56.7052 438.382 56.7729 439.515 57.3238C439.693 57.4144 439.865 57.5151 440.031 57.6255L449.716 36.8096C449.528 36.7465 449.345 36.6709 449.167 36.5833C448.046 36.0246 447.185 35.0343 446.774 33.8285C446.363 32.6227 446.435 31.2994 446.973 30.1475C447.056 29.9645 447.152 29.788 447.26 29.6196L403.355 8.24219C403.295 8.42538 403.224 8.60451 403.142 8.77851ZM425.246 37.4716C424.588 38.8936 423.533 40.0837 422.214 40.891C420.895 41.6982 419.371 42.0864 417.836 42.0062C416.301 41.9261 414.824 41.3812 413.592 40.4406C412.36 39.5001 411.428 38.2063 410.915 36.7232C410.402 35.2401 410.331 33.6345 410.711 32.11C411.091 30.5854 411.904 29.2106 413.048 28.1599C414.192 27.1091 415.615 26.4296 417.136 26.2076C418.658 25.9856 420.21 26.231 421.595 26.9128C422.514 27.3623 423.337 27.9926 424.018 28.7677C424.698 29.5429 425.223 30.4478 425.562 31.4306C425.901 32.4134 426.048 33.455 425.994 34.4959C425.939 35.5367 425.685 36.5564 425.246 37.4968V37.4716Z" stroke="url(#paint3_linear_801_5617)" stroke-miterlimit="10"/>
</g>
<g opacity="0.3">
<path d="M30.9162 21.5417L14.0518 57.7988L75.3727 87.6843L92.2371 51.4272L30.9162 21.5417Z" stroke="url(#paint4_linear_801_5617)" stroke-miterlimit="10"/>
<path d="M38.0502 29.3349C37.7836 29.9093 37.409 30.4242 36.9477 30.8502C36.4864 31.2762 35.9476 31.6049 35.362 31.8174C34.7765 32.0299 34.1557 32.1221 33.5353 32.0886C32.9149 32.0552 32.307 31.8969 31.7465 31.6226C31.5677 31.5382 31.3953 31.4401 31.2307 31.3293L21.5459 52.1453C21.7302 52.2032 21.9107 52.2732 22.0862 52.3548C22.6474 52.6276 23.1504 53.0112 23.5666 53.4833C23.9827 53.9555 24.3038 54.5071 24.5114 55.1065C24.719 55.7058 24.8091 56.3413 24.7764 56.9763C24.7438 57.6114 24.5891 58.2336 24.3212 58.8074C24.2802 58.8995 24.2311 58.9833 24.182 59.0755L67.997 80.4278L68.1117 80.1512C68.3782 79.5768 68.7529 79.0619 69.2142 78.6359C69.6755 78.2099 70.2143 77.8812 70.7999 77.6687C71.3854 77.4562 72.0062 77.364 72.6266 77.3975C73.247 77.4309 73.8549 77.5892 74.4154 77.8635C74.5942 77.9479 74.7666 78.046 74.9312 78.1568L84.6242 57.3828C84.4359 57.3157 84.2558 57.2487 84.0757 57.1649C83.5118 56.8905 83.0066 56.5046 82.5891 56.0294C82.1716 55.5543 81.8501 54.9992 81.6431 54.3963C81.4362 53.7934 81.3478 53.1545 81.3831 52.5165C81.4184 51.8785 81.5767 51.2539 81.8489 50.6788C81.9315 50.4984 82.0272 50.3247 82.1354 50.1592L38.2631 28.7734C38.2078 28.9664 38.1366 29.1543 38.0502 29.3349ZM60.1542 58.028C59.4955 59.4445 58.4414 60.6294 57.1252 61.433C55.8089 62.2366 54.2895 62.6228 52.7588 62.5428C51.2282 62.4629 49.7551 61.9203 48.5256 60.9838C47.2961 60.0472 46.3653 58.7586 45.8509 57.2808C45.3365 55.803 45.2616 54.2023 45.6356 52.6809C46.0095 51.1595 46.8156 49.7857 47.952 48.7331C49.0884 47.6804 50.5041 46.9962 52.0202 46.7668C53.5363 46.5373 55.0849 46.773 56.4702 47.4441C57.3911 47.8914 58.2169 48.5199 58.9004 49.2939C59.5839 50.0679 60.1118 50.9721 60.4539 51.955C60.796 52.9378 60.9456 53.98 60.8942 55.022C60.8428 56.064 60.5913 57.0855 60.1542 58.028Z" stroke="url(#paint5_linear_801_5617)" stroke-miterlimit="10"/>
</g>
<g opacity="0.3">
<path d="M468.912 133.447L452.048 169.704L513.369 199.59L530.233 163.332L468.912 133.447Z" stroke="url(#paint6_linear_801_5617)" stroke-miterlimit="10"/>
<path d="M476.069 141.266C475.802 141.841 475.427 142.357 474.965 142.784C474.504 143.211 473.964 143.541 473.378 143.754C472.792 143.967 472.17 144.06 471.549 144.027C470.927 143.994 470.318 143.836 469.757 143.562C469.577 143.47 469.413 143.369 469.249 143.269L459.564 164.085C459.751 164.146 459.934 164.219 460.113 164.303C461.245 164.857 462.117 165.849 462.536 167.06C462.955 168.271 462.887 169.603 462.348 170.764L462.209 171.023L506.024 192.384C506.053 192.288 506.092 192.196 506.138 192.107C506.402 191.527 506.775 191.006 507.237 190.574C507.699 190.143 508.24 189.809 508.829 189.593C509.417 189.377 510.042 189.283 510.667 189.316C511.291 189.349 511.903 189.509 512.467 189.786C512.647 189.878 512.819 189.979 512.982 190.079L522.659 169.264C522.475 169.202 522.295 169.129 522.119 169.046C520.985 168.493 520.112 167.502 519.691 166.29C519.271 165.079 519.337 163.746 519.876 162.585C519.966 162.409 520.064 162.233 520.17 162.065L476.282 140.713C476.223 140.902 476.152 141.087 476.069 141.266ZM498.173 169.967C497.513 171.387 496.457 172.573 495.138 173.378C493.82 174.183 492.297 174.569 490.764 174.488C489.231 174.407 487.756 173.862 486.525 172.923C485.294 171.983 484.363 170.691 483.85 169.21C483.337 167.729 483.264 166.125 483.642 164.602C484.019 163.079 484.829 161.704 485.97 160.652C487.11 159.6 488.53 158.918 490.049 158.692C491.569 158.467 493.119 158.707 494.505 159.384C496.361 160.291 497.788 161.916 498.474 163.9C499.16 165.885 499.049 168.067 498.165 169.967H498.173Z" stroke="url(#paint7_linear_801_5617)" stroke-miterlimit="10"/>
</g>
<g opacity="0.3">
<path d="M275.989 73.7699L299.015 106.282L354.002 65.478L330.976 32.9657L275.989 73.7699Z" stroke="url(#paint8_linear_801_5617)" stroke-miterlimit="10"/>
<path d="M286.073 71.0926C286.809 72.1328 287.111 73.4296 286.913 74.6978C286.715 75.9659 286.033 77.1017 285.017 77.8553C284.859 77.9752 284.692 78.0817 284.518 78.1737L297.739 96.8444C297.882 96.7069 298.032 96.5782 298.189 96.4589C299.207 95.7053 300.475 95.3958 301.715 95.5985C302.955 95.8012 304.066 96.4994 304.804 97.5399C304.861 97.6205 304.913 97.7044 304.96 97.7913L344.256 68.6289L344.076 68.4026C343.339 67.3621 343.035 66.0647 343.231 64.7953C343.428 63.5258 344.108 62.388 345.123 61.6316C345.287 61.5143 345.459 61.4137 345.623 61.3132L332.36 42.6509C332.218 42.7879 332.067 42.9166 331.91 43.0364C330.893 43.7874 329.627 44.0952 328.389 43.8926C327.15 43.69 326.041 42.9934 325.304 41.9554C325.19 41.7974 325.086 41.6322 324.992 41.4609L285.696 70.6485C285.832 70.7873 285.958 70.9357 286.073 71.0926ZM321.276 64.9668C322.175 66.2378 322.686 67.7531 322.744 69.3213C322.802 70.8895 322.405 72.4402 321.602 73.7772C320.8 75.1143 319.628 76.1777 318.235 76.8331C316.842 77.4884 315.29 77.7063 313.776 77.4591C312.262 77.212 310.854 76.5109 309.729 75.4445C308.604 74.3781 307.813 72.9942 307.457 71.4679C307.1 69.9416 307.194 68.3414 307.726 66.8695C308.258 65.3976 309.204 64.1202 310.445 63.1987C312.108 61.9653 314.182 61.4587 316.21 61.7903C318.238 62.1219 320.054 63.2645 321.259 64.9668H321.276Z" stroke="url(#paint9_linear_801_5617)" stroke-miterlimit="10"/>
</g>
<g opacity="0.15">
<path d="M14.2759 136.355C19.4663 136.531 30.1908 131.872 30.199 131.872C30.2072 131.872 25.0496 125.57 24.673 125.218C20.3259 121.104 9.5522 115.766 3.7806 119.101C-0.386409 121.506 -1.08227 127.012 1.56202 130.833C4.20631 134.654 9.85511 136.213 14.2759 136.355Z" fill="url(#paint10_linear_801_5617)"/>
<path d="M30.4851 166.909C35.3398 165.727 43.8784 158.923 44.5579 158.378C48.3374 163.385 52.4399 168.127 56.8379 172.574C59.3922 175.188 62.0447 177.727 64.7299 180.241C63.3381 179.286 62.0856 178.431 61.8973 178.331C56.6333 175.54 44.869 173.303 40.1617 178.088C36.7642 181.532 37.5174 187.021 41.054 190.012C44.5907 193.004 50.436 192.945 54.7422 191.889C59.0483 190.834 66.4982 185.185 68.4384 183.652L71.5494 186.526C76.5678 191.085 81.5862 195.61 86.3754 200.202C88.0619 201.82 89.6501 203.479 91.2874 205.13C90.0431 204.292 88.9952 203.571 88.8314 203.454C83.5756 200.663 71.8114 198.426 67.0958 203.211C63.6984 206.647 64.4515 212.144 67.9882 215.127C71.5248 218.11 77.3701 218.069 81.6763 217.013C85.8433 215.999 92.7119 210.845 95.0205 209.052C96.6579 210.795 98.2297 212.538 99.7033 214.298C100.686 215.521 101.717 216.636 102.634 217.926L105.409 221.655C107.047 224.094 108.84 226.599 110.42 229.021C111.533 230.697 112.556 232.306 113.604 233.94C111.967 232.264 108.619 229.18 108.308 228.912C103.526 225.334 92.2289 221.303 86.8584 225.301C82.9943 228.175 82.9288 233.722 85.9825 237.225C89.0361 240.728 94.8241 241.574 99.2285 241.206C104.083 240.795 113.187 235.65 114.317 235.005C116.036 237.695 117.673 240.334 119.188 242.857C120.547 245.102 121.807 247.256 122.994 249.309L126.858 247.742C125.508 245.505 124.067 243.167 122.503 240.703C120.776 237.963 118.876 235.063 116.895 232.105C119.32 229.746 121.608 227.245 123.748 224.613C128.258 226.826 137.935 227.622 139.179 227.714C139.179 230.932 139.106 234.058 139.008 237.016C138.953 239.044 138.879 240.999 138.786 242.882L142.88 241.206C142.88 239.865 142.929 238.507 142.937 237.1C142.978 233.831 142.937 230.337 142.937 226.75C144.19 226.532 154.448 224.63 158.492 221.814C162.143 219.25 166.089 214.951 166.31 210.158C166.531 205.364 163.035 201.216 158.271 201.485C151.648 201.853 145.369 212.278 143.87 218.144C143.78 218.488 143.224 222.334 142.921 224.798C142.921 223.331 142.872 221.915 142.822 220.407C142.741 217.423 142.577 214.448 142.405 211.247C142.274 209.705 142.143 208.155 142.004 206.58C141.865 205.004 141.603 203.378 141.406 201.761C140.866 198.024 140.154 194.261 139.343 190.49C141.897 190.406 150.944 190.004 154.947 188.026C158.95 186.049 163.477 182.42 164.403 177.719C165.328 173.018 162.495 168.367 157.739 167.898C151.14 167.235 143.396 176.571 141.038 182.144C140.89 182.487 139.638 186.677 138.999 188.99C138.492 186.727 138.001 184.465 137.419 182.185C135.782 175.624 133.85 169.037 131.992 162.451C131.418 160.431 130.878 158.42 130.354 156.4C131.263 156.4 142.028 156.132 146.515 153.886C150.502 151.925 155.045 148.288 155.97 143.587C156.895 138.886 154.063 134.235 149.306 133.766C142.708 133.104 134.955 142.439 132.606 148.012C132.425 148.431 130.633 154.464 130.256 156.015C129.036 151.573 127.857 147.14 126.875 142.716C125.519 136.75 124.543 130.701 123.952 124.606C124.37 124.606 135.618 124.397 140.211 122.092C144.19 120.132 148.733 116.495 149.658 111.793C150.583 107.092 147.751 102.441 142.994 101.964C136.396 101.31 128.651 110.645 126.294 116.21C126.114 116.654 124.19 123.132 123.919 124.338C123.919 123.986 123.813 123.618 123.788 123.266C123.357 117.123 123.461 110.953 124.1 104.83C124.411 101.478 124.918 98.2429 125.426 95.1256C127.53 95.3099 137.125 96.0306 141.48 94.4552C145.647 92.9468 150.559 89.8462 151.975 85.2791C153.391 80.712 151.083 75.7678 146.408 74.7622C139.916 73.3711 131.214 81.7762 128.283 87.0389C128.119 87.3238 126.809 90.3909 125.892 92.687C126.154 91.2875 126.4 89.8294 126.711 88.497C127.743 83.469 128.987 78.9354 130.125 74.9298C130.788 72.6504 131.435 70.6057 132.057 68.7034C134.202 67.7816 142.822 63.9604 145.917 60.5748C149.012 57.1893 151.902 52.1948 151.107 47.4685C150.313 42.7422 146.04 39.4572 141.431 40.7645C135.045 42.5914 131.107 54.1725 130.87 60.2145C130.87 60.7341 131.451 68.9632 131.558 68.9129L131.689 68.8627C131.05 70.6811 130.395 72.642 129.716 74.7957C128.488 78.7846 127.145 83.3098 125.999 88.3294C124.71 93.7276 123.729 99.1977 123.06 104.712C122.284 110.882 122.046 117.111 122.348 123.324V123.551C121.66 121.69 119.572 116.553 119.368 116.176C116.486 110.88 107.906 102.374 101.357 103.698C96.6743 104.645 94.341 109.657 95.6837 114.148C97.0263 118.64 101.922 121.891 106.081 123.442C110.772 125.193 121.554 124.347 122.413 124.28C122.876 130.597 123.748 136.877 125.025 143.076C125.753 146.688 126.588 150.308 127.481 153.92C126.834 152.336 126.244 150.92 126.138 150.727C123.256 145.431 114.677 136.925 108.127 138.249C103.445 139.204 101.103 144.207 102.446 148.699C103.788 153.191 108.692 156.442 112.851 157.992C117.01 159.543 126.277 159.04 128.709 158.83C129.069 160.213 129.405 161.596 129.765 163.02C131.484 169.657 133.236 176.261 134.759 182.806C135.291 185.11 135.741 187.398 136.191 189.686C135.618 188.269 135.127 187.088 135.029 186.92C132.147 181.616 123.567 173.11 117.018 174.434C112.335 175.389 109.994 180.4 111.337 184.892C112.679 189.384 117.583 192.635 121.742 194.186C125.761 195.686 134.267 195.275 137.166 195.082C137.558 197.437 137.984 199.8 138.246 202.105C138.402 203.68 138.655 205.188 138.729 206.781C138.803 208.373 138.934 209.915 139.032 211.457C139.122 214.44 139.229 217.515 139.245 220.432C139.245 222.451 139.245 224.387 139.245 226.298C138.737 224.002 137.608 219.518 137.518 219.158C135.527 214.223 132.33 209.894 128.234 206.588C128.039 206.029 127.792 205.49 127.497 204.979C125.139 200.948 119.949 199.364 116.109 202.281C110.788 206.328 111.197 218.571 113.08 224.312C113.195 224.647 114.816 228.183 115.872 230.396C115.053 229.197 114.276 228.016 113.416 226.784C111.779 224.345 110.002 221.957 108.136 219.384L105.287 215.714C104.353 214.474 103.224 213.275 102.184 212.035C99.7279 209.219 97.1 206.487 94.3902 203.797C96.4778 202.289 103.805 196.842 106.081 192.903C108.357 188.965 110.174 183.417 108.414 178.976C106.654 174.534 101.783 172.272 97.5584 174.543C91.6968 177.719 90.2723 189.878 91.3038 195.845C91.3693 196.222 92.5809 200.42 93.2932 202.716C91.6558 201.107 90.0185 199.498 88.3157 197.931C83.4037 193.398 78.2461 188.973 73.1458 184.523C71.5821 183.166 70.043 181.792 68.4957 180.426C69.2407 179.898 78.0905 173.604 80.6366 169.23C82.9043 165.342 84.7299 159.735 82.9698 155.294C81.2096 150.853 76.3386 148.59 72.1143 150.861C66.2526 154.045 64.8199 166.205 65.8596 172.171C65.9333 172.624 67.6853 178.657 68.2092 180.174C64.8036 177.157 61.4307 174.115 58.2297 170.956C53.8832 166.746 49.806 162.253 46.0233 157.506C46.3754 157.255 55.6345 150.735 58.246 146.252C60.5137 142.364 62.3394 136.766 60.5792 132.324C58.8191 127.883 53.948 125.62 49.7319 127.891C43.8621 131.067 42.4376 143.227 43.4691 149.193C43.551 149.663 45.4421 156.157 45.8678 157.314C45.6468 157.037 45.393 156.777 45.1801 156.476C41.5131 151.682 38.2694 146.564 35.4871 141.182C33.9235 138.19 32.5972 135.241 31.3938 132.341C33.2358 131.31 41.6271 126.475 44.4106 122.721C47.0794 119.109 49.5027 113.746 48.2256 109.137C46.9484 104.528 42.3557 101.712 37.9185 103.514C31.7458 106.028 29.0196 117.936 29.4044 123.986C29.4044 124.313 30.002 127.632 30.4605 130.045C29.9202 128.729 29.3471 127.38 28.8232 126.106C26.973 121.33 25.5485 116.888 24.3614 112.858C23.6901 110.587 23.1252 108.517 22.6177 106.581C23.9112 104.595 29.036 96.525 29.7974 91.9663C30.5587 87.4076 30.2722 81.6086 27.063 78.1142C23.8539 74.6197 18.5162 74.2929 15.3807 77.9801C11.0335 83.1087 13.9807 94.9831 17.018 100.17C17.28 100.614 22.2165 107.134 22.282 107.034L22.3639 106.916C22.8142 108.793 23.3217 110.805 23.9112 112.983C25.0409 117.006 26.3672 121.531 28.1109 126.391C29.94 131.624 32.0695 136.742 34.4883 141.718C37.1649 147.303 40.3238 152.632 43.9276 157.64L44.0667 157.816C42.4867 156.652 37.9759 153.551 37.5993 153.35C32.3434 150.559 20.5792 148.322 15.8719 153.107C12.4744 156.551 13.2194 162.04 16.7642 165.032C20.309 168.023 26.1789 167.998 30.4851 166.909Z" fill="url(#paint11_linear_801_5617)"/>
<path d="M124.64 94.1954C124.763 94.1954 123.748 86.0333 123.625 85.5305C122.209 79.6645 116.101 69.1057 109.487 68.628C104.722 68.2761 101.177 72.4828 101.3 77.1673C101.423 81.8517 105.32 86.3266 108.93 88.9495C113.179 92.025 124.632 94.1954 124.64 94.1954Z" fill="url(#paint12_linear_801_5617)"/>
</g>
<g opacity="0.15">
<path d="M295.086 223.533C301.095 223.734 313.506 218.345 313.523 218.337C313.539 218.329 307.563 211.046 307.129 210.636C302.086 205.868 289.618 199.692 282.929 203.555C278.107 206.337 277.305 212.706 280.367 217.147C283.428 221.588 289.961 223.365 295.086 223.533Z" fill="url(#paint13_linear_801_5617)"/>
<path d="M416.576 346.92L417.051 347.758H422.479C421.816 346.677 421.128 345.587 420.424 344.464C418.418 341.288 416.216 337.928 413.924 334.509C416.73 331.778 419.379 328.882 421.857 325.836C427.08 328.392 438.279 329.313 439.728 329.422C439.728 333.151 439.638 336.772 439.532 340.191C439.458 342.545 439.368 344.8 439.27 346.978L444.01 345.051C444.01 343.501 444.067 341.925 444.083 340.283C444.083 336.503 444.083 332.464 444.026 328.308C445.483 328.048 457.354 325.861 462.037 322.593C466.261 319.626 470.837 314.64 471.091 309.101C471.345 303.562 467.309 298.743 461.775 299.045C454.112 299.472 446.842 311.548 445.107 318.319C445 318.721 444.362 323.196 444.001 326.02C444.001 324.344 443.944 322.668 443.887 320.933C443.797 317.481 443.609 314.037 443.412 310.333C443.254 308.551 443.098 306.749 442.945 304.928C442.831 303.118 442.479 301.224 442.25 299.347C441.627 295.022 440.8 290.665 439.867 286.299C442.814 286.207 453.302 285.729 457.935 283.441C462.569 281.154 467.808 276.955 468.881 271.517C469.953 266.078 466.67 260.69 461.169 260.137C453.523 259.374 444.55 270.193 441.824 276.62C441.652 277.022 440.186 281.874 439.458 284.547C438.877 281.933 438.312 279.31 437.64 276.679C435.7 269.078 433.506 261.444 431.353 253.818C430.69 251.488 430.06 249.15 429.421 246.821C430.469 246.821 442.937 246.511 448.128 243.946C452.745 241.675 458.009 237.46 459.073 232.022C460.137 226.583 456.871 221.195 451.361 220.642C443.715 219.879 434.751 230.698 432.024 237.125C431.82 237.611 429.74 244.592 429.298 246.393C427.89 241.248 426.531 236.111 425.393 230.991C423.82 224.09 422.688 217.092 422.004 210.041C422.487 210.041 435.512 209.798 440.833 207.175C445.451 204.896 450.706 200.68 451.779 195.242C452.851 189.803 449.577 184.415 444.067 183.87C436.421 183.099 427.456 193.926 424.722 200.354C424.509 200.856 422.266 208.365 421.971 209.756C421.971 209.345 421.857 208.918 421.824 208.516C421.324 201.421 421.445 194.295 422.184 187.222C422.544 183.309 423.101 179.588 423.723 175.985C426.179 176.194 437.264 177.024 442.307 175.205C447.137 173.462 452.819 169.867 454.456 164.579C456.093 159.292 453.433 153.576 448.013 152.403C440.498 150.786 430.428 160.523 427.022 166.649C426.842 166.984 425.319 170.563 424.255 173.194C424.558 171.568 424.845 169.892 425.164 168.342C426.359 162.476 427.808 157.272 429.118 152.63C429.888 149.998 430.633 147.602 431.361 145.423C433.817 144.358 443.821 139.925 447.407 136.012C450.993 132.099 454.341 126.308 453.416 120.844C452.491 115.38 447.546 111.559 442.217 113.076C434.849 115.188 430.256 128.579 429.986 135.593C429.986 136.196 430.649 145.724 430.805 145.649L430.96 145.59C430.223 147.694 429.462 149.965 428.668 152.462C427.252 157.079 425.696 162.317 424.37 168.133C422.879 174.381 421.741 180.713 420.964 187.096C420.07 194.242 419.796 201.455 420.146 208.65C420.146 208.734 420.146 208.826 420.146 208.91C419.327 206.756 416.928 200.806 416.691 200.37C413.359 194.236 403.387 184.39 395.856 185.923C390.428 187.029 387.726 192.828 389.306 198.024C390.886 203.22 396.535 206.991 401.341 208.784C406.769 210.82 419.261 209.831 420.252 209.748C420.789 217.071 421.801 224.35 423.281 231.536C424.1 235.726 425.09 239.916 426.122 244.106C425.369 242.262 424.689 240.62 424.575 240.402C421.234 234.267 411.271 224.421 403.731 225.955C398.303 227.061 395.602 232.86 397.182 238.055C398.762 243.251 404.411 247.022 409.225 248.815C414.038 250.608 424.779 250.022 427.595 249.821C428.005 251.421 428.414 253.03 428.807 254.631C430.805 262.307 432.835 269.958 434.595 277.533C435.217 280.198 435.733 282.846 436.232 285.494C435.569 283.869 434.996 282.494 434.882 282.293C431.55 276.159 421.586 266.313 414.046 267.846C408.619 268.952 405.917 274.751 407.497 279.947C409.077 285.142 414.726 288.913 419.54 290.707C424.198 292.45 434.046 291.972 437.403 291.746C437.861 294.478 438.32 297.21 438.647 299.874C438.828 301.701 439.122 303.444 439.212 305.296C439.302 307.148 439.45 308.925 439.564 310.71C439.663 314.162 439.794 317.724 439.81 321.101C439.81 323.439 439.81 325.676 439.81 327.931C439.22 325.266 437.96 320.079 437.812 319.66C435.501 313.953 431.801 308.948 427.063 305.12C426.832 304.475 426.544 303.852 426.204 303.26C423.478 298.592 417.46 296.757 413.023 300.134C406.859 304.819 407.292 318.998 409.511 325.643C409.642 326.037 411.517 330.126 412.786 332.691C411.836 331.299 410.936 329.934 409.953 328.501C408.013 325.676 405.999 322.911 403.838 319.928L400.563 315.679C399.491 314.238 398.181 312.855 396.977 311.422C394.128 308.162 391.091 304.995 387.972 301.886C390.387 300.143 398.877 293.824 401.505 289.316C404.132 284.807 406.245 278.329 404.206 273.184C402.168 268.039 396.535 265.399 391.64 268.056C384.853 271.734 383.199 285.813 384.394 292.726C384.468 293.154 385.876 298.014 386.695 300.671C384.795 298.81 382.913 296.95 380.964 295.131C375.233 289.886 369.315 284.757 363.404 279.62C361.594 278.045 359.81 276.461 358.017 274.869C358.885 274.257 369.126 266.975 372.082 261.913C374.701 257.405 376.822 250.919 374.775 245.782C372.728 240.645 367.104 237.997 362.217 240.645C355.43 244.332 353.768 258.402 354.963 265.315C355.053 265.835 357.084 272.857 357.689 274.584C353.743 271.089 349.838 267.57 346.13 263.949C341.098 259.073 336.378 253.869 332 248.371C332.409 248.086 343.134 240.536 346.154 235.348C348.782 230.84 350.895 224.362 348.856 219.217C346.818 214.072 341.177 211.432 336.289 214.088C329.503 217.767 327.849 231.846 329.044 238.751C329.134 239.295 331.328 246.821 331.82 248.153C331.566 247.835 331.271 247.533 331.001 247.206C326.699 241.553 322.899 235.518 319.646 229.172C317.837 225.703 316.298 222.292 314.873 218.932C317.01 217.734 326.727 212.153 329.953 207.795C333.039 203.605 335.839 197.404 334.366 192.066C332.892 186.728 327.571 183.46 322.429 185.546C315.283 188.446 312.131 202.247 312.605 209.253C312.605 209.639 313.301 213.443 313.825 216.276C313.203 214.75 312.532 213.183 311.967 211.709C309.83 206.186 308.201 200.99 306.801 196.373C306.023 193.742 305.368 191.345 304.787 189.099C306.285 186.803 312.221 177.476 313.097 172.18C313.956 167.01 313.645 160.18 309.937 156.141C306.228 152.102 300.031 151.716 296.404 155.99C291.369 161.931 294.767 175.675 298.336 181.675C298.647 182.194 304.353 189.745 304.435 189.627L304.525 189.493C305.049 191.664 305.63 193.993 306.326 196.516C307.628 201.166 309.151 206.421 311.181 212.01C313.297 218.066 315.757 223.989 318.549 229.751C321.65 236.216 325.308 242.386 329.478 248.187L329.642 248.388C327.816 247.039 322.585 243.452 322.159 243.217C316.068 239.983 302.446 237.402 296.993 242.932C293.064 246.921 293.932 253.282 298.025 256.743C302.118 260.204 308.889 260.137 313.874 258.921C319.49 257.547 329.38 249.703 330.166 249.041C334.551 254.841 339.309 260.334 344.411 265.483C347.366 268.5 350.436 271.441 353.547 274.357C351.91 273.243 350.485 272.262 350.272 272.145C344.181 268.91 330.567 266.329 325.107 271.86C321.177 275.841 322.045 282.209 326.146 285.662C330.248 289.115 337.002 289.064 341.987 287.841C346.973 286.617 355.602 280.073 357.845 278.304C359.057 279.411 360.244 280.525 361.455 281.656C367.26 286.936 373.072 292.173 378.647 297.495C380.604 299.363 382.462 301.282 384.329 303.201C382.888 302.212 381.676 301.391 381.48 301.282C375.389 298.056 361.766 295.467 356.314 300.997C352.376 304.986 353.252 311.347 357.346 314.808C361.439 318.269 368.209 318.202 373.195 316.986C378.017 315.805 385.974 309.847 388.643 307.768C390.502 309.788 392.36 311.808 394.071 313.852C395.209 315.269 396.396 316.559 397.46 318.042L400.669 322.358C402.618 325.182 404.64 328.082 406.474 330.889C407.759 332.825 408.93 334.693 410.158 336.579C408.234 334.693 404.386 331.073 404.034 330.813C398.492 326.674 385.409 322.006 379.196 326.623C374.718 329.975 374.636 336.386 378.181 340.434C381.725 344.481 388.414 345.462 393.514 345.043C399.139 344.573 409.675 338.615 410.985 337.861C412.925 340.953 414.824 343.978 416.576 346.92Z" fill="url(#paint14_linear_801_5617)"/>
<path d="M422.872 174.702C423.011 174.702 421.833 165.25 421.693 164.646C420.056 157.825 412.983 145.632 405.32 145.079C399.794 144.677 395.693 149.537 395.856 154.967C396.02 160.398 400.514 165.568 404.69 168.61C409.602 172.188 422.864 174.702 422.872 174.702Z" fill="url(#paint15_linear_801_5617)"/>
</g>
<path d="M114.759 249.694H19.9082V268.692H114.759V249.694Z" fill="white" stroke="#263238" stroke-linecap="round" stroke-linejoin="round"/>
<path d="M141.022 229.733H46.1709V249.695H141.022V229.733Z" fill="white" stroke="#263238" stroke-linecap="round" stroke-linejoin="round"/>
<path d="M167.293 209.764H72.4424V229.725H167.293V209.764Z" fill="white" stroke="#263238" stroke-linecap="round" stroke-linejoin="round"/>
<path d="M193.556 189.803H98.7051V209.764H193.556V189.803Z" fill="white" stroke="#263238" stroke-linecap="round" stroke-linejoin="round"/>
<path d="M220.801 347.724V189.803H193.564V209.764H167.293V229.733H141.03V249.695H114.759V347.724H220.801Z" fill="#263238" stroke="#263238" stroke-linecap="round" stroke-linejoin="round"/>
<path d="M220.801 328.718H125.95V347.715H220.801V328.718Z" fill="white" stroke="#263238" stroke-linecap="round" stroke-linejoin="round"/>
<path d="M99.6873 328.718H194.538V308.757H99.6873V328.718Z" fill="white" stroke="#263238" stroke-linecap="round" stroke-linejoin="round"/>
<path d="M73.4159 308.757H168.267V288.787H73.4159V308.757Z" fill="white" stroke="#263238" stroke-linecap="round" stroke-linejoin="round"/>
<path d="M47.1454 288.787H141.996V268.826H47.1454V288.787Z" fill="white" stroke="#263238" stroke-linecap="round" stroke-linejoin="round"/>
<path d="M19.9082 347.724V268.826H47.1452V288.787H73.4081V308.757H99.6791V328.718H125.95V347.724H19.9082Z" fill="#263238" stroke="#263238" stroke-linecap="round" stroke-linejoin="round"/>
<path d="M505.541 227.756L499.368 248.446L485.68 237.678C485.474 236.335 485.201 235.004 484.862 233.689C484.592 233.036 482.962 231.091 482.594 230.337C482.226 229.583 481.693 230.245 481.693 230.806C481.693 231.368 482.962 233.22 482.962 233.22L482.324 233.865L477.248 231.393C477.189 231.365 477.125 231.349 477.06 231.347C476.995 231.344 476.93 231.355 476.869 231.379C476.808 231.402 476.753 231.437 476.705 231.483C476.658 231.529 476.62 231.584 476.593 231.644C476.545 231.747 476.533 231.863 476.56 231.973C476.587 232.084 476.651 232.181 476.741 232.248L479.516 234.427L479.156 235.164L474.53 233.22C474.472 233.196 474.409 233.184 474.346 233.186C474.283 233.187 474.221 233.202 474.164 233.228C474.106 233.255 474.055 233.293 474.012 233.341C473.97 233.388 473.937 233.444 473.916 233.505C473.885 233.607 473.888 233.717 473.925 233.818C473.962 233.918 474.031 234.003 474.121 234.058L478.337 236.572L475.586 237.125C475.522 237.138 475.461 237.165 475.408 237.204C475.355 237.243 475.31 237.293 475.277 237.351C475.244 237.408 475.223 237.472 475.216 237.539C475.208 237.606 475.215 237.673 475.234 237.737C475.266 237.831 475.326 237.913 475.405 237.972C475.484 238.03 475.579 238.062 475.676 238.064H478.517L476.061 238.985C476.061 238.985 476.38 239.714 476.88 239.689L479.786 239.547L484.051 239.823C484.051 239.823 497.911 254.698 498.37 255.15C498.828 255.603 501.546 256.617 502.086 256.064C502.627 255.511 508.709 247.985 508.709 247.985L507.801 228.502C507.801 228.502 506.9 226.658 505.541 227.756Z" fill="white" stroke="#263238" stroke-linecap="round" stroke-linejoin="round"/>
<path d="M508.816 203.89C508.816 203.89 506.172 204.074 504.927 199.7C503.683 195.325 506.876 194.085 508.644 193.725C510.412 193.365 510.764 189.384 513.769 188.839C516.773 188.295 519.95 190.834 520.662 193.029C521.374 195.225 525.967 191.94 528.611 194.839C531.255 197.739 531.067 203.337 531.067 205.331C531.067 207.326 537.076 207.686 537.076 212.387C537.076 217.088 536.364 219.443 536.716 220.164C537.068 220.884 539.72 235.7 539.72 235.7H506.736C506.736 235.7 505.68 224.873 506.917 222.158C508.153 219.443 509.217 219.259 509.741 216.728C510.265 214.197 509.741 210.217 509.389 208.407C509.123 206.912 508.931 205.404 508.816 203.89Z" fill="#263238" stroke="#263238" stroke-linecap="round" stroke-linejoin="round"/>
<path d="M515.185 222.887L505.287 223.071L507.227 247.851L525.967 249.301L534.8 223.608L524.198 222.711L515.185 222.887Z" fill="#263238" stroke="#263238" stroke-linecap="round" stroke-linejoin="round"/>
<path d="M512.001 198.099C512.001 198.099 509.349 201.903 508.816 203.89C508.12 206.186 507.969 208.619 508.374 210.987C508.907 213.703 510.413 218.186 511.469 218.529C512.525 218.873 515.358 218.529 515.358 218.529L515.186 222.87H513.769L513.941 229.382L520.663 229.742L524.199 222.686L522.431 222.326L521.195 211.658C521.195 211.658 522.955 209.663 523.135 208.214C523.235 207.494 523.295 206.77 523.315 206.043C523.315 206.043 521.195 207.677 519.426 206.043C517.658 204.409 517.126 202.607 516.594 200.797C516.062 198.987 515.006 197.546 514.138 197.546C513.401 197.612 512.68 197.799 512.001 198.099Z" fill="white" stroke="#263238" stroke-linecap="round" stroke-linejoin="round"/>
<path d="M515.357 218.546L518.362 217.457L515.538 220.717L515.357 218.546Z" fill="#263238" stroke="#263238" stroke-linecap="round" stroke-linejoin="round"/>
<path d="M507.227 247.851L505.287 254.186C505.287 254.186 498.214 261.962 496.798 276.435C495.381 290.907 497.682 305.203 498.394 310.994C499.106 316.784 505.918 342.377 505.918 342.377H510.519C510.519 342.377 508.816 318.595 508.816 316.24V303.033L521.808 339.603L526.057 339.788C526.057 339.788 524.354 322.516 523.298 315.486C522.568 310.865 521.57 306.292 520.31 301.793C520.31 301.793 529.659 282.804 529.659 269.748C529.659 256.691 526.474 253.826 526.474 253.826L525.95 249.3L507.227 247.851Z" fill="#BABABA" stroke="#263238" stroke-linecap="round" stroke-linejoin="round"/>
<path d="M512.901 267.72C513.515 264.896 513.941 263.035 513.941 263.035" stroke="#263238" stroke-linecap="round" stroke-linejoin="round"/>
<path d="M508.816 303.033C508.816 303.033 508.112 299.413 508.644 291.636C508.955 287.044 510.74 277.927 512.156 271.223" stroke="#263238" stroke-linecap="round" stroke-linejoin="round"/>
<path d="M505.918 342.377C505.918 342.377 497.616 346.357 497.616 347.263C497.616 348.168 510.87 347.263 510.87 347.263C511.177 346.394 511.297 345.468 511.222 344.547C511.115 343.787 510.876 343.052 510.518 342.377H505.918Z" fill="white" stroke="#263238" stroke-linecap="round" stroke-linejoin="round"/>
<path d="M521.809 339.604C521.809 339.604 517.928 344.673 516.684 345.939C515.439 347.204 515.8 348.109 516.864 348.109C517.928 348.109 523.937 347.749 524.993 347.028C525.593 346.632 526.129 346.143 526.582 345.578L526.058 339.788L521.809 339.604Z" fill="white" stroke="#263238" stroke-linecap="round" stroke-linejoin="round"/>
<path d="M533.752 226.867C533.752 226.867 535.349 250.926 533.932 253.465C532.516 256.004 528.455 254.546 528.103 253.465C527.751 252.384 528.456 242.965 528.456 242.965L533.752 226.867Z" fill="white" stroke="#263238" stroke-linecap="round" stroke-linejoin="round"/>
<path d="M490.706 169.327L415.787 180.501L434.686 313.271L509.605 302.097L490.706 169.327Z" fill="url(#paint16_linear_801_5617)" stroke="#263238" stroke-linecap="round" stroke-linejoin="round"/>
<path d="M486.122 189.417C484.935 189.595 483.726 189.532 482.563 189.231C481.4 188.93 480.306 188.397 479.344 187.663C478.382 186.929 477.571 186.009 476.957 184.954C476.343 183.899 475.939 182.73 475.766 181.515C475.718 181.131 475.691 180.745 475.684 180.358L432.663 186.769C432.77 187.14 432.852 187.518 432.909 187.9C433.255 190.355 432.636 192.85 431.187 194.837C429.738 196.825 427.578 198.142 425.181 198.501C424.992 198.501 424.812 198.543 424.624 198.56L438.116 293.421C438.304 293.379 438.484 293.338 438.672 293.312C439.861 293.135 441.073 293.199 442.237 293.501C443.401 293.804 444.496 294.339 445.458 295.075C446.42 295.812 447.231 296.735 447.844 297.793C448.456 298.851 448.859 300.022 449.028 301.24C449.083 301.623 449.113 302.009 449.119 302.396L492.131 295.986C492.026 295.612 491.947 295.231 491.894 294.846C491.72 293.631 491.782 292.394 492.076 291.204C492.37 290.014 492.891 288.895 493.608 287.911C494.325 286.927 495.224 286.098 496.255 285.47C497.286 284.842 498.427 284.429 499.614 284.254C499.988 284.198 500.366 284.167 500.744 284.161L487.227 189.174C486.864 189.277 486.495 189.358 486.122 189.417ZM464.837 256.457C461.907 256.894 458.915 256.432 456.241 255.13C453.568 253.827 451.331 251.742 449.815 249.138C448.299 246.534 447.571 243.528 447.724 240.501C447.876 237.474 448.902 234.561 450.672 232.13C452.442 229.7 454.876 227.861 457.667 226.847C460.457 225.833 463.479 225.688 466.35 226.432C469.221 227.175 471.812 228.773 473.795 231.024C475.779 233.275 477.066 236.078 477.494 239.077C477.782 241.071 477.684 243.105 477.203 245.06C476.723 247.015 475.871 248.854 474.695 250.472C473.519 252.09 472.043 253.454 470.352 254.487C468.66 255.519 466.786 256.201 464.837 256.491V256.457Z" fill="white" stroke="#263238" stroke-linecap="round" stroke-linejoin="round"/>
<path d="M478.261 172.162L404.822 192.312L438.902 322.459L512.341 302.309L478.261 172.162Z" fill="url(#paint17_linear_801_5617)" stroke="#263238" stroke-width="1.00424" stroke-linecap="round" stroke-linejoin="round"/>
<path d="M473.613 192.61C471.274 193.25 468.782 192.913 466.685 191.673C464.588 190.433 463.058 188.392 462.43 185.998C462.338 185.622 462.264 185.242 462.209 184.858L420.22 196.356C420.363 196.714 420.486 197.081 420.588 197.454C420.899 198.64 420.978 199.877 420.821 201.095C420.664 202.312 420.274 203.486 419.673 204.55C419.072 205.613 418.273 206.544 417.32 207.291C416.367 208.037 415.28 208.584 414.121 208.901C413.941 208.951 413.752 208.984 413.572 209.026L437.772 301.634L438.312 301.458C439.471 301.14 440.679 301.058 441.868 301.219C443.057 301.379 444.204 301.777 445.242 302.392C446.281 303.006 447.191 303.823 447.921 304.797C448.651 305.772 449.186 306.884 449.495 308.07C449.593 308.444 449.666 308.825 449.716 309.209L491.706 297.712C491.562 297.354 491.439 296.987 491.337 296.614C490.713 294.218 491.043 291.666 492.256 289.52C493.468 287.373 495.465 285.807 497.805 285.167C498.17 285.063 498.542 284.987 498.918 284.941L474.686 192.233C474.336 192.381 473.978 192.507 473.613 192.61ZM460.073 261.762C457.211 262.536 454.189 262.425 451.388 261.442C448.588 260.458 446.136 258.648 444.34 256.239C442.545 253.829 441.488 250.929 441.302 247.905C441.117 244.881 441.811 241.868 443.297 239.248C444.784 236.627 446.995 234.516 449.653 233.182C452.311 231.848 455.296 231.35 458.23 231.752C461.164 232.153 463.916 233.436 466.138 235.438C468.361 237.44 469.953 240.071 470.715 242.999C471.223 244.946 471.35 246.977 471.09 248.975C470.83 250.973 470.187 252.898 469.198 254.641C468.209 256.384 466.894 257.91 465.328 259.132C463.763 260.354 461.976 261.248 460.073 261.762Z" fill="white" stroke="#263238" stroke-linecap="round" stroke-linejoin="round"/>
<path d="M529.659 249.485L503.323 248.94C503.323 248.94 498.018 247.13 497.133 247.13C495.891 247.335 494.67 247.652 493.482 248.077C493.369 248.114 493.272 248.192 493.212 248.297C493.151 248.403 493.131 248.527 493.155 248.647C493.18 248.772 493.253 248.883 493.357 248.955C493.461 249.027 493.588 249.054 493.711 249.032L496.257 248.58L496.962 249.116L491.861 252.468C491.758 252.537 491.683 252.643 491.653 252.766C491.622 252.889 491.638 253.019 491.697 253.13C491.757 253.243 491.856 253.328 491.975 253.368C492.093 253.409 492.222 253.402 492.336 253.348L496.167 251.504L496.298 252.493L492.205 254.68C492.075 254.75 491.975 254.867 491.924 255.007C491.873 255.148 491.874 255.303 491.927 255.443C491.981 255.577 492.08 255.687 492.205 255.755C492.331 255.822 492.476 255.842 492.614 255.812L494.113 255.46C494.285 255.676 494.516 255.837 494.776 255.921C495.036 256.006 495.315 256.012 495.578 255.937L498.37 255.099L496.601 256.256C496.532 256.298 496.474 256.356 496.432 256.425C496.389 256.495 496.363 256.574 496.356 256.655C496.348 256.737 496.36 256.82 496.39 256.896C496.42 256.972 496.467 257.04 496.528 257.094C496.617 257.164 496.726 257.203 496.839 257.203C496.951 257.203 497.061 257.164 497.15 257.094L500.686 254.622L503.716 252.644L530.404 257.454C530.404 257.454 532.655 257.655 533.048 257.194C533.441 256.733 534.203 252.376 534.268 251.253" fill="white"/>
<path d="M529.659 249.485L503.323 248.94C503.323 248.94 498.018 247.13 497.133 247.13C495.891 247.335 494.67 247.652 493.482 248.077C493.369 248.114 493.272 248.192 493.212 248.297C493.151 248.403 493.131 248.527 493.155 248.647C493.18 248.772 493.253 248.883 493.357 248.955C493.461 249.027 493.588 249.054 493.711 249.032L496.257 248.58L496.962 249.116L491.861 252.468C491.758 252.537 491.683 252.643 491.653 252.766C491.622 252.889 491.638 253.019 491.697 253.13C491.757 253.243 491.856 253.328 491.975 253.368C492.093 253.409 492.222 253.402 492.336 253.348L496.167 251.504L496.298 252.493L492.205 254.68C492.075 254.75 491.975 254.867 491.924 255.007C491.873 255.148 491.874 255.303 491.927 255.443C491.981 255.577 492.08 255.687 492.205 255.755C492.331 255.822 492.476 255.842 492.614 255.812L494.113 255.46C494.285 255.676 494.516 255.837 494.776 255.921C495.036 256.006 495.315 256.012 495.578 255.937L498.37 255.099L496.601 256.256C496.532 256.298 496.474 256.356 496.432 256.425C496.389 256.495 496.363 256.574 496.356 256.655C496.348 256.737 496.36 256.82 496.39 256.896C496.42 256.972 496.467 257.04 496.528 257.094C496.617 257.164 496.726 257.203 496.839 257.203C496.951 257.203 497.061 257.164 497.15 257.094L500.686 254.622L503.716 252.644L530.404 257.454C530.404 257.454 532.655 257.655 533.048 257.194C533.441 256.733 534.203 252.376 534.268 251.253" stroke="#263238" stroke-linecap="round" stroke-linejoin="round"/>
<path d="M494.121 255.476L497.731 254.094" stroke="#263238" stroke-linecap="round" stroke-linejoin="round"/>
<path d="M511.182 206.261C511.182 206.881 510.87 207.392 510.477 207.392C510.085 207.392 509.773 206.881 509.773 206.261C509.773 205.64 510.093 205.138 510.477 205.138C510.862 205.138 511.182 205.64 511.182 206.261Z" fill="#263238"/>
<path d="M515.136 207.116C515.136 207.736 514.816 208.239 514.432 208.239C514.047 208.239 513.728 207.736 513.728 207.116C513.728 206.496 514.047 205.993 514.432 205.993C514.816 205.993 515.136 206.496 515.136 207.116Z" fill="#263238"/>
<path d="M509.602 203.705C509.602 203.705 510.306 202.8 511.706 203.788" stroke="#263238" stroke-linecap="round" stroke-linejoin="round"/>
<path d="M513.638 204.242C514.117 204.048 514.652 204.052 515.128 204.254C515.605 204.456 515.986 204.839 516.192 205.323" stroke="#263238" stroke-linecap="round" stroke-linejoin="round"/>
<path d="M511.886 206.312C511.981 206.85 511.95 207.404 511.796 207.929C511.534 208.557 510.306 209.722 510.396 209.999C510.486 210.275 511.092 210.443 511.092 210.443" stroke="#263238" stroke-linecap="round" stroke-linejoin="round"/>
<path d="M510.306 212.605C510.306 212.605 512.762 213.77 514.694 212.152" stroke="#263238" stroke-linecap="round" stroke-linejoin="round"/>
<path d="M237.084 144.09C252.665 144.09 265.296 131.161 265.296 115.212C265.296 99.2638 252.665 86.335 237.084 86.335C221.504 86.335 208.873 99.2638 208.873 115.212C208.873 131.161 221.504 144.09 237.084 144.09Z" fill="white" stroke="#263238" stroke-linecap="round" stroke-linejoin="round"/>
<path d="M239.933 144.09C255.514 144.09 268.144 131.161 268.144 115.212C268.144 99.2638 255.514 86.335 239.933 86.335C224.352 86.335 211.722 99.2638 211.722 115.212C211.722 131.161 224.352 144.09 239.933 144.09Z" fill="white" stroke="#263238" stroke-linecap="round" stroke-linejoin="round"/>
<path d="M256.864 132.537C266.212 122.968 266.212 107.454 256.864 97.8846C247.515 88.3155 232.359 88.3155 223.011 97.8846C213.662 107.454 213.662 122.968 223.011 132.537C232.359 142.106 247.515 142.106 256.864 132.537Z" fill="white" stroke="#263238" stroke-linecap="round" stroke-linejoin="round"/>
<path d="M240.204 132.441V129.215C237.879 129.126 236.14 128.363 234.989 126.927C233.837 125.491 233.215 123.352 233.122 120.508L237.903 119.67C237.924 120.644 238.042 121.612 238.255 122.561C238.383 123.21 238.683 123.81 239.123 124.296C239.321 124.49 239.554 124.641 239.81 124.741C240.066 124.84 240.339 124.886 240.613 124.874C240.892 124.905 241.175 124.856 241.429 124.733C241.683 124.611 241.899 124.419 242.054 124.179C242.316 123.688 242.449 123.137 242.439 122.578C242.468 121.529 242.183 120.497 241.62 119.62C240.999 118.72 240.264 117.909 239.434 117.206L236.561 114.692C235.929 114.098 235.338 113.459 234.792 112.782C234.267 112.117 233.85 111.37 233.556 110.569C233.234 109.622 233.079 108.623 233.098 107.62C233.043 106.691 233.177 105.76 233.49 104.887C233.802 104.013 234.288 103.215 234.915 102.541C236.24 101.274 237.966 100.539 239.778 100.472V97.3877H241.415V100.472C242.467 100.492 243.496 100.78 244.412 101.31C245.154 101.764 245.769 102.408 246.196 103.178C246.605 103.951 246.901 104.781 247.072 105.642C247.247 106.493 247.362 107.355 247.416 108.223L242.57 108.952C242.555 108.191 242.487 107.432 242.365 106.681C242.289 106.124 242.081 105.595 241.759 105.139C241.591 104.947 241.379 104.799 241.142 104.708C240.905 104.618 240.651 104.587 240.4 104.62C240.117 104.616 239.838 104.684 239.587 104.817C239.336 104.95 239.12 105.144 238.959 105.382C238.626 105.873 238.454 106.46 238.468 107.058C238.429 107.974 238.691 108.877 239.213 109.622C239.732 110.288 240.298 110.912 240.908 111.491L243.724 114.005C244.47 114.699 245.16 115.453 245.787 116.259C246.421 117.075 246.934 117.981 247.31 118.949C247.71 120.019 247.908 121.156 247.891 122.301C247.906 123.462 247.657 124.609 247.162 125.653C246.689 126.648 245.962 127.494 245.058 128.1C244.09 128.746 242.977 129.13 241.825 129.215V132.475L240.204 132.441Z" fill="white" stroke="#263238" stroke-linecap="round" stroke-linejoin="round"/>
<path d="M169.069 111.642L169.962 153.978L169.601 184.079L174.415 183.35C174.415 183.35 179.589 155.067 179.589 153.425C179.589 151.782 182.438 130.799 182.438 130.799L187.784 157.983L190.559 184.07L195.373 183.341C195.373 183.341 195.987 155.059 195.987 149.955C195.987 144.852 195.741 111.994 195.741 111.994L180.653 107.988L169.069 111.642Z" fill="#263238" stroke="#263238" stroke-linecap="round" stroke-linejoin="round"/>
<path d="M174.415 183.35C174.415 183.35 181.546 188.093 180.482 189.216C179.417 190.339 173.523 189.216 171.918 189.031C171.177 189.002 170.45 188.816 169.782 188.487L169.602 184.104L174.415 183.35Z" fill="white" stroke="#263238" stroke-linecap="round" stroke-linejoin="round"/>
<path d="M195.373 183.35C195.373 183.35 202.504 188.093 201.431 189.216C200.359 190.339 194.481 189.216 192.876 189.031C192.135 189.002 191.408 188.816 190.74 188.487L190.56 184.104L195.373 183.35Z" fill="white" stroke="#263238" stroke-linecap="round" stroke-linejoin="round"/>
<path d="M232.123 85.4631L238.55 83.9463C238.55 83.9463 244.722 87.2983 245.238 87.776C245.754 88.2536 244.722 88.3039 243.601 88.3039C241.842 88.0631 240.1 87.7077 238.386 87.2396C238.386 87.2396 241.079 88.0776 240.645 88.4882C240.402 88.6815 240.122 88.8209 239.823 88.8973C239.524 88.9738 239.213 88.9857 238.91 88.9324C238.476 88.8402 236.822 88.5721 236.822 88.5721C236.822 88.5721 233.957 88.4882 233.089 88.3039L232.221 88.1279L232.123 85.4631Z" fill="white" stroke="#263238" stroke-linecap="round" stroke-linejoin="round"/>
<path d="M190.551 59.3765C190.551 59.3765 175.93 67.7565 174.047 70.1615C172.164 72.5666 171.533 84.6422 170.273 93.173C169.448 99.5233 168.975 105.916 168.856 112.321C168.856 112.321 179.393 113.771 185.23 113.612C188.791 113.5 192.328 112.96 195.766 112.003C195.766 112.003 197.813 101.218 198.279 99.6089C198.746 97.9999 202.528 78.6589 202.528 78.6589L214.161 88.1534H232.123V85.4299C232.123 85.4299 217.911 82.0779 217.755 81.55C217.6 81.022 205.647 63.5246 202.029 61.438C198.41 59.3513 193.073 57.4407 190.551 59.3765Z" fill="url(#paint18_linear_801_5617)" stroke="#263238" stroke-linecap="round" stroke-linejoin="round"/>
<path d="M191.968 54.709L189.299 61.304C189.299 61.304 188.038 61.6309 188.357 64.2035C188.677 66.7762 191.812 74.0165 192.909 73.8573C194.006 73.6981 197.469 64.0862 197.469 64.0862L191.968 54.709Z" fill="white" stroke="#263238" stroke-linecap="round" stroke-linejoin="round"/>
<path d="M193.474 61.9912L194.587 70.7818L196.683 66.4578L193.474 61.9912Z" fill="#263238" stroke="#263238" stroke-linecap="round" stroke-linejoin="round"/>
<path d="M206.908 50.8453C207.425 51.2915 208.066 51.5625 208.74 51.621C209.414 51.6795 210.09 51.5227 210.674 51.1722C213.04 50.0409 214.137 47.6274 212.09 45.7C210.043 43.7726 208.946 45.8592 208.316 43.2866C207.685 40.7139 205.172 38.9457 203.011 39.5826C200.85 40.2195 201.603 41.0324 200.031 41.51C198.459 41.9877 196.412 40.5463 194.366 42.6413C192.319 44.7363 192.008 49.7224 191.541 51.9766C191.075 54.2309 193.113 54.8677 194.816 54.7085C196.519 54.5493 197.96 50.8453 199.376 49.6805C200.792 48.5157 206.908 50.8453 206.908 50.8453Z" fill="#263238" stroke="#263238" stroke-linecap="round" stroke-linejoin="round"/>
<path d="M191.657 55.3534C191.657 55.3534 191.812 58.8897 192.475 60.021C193.138 61.1523 195.75 66.4569 196.716 66.4569C197.723 66.5285 198.735 66.4179 199.704 66.13C200.334 65.8116 202.848 62.4345 204.42 59.535C205.991 56.6355 206.941 50.8449 206.941 50.8449C206.941 50.8449 199.393 46.018 198.918 46.9817C198.443 47.9454 198.607 49.3952 197.821 49.5544C197.035 49.7136 195.308 49.8812 195.308 49.8812C195.308 49.8812 195.774 52.1354 195.144 52.6131C194.514 53.0907 192.942 52.1354 192.942 52.1354C192.942 52.1354 191.026 52.4539 191.657 55.3534Z" fill="white" stroke="#263238" stroke-linecap="round" stroke-linejoin="round"/>
<path d="M200.4 55.9234C200.261 56.5352 199.876 56.9709 199.581 56.8955C199.287 56.8201 199.09 56.2502 199.229 55.6385C199.368 55.0268 199.753 54.5826 200.089 54.6664C200.425 54.7502 200.555 55.3117 200.4 55.9234Z" fill="#263238"/>
<path d="M204.51 57.0972C204.362 57.7174 203.986 58.1447 203.65 58.0693C203.314 57.9939 203.159 57.4241 203.298 56.8123C203.437 56.2006 203.822 55.7564 204.117 55.8402C204.411 55.924 204.649 56.4855 204.51 57.0972Z" fill="#263238"/>
<path d="M198.681 53.6188C198.681 53.6188 199.303 53.1076 201.137 53.6188" stroke="#263238" stroke-linecap="round" stroke-linejoin="round"/>
<path d="M203.896 54.7676C204.224 54.8059 204.54 54.9163 204.823 55.0913C205.105 55.2663 205.347 55.5018 205.533 55.7816" stroke="#263238" stroke-linecap="round" stroke-linejoin="round"/>
<path d="M202.528 57.0547L201.906 60.4821L199.925 60.2307" stroke="#263238" stroke-linecap="round" stroke-linejoin="round"/>
<path d="M199.303 62.2586C199.303 62.2586 197.436 62.2586 196.847 59.5938" stroke="#263238" stroke-linecap="round" stroke-linejoin="round"/>
<path d="M193.695 53.5858C193.695 53.5858 193.384 49.8818 191.968 49.8818C190.551 49.8818 189.299 53.2338 190.085 54.7087C190.871 56.1836 192.909 56.6361 192.909 56.6361" fill="white"/>
<path d="M193.695 53.5858C193.695 53.5858 193.384 49.8818 191.968 49.8818C190.551 49.8818 189.299 53.2338 190.085 54.7087C190.871 56.1836 192.909 56.6361 192.909 56.6361" stroke="#263238" stroke-linecap="round" stroke-linejoin="round"/>
<path d="M181.152 73.0439L183.879 96.1727L206.801 104.192L207.161 106.907L176.511 102.634L171.599 76.6054C171.001 73.4461 172.589 70.0187 174.791 68.0997C176.994 66.1806 180.448 66.0801 180.448 66.0801" fill="url(#paint19_linear_801_5617)"/>
<path d="M181.152 73.0439L183.879 96.1727L206.801 104.192L207.161 106.907L176.511 102.634L171.599 76.6054C171.001 73.4461 172.589 70.0187 174.791 68.0997C176.994 66.1806 180.448 66.0801 180.448 66.0801" stroke="#263238" stroke-linecap="round" stroke-linejoin="round"/>
<path d="M206.769 104.193C206.769 104.193 210.42 103.145 210.862 103.053C211.304 102.961 213.785 104.93 214.276 104.997C214.767 105.064 215.602 105.223 215.561 105.885C215.52 106.547 215.307 107.084 214.112 106.665C213.432 106.438 212.769 106.158 212.131 105.827C213.254 107.003 214.446 108.109 215.7 109.137C216.152 109.427 216.565 109.776 216.928 110.176C216.984 110.237 217.024 110.31 217.047 110.39C217.07 110.47 217.074 110.554 217.059 110.635C217.043 110.717 217.01 110.794 216.96 110.86C216.91 110.925 216.846 110.978 216.773 111.014C215.794 111.491 214.735 111.775 213.654 111.852C211.902 111.852 207.104 106.916 207.104 106.916L206.769 104.193Z" fill="white" stroke="#263238" stroke-linecap="round" stroke-linejoin="round"/>
<path d="M349.717 172.825C349.717 172.825 373.147 159.299 376.561 160.607C379.975 161.914 373.573 188.52 372.721 190.263C371.87 192.006 349.717 172.825 349.717 172.825Z" fill="url(#paint20_linear_801_5617)" stroke="#263238" stroke-linecap="round" stroke-linejoin="round"/>
<path d="M375.276 164.101C375.276 164.101 374.261 165.718 372.967 168.048C370.708 172.12 367.613 178.372 367.613 181.984C367.613 187.648 371.019 187.213 371.87 182.822L374.85 170.168" stroke="#263238" stroke-linecap="round" stroke-linejoin="round"/>
<path d="M178.337 243.786C184.762 243.786 189.971 236.845 189.971 228.283C189.971 219.721 184.762 212.78 178.337 212.78C171.912 212.78 166.704 219.721 166.704 228.283C166.704 236.845 171.912 243.786 178.337 243.786Z" fill="url(#paint21_linear_801_5617)" stroke="#263238" stroke-linecap="round" stroke-linejoin="round"/>
<path d="M283.782 339.528C345.001 339.528 394.63 296.521 394.63 243.468C394.63 190.416 345.001 147.408 283.782 147.408C222.563 147.408 172.935 190.416 172.935 243.468C172.935 296.521 222.563 339.528 283.782 339.528Z" fill="url(#paint22_linear_801_5617)" stroke="#263238" stroke-linecap="round" stroke-linejoin="round"/>
<path d="M355.776 309.687C336.946 325.039 311.649 334.449 283.782 334.449C234.048 334.449 192.386 304.474 181.547 264.233" fill="url(#paint23_linear_801_5617)"/>
<path d="M355.776 309.687C336.946 325.039 311.649 334.449 283.782 334.449C234.048 334.449 192.386 304.474 181.547 264.233" stroke="#263238" stroke-width="2" stroke-linecap="round" stroke-linejoin="round"/>
<path d="M178.861 246.485C178.82 245.488 178.804 244.482 178.804 243.468C178.806 232.498 181.054 221.65 185.402 211.624" fill="url(#paint24_linear_801_5617)"/>
<path d="M178.861 246.485C178.82 245.488 178.804 244.482 178.804 243.468C178.806 232.498 181.054 221.65 185.402 211.624" stroke="#263238" stroke-width="2" stroke-linecap="round" stroke-linejoin="round"/>
<path d="M250.495 157.984C272.308 151.671 295.404 151.671 317.216 157.984" stroke="#263238" stroke-width="5" stroke-linecap="round" stroke-linejoin="round"/>
<path d="M388.489 213.82C388.489 213.82 402.554 209.018 404.683 211.641C406.811 214.264 406.811 244.784 405.108 250.457C403.405 256.131 391.895 254.815 383.823 248.714C381.509 247.051 379.636 244.824 378.372 242.235C377.109 239.645 376.495 236.775 376.586 233.882" fill="url(#paint25_linear_801_5617)"/>
<path d="M388.489 213.82C388.489 213.82 402.554 209.018 404.683 211.641C406.811 214.264 406.811 244.784 405.108 250.457C403.405 256.131 391.895 254.815 383.823 248.714C381.509 247.051 379.636 244.824 378.372 242.235C377.109 239.645 376.495 236.775 376.586 233.882" stroke="#263238" stroke-linecap="round" stroke-linejoin="round"/>
<path d="M379.967 232.574L371.444 233.881" stroke="#263238" stroke-linecap="round" stroke-linejoin="round"/>
<path d="M377.838 242.169C377.838 242.169 375.71 257.437 378.264 257.873C380.818 258.309 385.083 250.457 385.083 250.457C385.083 250.457 379.115 243.476 377.838 242.169Z" fill="#263238" stroke="#263238" stroke-linecap="round" stroke-linejoin="round"/>
<path d="M370.085 206.412C370.904 209.554 370.404 212.403 369.037 212.764C367.67 213.124 365.926 210.862 365.132 207.736C364.338 204.61 364.813 201.744 366.18 201.384C367.547 201.023 369.299 203.261 370.085 206.412Z" fill="#263238"/>
<path d="M325.312 164.143C325.312 164.143 352.124 136.698 357.355 142.053C362.586 147.408 360.63 170.838 360.63 174.19V183.559" fill="url(#paint26_linear_801_5617)"/>
<path d="M325.312 164.143C325.312 164.143 352.124 136.698 357.355 142.053C362.586 147.408 360.63 170.838 360.63 174.19V183.559" stroke="#263238" stroke-linecap="round" stroke-linejoin="round"/>
<path d="M358.239 147.961C358.239 147.961 358.665 140.98 355.676 145.346C352.688 149.712 344.174 179.797 346.728 183.291C349.283 186.786 356.552 185.034 358.239 178.489C359.925 171.945 358.665 153.19 358.665 153.19" stroke="#263238" stroke-linecap="round" stroke-linejoin="round"/>
<path d="M211.477 307.139L226.147 347.723H242.34L249.577 326.781" fill="url(#paint27_linear_801_5617)"/>
<path d="M211.477 307.139L226.147 347.723H242.34L249.577 326.781" stroke="#263238" stroke-linecap="round" stroke-linejoin="round"/>
<path d="M346.729 312.394L332.673 347.724H316.48L309.234 326.782" fill="url(#paint28_linear_801_5617)"/>
<path d="M346.729 312.394L332.673 347.724H316.48L309.234 326.782" stroke="#263238" stroke-linecap="round" stroke-linejoin="round"/>
<path d="M278.37 291.05V282.578C272.263 282.332 267.697 280.329 264.674 276.569C261.65 272.809 260.013 267.195 259.762 259.725L272.312 257.538C272.366 260.098 272.679 262.645 273.245 265.139C273.576 266.841 274.361 268.416 275.513 269.689C276.033 270.196 276.648 270.591 277.32 270.85C277.992 271.109 278.708 271.227 279.426 271.198C281.26 271.198 282.521 270.594 283.208 269.371C283.908 268.092 284.261 266.646 284.232 265.181C284.324 262.428 283.593 259.712 282.136 257.396C280.506 255.038 278.58 252.91 276.405 251.069L268.841 244.415C267.191 242.847 265.645 241.167 264.215 239.387C262.812 237.632 261.706 235.649 260.941 233.521C260.09 231.035 259.683 228.412 259.737 225.778C259.737 220.08 261.325 215.635 264.502 212.445C267.678 209.255 271.933 207.448 277.265 207.024V199.004H281.604V207.107C284.367 207.164 287.072 207.931 289.471 209.336C291.416 210.539 293.026 212.233 294.146 214.256C295.229 216.281 296.007 218.462 296.454 220.725C296.907 222.957 297.197 225.22 297.322 227.496L284.6 229.407C284.564 227.407 284.386 225.413 284.068 223.44C283.867 221.97 283.303 220.577 282.431 219.392C281.99 218.888 281.437 218.5 280.818 218.262C280.199 218.025 279.534 217.944 278.878 218.027C278.135 218.016 277.401 218.193 276.741 218.542C276.081 218.892 275.516 219.402 275.095 220.029C274.24 221.284 273.788 222.781 273.802 224.312C273.695 226.71 274.387 229.074 275.767 231.016C277.12 232.772 278.607 234.417 280.212 235.935L287.58 242.488C289.562 244.319 291.396 246.312 293.065 248.446C294.733 250.585 296.082 252.966 297.068 255.51C298.118 258.337 298.627 261.344 298.567 264.368C298.605 267.408 297.949 270.416 296.651 273.15C295.41 275.759 293.507 277.979 291.141 279.578C288.593 281.264 285.67 282.264 282.644 282.485V291.05H278.37Z" fill="#263238"/>
<path opacity="0.35" d="M309.839 242.37C324.561 242.37 336.495 230.54 336.495 215.948C336.495 201.355 324.561 189.525 309.839 189.525C295.118 189.525 283.184 201.355 283.184 215.948C283.184 230.54 295.118 242.37 309.839 242.37Z" fill="white"/>
<defs>
<linearGradient id="paint0_linear_801_5617" x1="419.795" y1="91.002" x2="443.541" y2="43.4746" gradientUnits="userSpaceOnUse">
<stop stop-color="#76DCFF"/>
<stop offset="1" stop-color="#2B8EE1"/>
</linearGradient>
<linearGradient id="paint1_linear_801_5617" x1="78.3369" y1="30.6159" x2="94.5476" y2="-1.84108" gradientUnits="userSpaceOnUse">
<stop stop-color="#76DCFF"/>
<stop offset="1" stop-color="#2B8EE1"/>
</linearGradient>
<linearGradient id="paint2_linear_801_5617" x1="440.448" y1="67.1424" x2="445.563" y2="30.0928" gradientUnits="userSpaceOnUse">
<stop stop-color="#76DCFF"/>
<stop offset="1" stop-color="#2B8EE1"/>
</linearGradient>
<linearGradient id="paint3_linear_801_5617" x1="386.638" y1="59.8965" x2="428.926" y2="31.229" gradientUnits="userSpaceOnUse">
<stop stop-color="#76DCFF"/>
<stop offset="1" stop-color="#2B8EE1"/>
</linearGradient>
<linearGradient id="paint4_linear_801_5617" x1="75.3727" y1="87.6843" x2="80.4873" y2="50.6348" gradientUnits="userSpaceOnUse">
<stop stop-color="#76DCFF"/>
<stop offset="1" stop-color="#2B8EE1"/>
</linearGradient>
<linearGradient id="paint5_linear_801_5617" x1="21.5459" y1="80.4278" x2="63.8337" y2="51.7602" gradientUnits="userSpaceOnUse">
<stop stop-color="#76DCFF"/>
<stop offset="1" stop-color="#2B8EE1"/>
</linearGradient>
<linearGradient id="paint6_linear_801_5617" x1="513.369" y1="199.59" x2="518.483" y2="162.54" gradientUnits="userSpaceOnUse">
<stop stop-color="#76DCFF"/>
<stop offset="1" stop-color="#2B8EE1"/>
</linearGradient>
<linearGradient id="paint7_linear_801_5617" x1="459.564" y1="192.384" x2="501.865" y2="163.71" gradientUnits="userSpaceOnUse">
<stop stop-color="#76DCFF"/>
<stop offset="1" stop-color="#2B8EE1"/>
</linearGradient>
<linearGradient id="paint8_linear_801_5617" x1="354.002" y1="65.478" x2="324.057" y2="44.0037" gradientUnits="userSpaceOnUse">
<stop stop-color="#76DCFF"/>
<stop offset="1" stop-color="#2B8EE1"/>
</linearGradient>
<linearGradient id="paint9_linear_801_5617" x1="284.518" y1="97.7913" x2="328.397" y2="71.3675" gradientUnits="userSpaceOnUse">
<stop stop-color="#76DCFF"/>
<stop offset="1" stop-color="#2B8EE1"/>
</linearGradient>
<linearGradient id="paint10_linear_801_5617" x1="0" y1="127.368" x2="30.199" y2="127.368" gradientUnits="userSpaceOnUse">
<stop stop-color="#01E5C2"/>
<stop offset="1" stop-color="#00AD86"/>
</linearGradient>
<linearGradient id="paint11_linear_801_5617" x1="13.1855" y1="146.724" x2="166.32" y2="146.724" gradientUnits="userSpaceOnUse">
<stop stop-color="#01E5C2"/>
<stop offset="1" stop-color="#00AD86"/>
</linearGradient>
<linearGradient id="paint12_linear_801_5617" x1="101.297" y1="81.6259" x2="124.65" y2="81.6259" gradientUnits="userSpaceOnUse">
<stop stop-color="#01E5C2"/>
<stop offset="1" stop-color="#00AD86"/>
</linearGradient>
<linearGradient id="paint13_linear_801_5617" x1="278.557" y1="213.125" x2="313.523" y2="213.125" gradientUnits="userSpaceOnUse">
<stop stop-color="#01E5C2"/>
<stop offset="1" stop-color="#00AD86"/>
</linearGradient>
<linearGradient id="paint14_linear_801_5617" x1="293.859" y1="232.311" x2="471.103" y2="232.311" gradientUnits="userSpaceOnUse">
<stop stop-color="#01E5C2"/>
<stop offset="1" stop-color="#00AD86"/>
</linearGradient>
<linearGradient id="paint15_linear_801_5617" x1="395.852" y1="160.139" x2="422.884" y2="160.139" gradientUnits="userSpaceOnUse">
<stop stop-color="#01E5C2"/>
<stop offset="1" stop-color="#00AD86"/>
</linearGradient>
<linearGradient id="paint16_linear_801_5617" x1="410.887" y1="206.922" x2="569.066" y2="184.416" gradientUnits="userSpaceOnUse">
<stop stop-color="#00A1FF"/>
<stop offset="1" stop-color="#00FF8F"/>
</linearGradient>
<linearGradient id="paint17_linear_801_5617" x1="402.966" y1="219.252" x2="558.349" y2="178.574" gradientUnits="userSpaceOnUse">
<stop stop-color="#00A1FF"/>
<stop offset="1" stop-color="#00FF8F"/>
</linearGradient>
<linearGradient id="paint18_linear_801_5617" x1="161.694" y1="69.0039" x2="295.144" y2="69.0202" gradientUnits="userSpaceOnUse">
<stop stop-color="#00A1FF"/>
<stop offset="1" stop-color="#00FF8F"/>
</linearGradient>
<linearGradient id="paint19_linear_801_5617" x1="167.431" y1="73.8158" x2="242.712" y2="73.8228" gradientUnits="userSpaceOnUse">
<stop stop-color="#00A1FF"/>
<stop offset="1" stop-color="#00FF8F"/>
</linearGradient>
<linearGradient id="paint20_linear_801_5617" x1="346.565" y1="166.175" x2="405.286" y2="166.181" gradientUnits="userSpaceOnUse">
<stop stop-color="#00A1FF"/>
<stop offset="1" stop-color="#00FF8F"/>
</linearGradient>
<linearGradient id="paint21_linear_801_5617" x1="164.07" y1="218.655" x2="213.147" y2="218.659" gradientUnits="userSpaceOnUse">
<stop stop-color="#00A1FF"/>
<stop offset="1" stop-color="#00FF8F"/>
</linearGradient>
<linearGradient id="paint22_linear_801_5617" x1="147.837" y1="183.81" x2="615.462" y2="183.867" gradientUnits="userSpaceOnUse">
<stop stop-color="#00A1FF"/>
<stop offset="1" stop-color="#00FF8F"/>
</linearGradient>
<linearGradient id="paint23_linear_801_5617" x1="161.823" y1="277.537" x2="529.327" y2="277.634" gradientUnits="userSpaceOnUse">
<stop stop-color="#00A1FF"/>
<stop offset="1" stop-color="#00FF8F"/>
</linearGradient>
<linearGradient id="paint24_linear_801_5617" x1="178.057" y1="218.229" x2="191.975" y2="218.229" gradientUnits="userSpaceOnUse">
<stop stop-color="#00A1FF"/>
<stop offset="1" stop-color="#00FF8F"/>
</linearGradient>
<linearGradient id="paint25_linear_801_5617" x1="373.208" y1="219.046" x2="435.981" y2="219.051" gradientUnits="userSpaceOnUse">
<stop stop-color="#00A1FF"/>
<stop offset="1" stop-color="#00FF8F"/>
</linearGradient>
<linearGradient id="paint26_linear_801_5617" x1="321.274" y1="149.356" x2="396.525" y2="149.363" gradientUnits="userSpaceOnUse">
<stop stop-color="#00A1FF"/>
<stop offset="1" stop-color="#00FF8F"/>
</linearGradient>
<linearGradient id="paint27_linear_801_5617" x1="207.163" y1="314.828" x2="287.53" y2="314.836" gradientUnits="userSpaceOnUse">
<stop stop-color="#00A1FF"/>
<stop offset="1" stop-color="#00FF8F"/>
</linearGradient>
<linearGradient id="paint28_linear_801_5617" x1="304.99" y1="319.088" x2="384.078" y2="319.097" gradientUnits="userSpaceOnUse">
<stop stop-color="#00A1FF"/>
<stop offset="1" stop-color="#00FF8F"/>
</linearGradient>
</defs>
</svg>
