<svg width="449" height="380" viewBox="0 0 449 380" fill="none" xmlns="http://www.w3.org/2000/svg">
<path d="M448.224 378.752H9.22363" stroke="#263238" stroke-miterlimit="10"/>
<path d="M358.554 363.082L327.504 313.082L265.094 314.202L295.144 363.152C296.343 365.102 296.801 367.419 296.434 369.679C296.067 371.939 294.899 373.992 293.144 375.462L286.054 375.962H203.494V377.752H350.424C352.138 377.758 353.822 377.303 355.3 376.436C356.778 375.568 357.996 374.32 358.827 372.821C359.658 371.322 360.071 369.627 360.023 367.914C359.975 366.201 359.467 364.532 358.554 363.082Z" fill="#263238" stroke="#263238" stroke-linecap="round" stroke-linejoin="round"/>
<path d="M323.973 314.111L355.023 364.111C355.929 365.561 356.43 367.227 356.474 368.935C356.518 370.644 356.103 372.333 355.273 373.827C354.444 375.322 353.229 376.567 351.755 377.432C350.281 378.298 348.603 378.754 346.893 378.751H283.463C285.165 378.751 286.836 378.296 288.304 377.435C289.771 376.573 290.983 375.336 291.813 373.851C292.643 372.365 293.063 370.685 293.028 368.984C292.993 367.283 292.504 365.621 291.613 364.171L261.563 315.221L323.973 314.111Z" fill="#CFCFCF" stroke="#263238" stroke-linecap="round" stroke-linejoin="round"/>
<path d="M322.223 311.291L259.813 312.401L271.373 331.231H334.603L322.223 311.291Z" fill="#263238" stroke="#263238" stroke-linecap="round" stroke-linejoin="round"/>
<path d="M155.234 324.201L414.684 324.201C416.291 324.201 417.594 322.898 417.594 321.291V103.081C417.594 101.474 416.291 100.171 414.684 100.171L155.234 100.171C153.627 100.171 152.324 101.474 152.324 103.081V321.291C152.324 322.898 153.627 324.201 155.234 324.201Z" fill="#263238" stroke="#263238" stroke-linecap="round" stroke-linejoin="round"/>
<path d="M151.353 324.201L398.503 324.201C403.507 324.201 407.563 320.145 407.563 315.141V109.231C407.563 104.227 403.507 100.171 398.503 100.171L151.353 100.171C146.35 100.171 142.293 104.227 142.293 109.231V315.141C142.293 320.145 146.35 324.201 151.353 324.201Z" fill="#CFCFCF" stroke="#263238" stroke-linecap="round" stroke-linejoin="round"/>
<path d="M150.954 100.172H398.954C401.249 100.175 403.449 101.088 405.071 102.712C406.693 104.336 407.604 106.537 407.604 108.832V284.082H142.304V108.832C142.304 106.537 143.215 104.336 144.837 102.712C146.459 101.088 148.659 100.175 150.954 100.172Z" fill="#263238" stroke="#263238" stroke-linecap="round" stroke-linejoin="round"/>
<path d="M153.444 271.812L396.424 271.812V109.082L153.444 109.082L153.444 271.812Z" fill="#CFCFCF" stroke="#263238" stroke-linecap="round" stroke-linejoin="round"/>
<path d="M153.894 185.752H396.554" stroke="#263238" stroke-miterlimit="10"/>
<path d="M164.094 181.141C164.094 181.624 163.951 182.096 163.682 182.498C163.413 182.899 163.032 183.212 162.585 183.396C162.139 183.581 161.648 183.629 161.174 183.534C160.701 183.439 160.266 183.205 159.925 182.863C159.584 182.521 159.353 182.085 159.26 181.611C159.167 181.137 159.216 180.646 159.402 180.2C159.589 179.755 159.903 179.374 160.306 179.108C160.708 178.841 161.181 178.699 161.664 178.701C161.984 178.701 162.301 178.764 162.596 178.887C162.892 179.01 163.16 179.19 163.386 179.416C163.611 179.643 163.79 179.912 163.912 180.208C164.033 180.504 164.095 180.821 164.094 181.141Z" stroke="#263238" stroke-miterlimit="10"/>
<path d="M172.444 183.571C173.786 183.571 174.874 182.483 174.874 181.141C174.874 179.799 173.786 178.711 172.444 178.711C171.102 178.711 170.014 179.799 170.014 181.141C170.014 182.483 171.102 183.571 172.444 183.571Z" stroke="#263238" stroke-miterlimit="10"/>
<path d="M183.224 183.572C184.566 183.572 185.654 182.484 185.654 181.142C185.654 179.8 184.566 178.712 183.224 178.712C181.882 178.712 180.794 179.8 180.794 181.142C180.794 182.484 181.882 183.572 183.224 183.572Z" stroke="#263238" stroke-miterlimit="10"/>
<path d="M196.434 181.141C196.432 181.621 196.288 182.09 196.02 182.488C195.752 182.887 195.371 183.197 194.927 183.379C194.483 183.561 193.995 183.608 193.524 183.513C193.053 183.418 192.621 183.186 192.282 182.846C191.944 182.506 191.713 182.073 191.62 181.602C191.527 181.13 191.576 180.642 191.76 180.199C191.944 179.756 192.256 179.377 192.655 179.11C193.055 178.843 193.524 178.701 194.004 178.701C194.324 178.701 194.641 178.764 194.936 178.887C195.232 179.01 195.5 179.19 195.726 179.416C195.952 179.643 196.131 179.912 196.252 180.208C196.374 180.504 196.436 180.821 196.434 181.141Z" stroke="#263238" stroke-miterlimit="10"/>
<path d="M207.224 181.141C207.224 181.624 207.081 182.096 206.813 182.497C206.544 182.898 206.163 183.211 205.717 183.395C205.272 183.58 204.781 183.628 204.308 183.534C203.834 183.44 203.4 183.208 203.058 182.867C202.717 182.525 202.485 182.091 202.391 181.617C202.296 181.144 202.345 180.653 202.529 180.207C202.714 179.762 203.027 179.381 203.428 179.112C203.829 178.844 204.301 178.701 204.784 178.701C205.105 178.7 205.422 178.762 205.719 178.884C206.016 179.006 206.285 179.186 206.512 179.413C206.739 179.64 206.919 179.909 207.041 180.206C207.163 180.503 207.225 180.82 207.224 181.141Z" stroke="#263238" stroke-miterlimit="10"/>
<path d="M337.634 181.142C337.644 181.628 337.509 182.106 337.246 182.514C336.982 182.923 336.603 183.243 336.156 183.435C335.71 183.626 335.216 183.68 334.739 183.589C334.261 183.498 333.822 183.267 333.477 182.924C333.132 182.582 332.897 182.145 332.802 181.668C332.707 181.192 332.757 180.698 332.944 180.249C333.132 179.801 333.449 179.419 333.856 179.152C334.262 178.886 334.738 178.746 335.224 178.752C335.858 178.757 336.466 179.01 336.916 179.457C337.366 179.903 337.624 180.508 337.634 181.142Z" stroke="#263238" stroke-miterlimit="10"/>
<path d="M348.414 181.141C348.414 181.624 348.271 182.096 348.002 182.498C347.734 182.899 347.352 183.212 346.906 183.396C346.459 183.581 345.968 183.629 345.494 183.534C345.021 183.439 344.586 183.205 344.245 182.863C343.904 182.521 343.673 182.085 343.58 181.611C343.487 181.137 343.537 180.646 343.723 180.2C343.909 179.755 344.223 179.374 344.626 179.108C345.028 178.841 345.501 178.699 345.984 178.701C346.304 178.701 346.621 178.764 346.916 178.887C347.212 179.01 347.48 179.19 347.706 179.416C347.932 179.643 348.111 179.912 348.232 180.208C348.354 180.504 348.415 180.821 348.414 181.141Z" stroke="#263238" stroke-miterlimit="10"/>
<path d="M359.224 181.141C359.222 181.621 359.078 182.09 358.81 182.488C358.542 182.887 358.161 183.197 357.717 183.379C357.273 183.561 356.785 183.608 356.314 183.513C355.843 183.418 355.411 183.186 355.072 182.846C354.734 182.506 354.503 182.073 354.41 181.602C354.317 181.13 354.366 180.642 354.55 180.199C354.734 179.756 355.046 179.377 355.445 179.11C355.845 178.843 356.314 178.701 356.794 178.701C357.114 178.701 357.431 178.764 357.726 178.887C358.022 179.01 358.29 179.19 358.516 179.416C358.742 179.643 358.921 179.912 359.042 180.208C359.164 180.504 359.226 180.821 359.224 181.141Z" stroke="#263238" stroke-miterlimit="10"/>
<path d="M369.984 181.141C369.984 181.624 369.84 182.096 369.572 182.497C369.304 182.898 368.923 183.211 368.477 183.395C368.031 183.58 367.541 183.628 367.068 183.534C366.594 183.44 366.159 183.208 365.818 182.867C365.477 182.525 365.245 182.091 365.15 181.617C365.056 181.144 365.105 180.653 365.289 180.207C365.474 179.762 365.787 179.381 366.188 179.112C366.589 178.844 367.061 178.701 367.544 178.701C367.864 178.7 368.182 178.762 368.479 178.884C368.775 179.006 369.045 179.186 369.272 179.413C369.499 179.64 369.678 179.909 369.8 180.206C369.923 180.503 369.985 180.82 369.984 181.141Z" stroke="#263238" stroke-miterlimit="10"/>
<path d="M378.324 183.571C379.666 183.571 380.754 182.483 380.754 181.141C380.754 179.799 379.666 178.711 378.324 178.711C376.981 178.711 375.894 179.799 375.894 181.141C375.894 182.483 376.981 183.571 378.324 183.571Z" stroke="#263238" stroke-miterlimit="10"/>
<path d="M389.104 183.572C390.446 183.572 391.534 182.484 391.534 181.142C391.534 179.8 390.446 178.712 389.104 178.712C387.762 178.712 386.674 179.8 386.674 181.142C386.674 182.484 387.762 183.572 389.104 183.572Z" stroke="#263238" stroke-miterlimit="10"/>
<path d="M327.894 242.752H209.224C207.567 242.752 206.224 244.095 206.224 245.752V257.752C206.224 259.409 207.567 260.752 209.224 260.752H327.894C329.55 260.752 330.894 259.409 330.894 257.752V245.752C330.894 244.095 329.55 242.752 327.894 242.752Z" fill="url(#paint0_linear_801_5772)" stroke="#263238" stroke-linecap="round" stroke-linejoin="round"/>
<path d="M235.094 250.751L234.724 248.441H235.984L235.624 250.751L237.714 249.701L238.104 250.891L235.804 251.281L237.444 252.921L236.444 253.661L235.364 251.591L234.284 253.661L233.284 252.921L234.914 251.281L232.624 250.891L233.014 249.701L235.094 250.751Z" fill="#263238"/>
<path d="M242.804 250.751L242.444 248.441H243.704L243.334 250.751L245.424 249.701L245.814 250.891L243.524 251.281L245.154 252.921L244.154 253.661L243.074 251.591L241.994 253.661L240.994 252.921L242.634 251.281L240.334 250.891L240.724 249.701L242.804 250.751Z" fill="#263238"/>
<path d="M250.513 250.751L250.153 248.441H251.413L251.053 250.751L253.133 249.701L253.533 250.891L251.233 251.281L252.873 252.921L251.873 253.661L250.793 251.591L249.713 253.661L248.713 252.921L250.353 251.281L248.063 250.891L248.453 249.701L250.513 250.751Z" fill="#263238"/>
<path d="M258.224 250.751L257.854 248.441H259.124L258.754 250.751L260.844 249.701L261.234 250.891L258.934 251.281L260.574 252.921L259.574 253.661L258.494 251.591L257.424 253.661L256.424 252.921L258.064 251.281L255.764 250.891L256.154 249.701L258.224 250.751Z" fill="#263238"/>
<path d="M265.944 250.751L265.584 248.441H266.844L266.474 250.751L268.564 249.701L268.954 250.891L266.664 251.281L268.304 252.921L267.304 253.661L266.224 251.571L265.144 253.641L264.144 252.901L265.784 251.261L263.484 250.871L263.884 249.681L265.944 250.751Z" fill="#263238"/>
<path d="M273.664 250.751L273.294 248.441H274.554L274.224 250.751L276.314 249.701L276.704 250.891L274.404 251.281L276.044 252.921L275.044 253.661L273.964 251.591L272.884 253.661L271.884 252.921L273.514 251.281L271.224 250.891L271.614 249.701L273.664 250.751Z" fill="#263238"/>
<path d="M281.374 250.751L281.014 248.441H282.274L281.904 250.751L283.994 249.701L284.384 250.891L282.094 251.281L283.724 252.921L282.724 253.661L281.644 251.591L280.564 253.661L279.564 252.921L281.204 251.281L278.904 250.891L279.294 249.701L281.374 250.751Z" fill="#263238"/>
<path d="M289.084 250.751L288.724 248.441H289.984L289.624 250.751L291.704 249.701L292.104 250.891L289.804 251.281L291.444 252.921L290.444 253.661L289.364 251.591L288.284 253.661L287.284 252.921L288.924 251.281L286.634 250.891L287.024 249.701L289.084 250.751Z" fill="#263238"/>
<path d="M296.804 250.751L296.434 248.441H297.694L297.334 250.751L299.424 249.701L299.814 250.891L297.514 251.281L299.154 252.921L298.154 253.661L297.074 251.591L296.004 253.661L295.004 252.921L296.644 251.281L294.344 250.891L294.734 249.701L296.804 250.751Z" fill="#263238"/>
<path d="M304.514 250.751L304.154 248.441H305.414L305.044 250.751L307.134 249.701L307.524 250.891L305.234 251.281L306.874 252.921L305.874 253.661L304.794 251.591L303.714 253.661L302.714 252.921L304.354 251.281L302.054 250.891L302.454 249.701L304.514 250.751Z" fill="#263238"/>
<path d="M311.582 219.398C334.885 196.096 334.885 158.315 311.582 135.012C288.28 111.709 250.499 111.709 227.196 135.012C203.893 158.315 203.893 196.096 227.196 219.398C250.499 242.701 288.28 242.701 311.582 219.398Z" fill="url(#paint1_linear_801_5772)" stroke="#263238" stroke-linecap="round" stroke-linejoin="round"/>
<path d="M298.224 206.041C314.15 190.115 314.15 164.295 298.224 148.369C282.299 132.444 256.478 132.444 240.553 148.369C224.627 164.295 224.627 190.115 240.553 206.041C256.478 221.966 282.299 221.966 298.224 206.041Z" fill="#263238" stroke="#263238" stroke-linecap="round" stroke-linejoin="round"/>
<path d="M280.905 215.039C301.799 206.631 311.921 182.877 303.513 161.983C295.106 141.089 271.352 130.967 250.458 139.375C229.564 147.783 219.442 171.537 227.85 192.43C236.257 213.324 260.011 223.446 280.905 215.039Z" fill="#CFCFCF" stroke="#263238" stroke-linecap="round" stroke-linejoin="round"/>
<path d="M286.171 197.504C297.383 186.292 297.383 168.114 286.171 156.902C274.959 145.69 256.781 145.69 245.569 156.902C234.357 168.114 234.357 186.292 245.569 197.504C256.781 208.716 274.959 208.716 286.171 197.504Z" fill="url(#paint2_linear_801_5772)" stroke="#263238" stroke-linecap="round" stroke-linejoin="round"/>
<path d="M216.224 156.171L216.914 154.651L225.194 158.421L226.334 155.931L227.714 156.551L225.884 160.551L216.224 156.171Z" fill="#263238"/>
<path d="M220.944 152.102C220.649 151.934 220.391 151.71 220.185 151.441C219.978 151.172 219.828 150.865 219.743 150.537C219.658 150.209 219.64 149.867 219.689 149.532C219.739 149.197 219.855 148.875 220.031 148.585C220.207 148.296 220.44 148.045 220.715 147.847C220.99 147.649 221.302 147.509 221.632 147.434C221.963 147.359 222.305 147.351 222.638 147.411C222.972 147.47 223.29 147.597 223.574 147.782L228.284 150.642C228.595 150.8 228.87 151.022 229.092 151.292C229.313 151.562 229.477 151.874 229.572 152.211C229.668 152.547 229.693 152.899 229.646 153.245C229.599 153.591 229.481 153.924 229.3 154.223C229.118 154.521 228.877 154.779 228.592 154.98C228.306 155.182 227.982 155.322 227.64 155.392C227.298 155.462 226.945 155.461 226.603 155.389C226.261 155.317 225.938 155.175 225.654 154.972L220.944 152.102ZM226.614 153.602C227.264 153.992 227.684 153.862 227.954 153.402C228.224 152.942 228.154 152.512 227.514 152.122L222.614 149.122C221.964 148.722 221.544 148.862 221.274 149.312C221.004 149.762 221.074 150.202 221.714 150.592L226.614 153.602Z" fill="#263238"/>
<path d="M228.834 144.902L232.774 149.002L231.304 150.752L222.424 144.822L223.424 143.582L230.424 148.292L224.534 142.292L225.534 141.072L232.534 145.852L226.684 139.752L227.624 138.632L234.984 146.372L233.554 148.062L228.834 144.902Z" fill="#263238"/>
<path d="M255.694 131.011L254.974 123.421L257.224 122.861L259.794 133.161L258.264 133.541L256.414 126.161L257.144 133.821L255.614 134.201L252.614 127.201L254.424 134.481L253.014 134.841L250.444 124.541L252.694 123.981L255.694 131.011Z" fill="#263238"/>
<path d="M261.684 126.842L263.964 126.612L264.114 128.122L261.834 128.352L262.144 131.442L265.014 131.162L265.164 132.672L260.634 133.112L259.584 122.552L264.114 122.102L264.264 123.612L261.394 123.892L261.684 126.842Z" fill="#263238"/>
<path d="M266.104 122.021L268.743 122.081C270.403 122.081 271.204 123.081 271.164 124.761L271.034 130.131C271.034 131.831 270.153 132.731 268.493 132.691L265.854 132.631L266.104 122.021ZM267.734 123.581L267.553 131.151H268.493C269.023 131.151 269.354 130.891 269.374 130.151L269.504 124.631C269.504 123.871 269.204 123.631 268.674 123.581H267.734Z" fill="#263238"/>
<path d="M273.054 122.361L274.714 122.561L273.444 133.101L271.784 132.901L273.054 122.361Z" fill="#263238"/>
<path d="M278.224 123.162L276.474 131.162C276.314 131.912 276.584 132.242 277.104 132.362C277.624 132.482 278.004 132.272 278.164 131.532L279.914 123.532L281.454 123.862L279.724 131.762C279.364 133.422 278.334 134.182 276.724 133.832C275.114 133.482 274.504 132.352 274.864 130.692L276.584 122.802L278.224 123.162Z" fill="#263238"/>
<path d="M284.334 132.752L288.094 126.122L290.264 126.952L286.454 136.862L284.984 136.292L287.714 129.192L283.904 135.882L282.434 135.312L283.974 127.862L281.274 134.862L279.914 134.342L283.724 124.432L285.894 125.262L284.334 132.752Z" fill="#263238"/>
<path d="M303.454 151.282L302.514 149.912L311.264 143.912L312.204 145.282L308.454 147.852L309.524 149.422L313.274 146.852L314.274 148.252L305.524 154.252L304.524 152.852L308.274 150.272L307.224 148.752L303.454 151.282Z" fill="#263238"/>
<path d="M315.224 150.002L316.024 151.462L306.714 156.572L305.914 155.102L315.224 150.002Z" fill="#263238"/>
<path d="M313.624 157.382L314.554 159.532L311.454 160.862C309.894 161.532 308.674 161.132 308.024 159.632C307.374 158.132 307.934 156.961 309.484 156.291L314.554 154.112C316.124 153.432 317.344 153.832 317.994 155.332C318.644 156.832 318.084 158.002 316.524 158.672L315.574 159.082L314.954 157.632L315.954 157.181C316.644 156.881 316.774 156.462 316.574 155.982C316.374 155.502 315.964 155.302 315.264 155.602L310.004 157.862C309.304 158.162 309.184 158.582 309.394 159.062C309.604 159.542 309.994 159.752 310.684 159.452L312.484 158.681L312.184 157.982L313.624 157.382Z" fill="#263238"/>
<path d="M309.824 164.142L309.364 162.542L319.584 159.662L320.034 161.262L315.654 162.502L316.174 164.322L320.544 163.092L321.004 164.722L310.794 167.602L310.334 165.972L314.714 164.732L314.194 162.912L309.824 164.142Z" fill="#263238"/>
<path d="M237.074 129.731L243.174 139.591" stroke="#263238" stroke-miterlimit="10"/>
<path d="M303.684 132.552L296.654 141.932" stroke="#263238" stroke-miterlimit="10"/>
<path d="M300.634 159.021L275.364 163.991L282.614 177.421L300.634 159.021Z" fill="#263238" stroke="#263238" stroke-miterlimit="10"/>
<path d="M87.5042 367.491H79.7842V370.061H87.5042V367.491Z" fill="#CFCFCF" stroke="#263238" stroke-linecap="round" stroke-linejoin="round"/>
<path d="M97.7942 367.492H90.0742V370.062H97.7942V367.492Z" fill="#CFCFCF" stroke="#263238" stroke-linecap="round" stroke-linejoin="round"/>
<path d="M108.074 367.492H100.354V370.062H108.074V367.492Z" fill="#CFCFCF" stroke="#263238" stroke-linecap="round" stroke-linejoin="round"/>
<path d="M118.364 367.492H110.644V370.062H118.364V367.492Z" fill="#CFCFCF" stroke="#263238" stroke-linecap="round" stroke-linejoin="round"/>
<path d="M128.654 367.492H120.934V370.062H128.654V367.492Z" fill="#CFCFCF" stroke="#263238" stroke-linecap="round" stroke-linejoin="round"/>
<path d="M138.944 367.492H131.224V370.062H138.944V367.492Z" fill="#CFCFCF" stroke="#263238" stroke-linecap="round" stroke-linejoin="round"/>
<path d="M149.234 367.492H141.514V370.062H149.234V367.492Z" fill="#CFCFCF" stroke="#263238" stroke-linecap="round" stroke-linejoin="round"/>
<path d="M159.524 367.491H151.804V370.061H159.524V367.491Z" fill="#CFCFCF" stroke="#263238" stroke-linecap="round" stroke-linejoin="round"/>
<path d="M169.814 367.491H162.094V370.061H169.814V367.491Z" fill="#CFCFCF" stroke="#263238" stroke-linecap="round" stroke-linejoin="round"/>
<path d="M180.104 367.491H172.384V370.061H180.104V367.491Z" fill="#CFCFCF" stroke="#263238" stroke-linecap="round" stroke-linejoin="round"/>
<path d="M190.394 367.491H182.674V370.061H190.394V367.491Z" fill="#CFCFCF" stroke="#263238" stroke-linecap="round" stroke-linejoin="round"/>
<path d="M200.684 367.491H192.964V370.061H200.684V367.491Z" fill="#CFCFCF" stroke="#263238" stroke-linecap="round" stroke-linejoin="round"/>
<path d="M210.974 367.491H203.254V370.061H210.974V367.491Z" fill="#CFCFCF" stroke="#263238" stroke-linecap="round" stroke-linejoin="round"/>
<path d="M221.264 367.491H213.544V370.061H221.264V367.491Z" fill="#CFCFCF" stroke="#263238" stroke-linecap="round" stroke-linejoin="round"/>
<path d="M231.544 367.492H223.824V370.062H231.544V367.492Z" fill="#CFCFCF" stroke="#263238" stroke-linecap="round" stroke-linejoin="round"/>
<path d="M241.834 367.492H234.114V370.062H241.834V367.492Z" fill="#CFCFCF" stroke="#263238" stroke-linecap="round" stroke-linejoin="round"/>
<path d="M252.124 367.492H244.404V370.062H252.124V367.492Z" fill="#CFCFCF" stroke="#263238" stroke-linecap="round" stroke-linejoin="round"/>
<path d="M262.414 367.492H254.694V370.062H262.414V367.492Z" fill="#CFCFCF" stroke="#263238" stroke-linecap="round" stroke-linejoin="round"/>
<path d="M272.704 367.492H264.984V370.062H272.704V367.492Z" fill="#CFCFCF" stroke="#263238" stroke-linecap="round" stroke-linejoin="round"/>
<path d="M282.994 367.492H275.274V370.062H282.994V367.492Z" fill="#CFCFCF" stroke="#263238" stroke-linecap="round" stroke-linejoin="round"/>
<path d="M293.283 367.492H285.563V370.062H293.283V367.492Z" fill="#CFCFCF" stroke="#263238" stroke-linecap="round" stroke-linejoin="round"/>
<path d="M298.894 370.432H75.7939V378.752H298.894V370.432Z" fill="#CFCFCF" stroke="#263238" stroke-linecap="round" stroke-linejoin="round"/>
<path d="M298.894 370.432H244.474V378.752H298.894V370.432Z" fill="#263238" stroke="#263238" stroke-linecap="round" stroke-linejoin="round"/>
<path d="M369.723 40.7521H371.283C371.835 40.7521 372.381 40.8608 372.891 41.0719C373.4 41.2829 373.863 41.5923 374.253 41.9823C374.643 42.3723 374.953 42.8353 375.164 43.3449C375.375 43.8544 375.483 44.4006 375.483 44.9521V94.1521H365.483V44.9521C365.483 44.3972 365.593 43.8478 365.807 43.3356C366.02 42.8234 366.333 42.3586 366.728 41.9681C367.122 41.5775 367.59 41.269 368.104 41.0603C368.618 40.8516 369.168 40.7469 369.723 40.7521Z" fill="#CFCFCF" stroke="#263238" stroke-miterlimit="10"/>
<path d="M370.663 40.7521H372.223C372.774 40.7521 373.321 40.8608 373.83 41.0719C374.34 41.2829 374.803 41.5923 375.193 41.9823C375.583 42.3723 375.892 42.8353 376.103 43.3449C376.314 43.8544 376.423 44.4006 376.423 44.9521V94.1521H366.423V44.9521C366.423 44.3972 366.533 43.8478 366.746 43.3356C366.96 42.8234 367.273 42.3586 367.667 41.9681C368.061 41.5775 368.529 41.269 369.043 41.0603C369.557 40.8516 370.108 40.7469 370.663 40.7521Z" fill="#A3A3A3" stroke="#263238" stroke-miterlimit="10"/>
<path d="M344.923 87.0513L362.223 76.5812L366.873 72.8712C366.873 72.8712 369.293 67.0713 367.873 61.8713C366.453 56.6713 364.973 56.7912 364.973 56.7912L348.973 64.1712C348.973 64.1712 354.373 79.5813 344.923 87.0513Z" fill="#263238" stroke="#263238" stroke-linecap="round" stroke-linejoin="round"/>
<path d="M336.803 63.3215L345.633 61.1415C341.103 52.1415 331.763 47.5615 324.493 50.9615C318.123 53.9615 315.413 62.0415 317.543 70.2415L336.803 63.3215Z" fill="#CFCFCF" stroke="#263238" stroke-miterlimit="10"/>
<path d="M344.918 87.0511C352.348 83.5798 354.8 73.1196 350.394 63.6875C345.987 54.2554 336.392 49.4231 328.961 52.8944C321.531 56.3657 319.079 66.8259 323.485 76.258C327.891 85.6901 337.487 90.5223 344.918 87.0511Z" fill="#4F4F4F" stroke="#263238" stroke-linecap="round" stroke-linejoin="round"/>
<path d="M340.714 68.7521C342.624 72.8421 341.554 77.3821 338.334 78.8921C335.114 80.4021 330.944 78.3021 329.034 74.2121C327.124 70.1221 328.184 65.5721 331.414 64.0721C334.644 62.5721 338.804 64.6321 340.714 68.7521Z" fill="#263238" stroke="#263238" stroke-linecap="round" stroke-linejoin="round"/>
<path d="M380.694 45.5121C376.494 36.5121 367.574 31.7121 360.314 34.2921V34.1721L327.374 49.7521L321.804 52.4121C326.791 51.0187 332.112 51.4471 336.812 53.6204C341.512 55.7937 345.285 59.5698 347.454 64.2721C347.454 64.3721 347.554 64.4821 347.594 64.5821C347.754 64.9469 347.985 65.2761 348.274 65.5505C348.562 65.825 348.903 66.0392 349.275 66.1807C349.647 66.3222 350.044 66.3881 350.442 66.3746C350.84 66.3611 351.232 66.2685 351.594 66.1021L363.044 61.0021C363.044 61.0021 366.994 69.3721 362.264 76.5621L374.264 69.2521C374.584 69.1321 374.904 69.0021 375.214 68.8521C382.654 65.4021 385.104 54.9421 380.694 45.5121Z" fill="#CFCFCF" stroke="#263238" stroke-miterlimit="10"/>
<path d="M380.394 40.752H381.954C382.505 40.752 383.051 40.8606 383.561 41.0717C384.07 41.2827 384.533 41.5921 384.923 41.9821C385.313 42.3721 385.623 42.8351 385.834 43.3447C386.045 43.8542 386.154 44.4004 386.154 44.952V94.1519H376.224V44.952C376.224 43.8432 376.662 42.7795 377.443 41.9927C378.224 41.2059 379.285 40.7599 380.394 40.752Z" fill="#CFCFCF" stroke="#263238" stroke-miterlimit="10"/>
<path d="M381.334 40.7521H382.894C383.445 40.7521 383.991 40.8608 384.501 41.0719C385.011 41.2829 385.474 41.5923 385.864 41.9823C386.254 42.3723 386.563 42.8353 386.774 43.3449C386.985 43.8544 387.094 44.4006 387.094 44.9521V94.1521H377.094V44.9521C377.094 44.3972 377.204 43.8478 377.417 43.3356C377.631 42.8234 377.944 42.3586 378.338 41.9681C378.732 41.5775 379.2 41.269 379.714 41.0603C380.228 40.8516 380.779 40.7469 381.334 40.7521Z" fill="#CFCFCF" stroke="#263238" stroke-miterlimit="10"/>
<path d="M351.704 93.4316H394.524C394.921 93.4316 395.303 93.5897 395.584 93.871C395.866 94.1523 396.024 94.5338 396.024 94.9316V96.9917H350.224V94.9316C350.224 94.5373 350.379 94.1587 350.656 93.878C350.933 93.5973 351.309 93.4369 351.704 93.4316Z" fill="#CFCFCF" stroke="#263238" stroke-miterlimit="10"/>
<path d="M343.493 96.042H402.723C403.121 96.042 403.503 96.2 403.784 96.4813C404.065 96.7626 404.223 97.1442 404.223 97.542V99.602H341.993V97.542C341.993 97.1442 342.151 96.7626 342.433 96.4813C342.714 96.2 343.095 96.042 343.493 96.042Z" fill="#CFCFCF" stroke="#263238" stroke-miterlimit="10"/>
<path d="M270.996 76.6381C287.85 72.6012 298.24 55.6657 294.203 38.8118C290.167 21.9578 273.231 11.5676 256.377 15.6045C239.523 19.6415 229.133 36.5769 233.17 53.4309C237.207 70.2848 254.142 80.6751 270.996 76.6381Z" fill="url(#paint3_linear_801_5772)" stroke="#263238" stroke-miterlimit="10"/>
<path d="M274.03 37.9357C275.387 32.2126 271.848 26.4729 266.125 25.1158C260.402 23.7587 254.662 27.298 253.305 33.0212C251.948 38.7443 255.487 44.4839 261.21 45.8411C266.933 47.1982 272.673 43.6588 274.03 37.9357Z" fill="#263238" stroke="#263238" stroke-miterlimit="10"/>
<path d="M280.783 65.9223C280.783 61.3871 278.981 57.0376 275.775 53.8307C272.568 50.6239 268.218 48.8223 263.683 48.8223C259.148 48.8223 254.798 50.6239 251.591 53.8307C248.385 57.0376 246.583 61.3871 246.583 65.9223H280.783Z" fill="#263238" stroke="#263238" stroke-miterlimit="10"/>
<path d="M293.554 51.5518L311.804 59.1618" stroke="#263238" stroke-miterlimit="10"/>
<path d="M113.223 87.7514V82.5114C113.218 78.9158 111.788 75.4688 109.246 72.9253C106.705 70.3819 103.259 68.9493 99.6633 68.9414H95.9633C92.366 68.9467 88.9174 70.3781 86.3737 72.9218C83.83 75.4655 82.3986 78.914 82.3933 82.5114V87.7514H81.1533V115.511H114.463V87.7514H113.223ZM90.3933 82.5114C90.396 81.035 90.9837 79.6197 92.0277 78.5757C93.0717 77.5317 94.4869 76.944 95.9633 76.9414H99.6633C101.138 76.9467 102.551 77.5355 103.593 78.5793C104.634 79.623 105.221 81.0367 105.223 82.5114V87.7514H90.3933V82.5114Z" stroke="#006598" stroke-miterlimit="10"/>
<path d="M100.544 99.751C100.545 99.2807 100.425 98.8181 100.195 98.408C99.9649 97.9979 99.6327 97.6541 99.2308 97.4101C98.8288 97.1661 98.3706 97.03 97.9006 97.015C97.4306 97.0001 96.9647 97.1069 96.5481 97.3249C96.1314 97.543 95.7782 97.8649 95.5226 98.2596C95.267 98.6543 95.1176 99.1084 95.089 99.5778C95.0605 100.047 95.1536 100.516 95.3594 100.939C95.5653 101.362 95.8769 101.724 96.264 101.991V109.651H99.374V101.991C99.7363 101.741 100.032 101.406 100.236 101.016C100.44 100.625 100.546 100.191 100.544 99.751Z" stroke="#006598" stroke-miterlimit="10"/>
<path d="M44.7832 50.3619L85.6832 26.6719" stroke="#006598" stroke-miterlimit="10"/>
<path d="M151.314 142.531L114.094 164.091" stroke="#006598" stroke-miterlimit="10"/>
<path d="M111.434 26.3213L151.344 49.2813" stroke="#006598" stroke-miterlimit="10"/>
<path d="M82.9039 163.522L44.7539 141.572" stroke="#006598" stroke-miterlimit="10"/>
<path d="M32.3232 72.291L32.3832 119.581" stroke="#006598" stroke-miterlimit="10"/>
<path d="M165.544 119.382L165.474 72.4717" stroke="#006598" stroke-miterlimit="10"/>
<path d="M66.4434 114.541C69.8201 119.987 74.5321 124.479 80.1325 127.593C85.7328 130.706 92.0358 132.337 98.4434 132.331H98.8434" stroke="#006598" stroke-miterlimit="10"/>
<path d="M131.383 76.5223C128.166 70.6863 123.456 65.81 117.734 62.3925C112.013 58.975 105.487 57.1389 98.8232 57.0723" stroke="#006598" stroke-miterlimit="10"/>
<path d="M98.8232 132.322C105.109 132.254 111.278 130.61 116.763 127.54C122.249 124.471 126.877 120.074 130.223 114.752" stroke="#006598" stroke-miterlimit="10"/>
<path d="M131.384 76.5215C134.628 82.4148 136.232 89.0707 136.028 95.795C135.824 102.519 133.819 109.066 130.224 114.751" stroke="#006598" stroke-miterlimit="10"/>
<path d="M65.2937 76.8418C62.1549 82.6724 60.6086 89.2274 60.8105 95.8461C61.0124 102.465 62.9554 108.913 66.4437 114.542" stroke="#006598" stroke-miterlimit="10"/>
<path d="M65.2939 76.8415C68.5156 70.8603 73.2968 65.8632 79.1299 62.3806C84.963 58.898 91.6303 57.0599 98.4239 57.0615H98.8239" stroke="#006598" stroke-miterlimit="10"/>
<path d="M85.6836 26.6719C87.1751 28.638 89.1013 30.2325 91.3114 31.3307C93.5215 32.4288 95.9557 33.0008 98.4236 33.0019H98.8236" stroke="#006598" stroke-miterlimit="10"/>
<path d="M111.433 26.3223C109.989 28.3319 108.099 29.9792 105.911 31.1348C103.723 32.2905 101.297 32.9228 98.8232 32.9823" stroke="#006598" stroke-miterlimit="10"/>
<path d="M111.434 26.3217C113.159 23.9155 114.182 21.0779 114.39 18.1247C114.598 15.1715 113.983 12.2184 112.613 9.59411C111.242 6.9698 109.171 4.77716 106.628 3.26015C104.086 1.74313 101.173 0.961242 98.2122 1.00148C95.252 1.04171 92.3609 1.9025 89.8607 3.48805C87.3606 5.0736 85.3493 7.32174 84.0508 9.98233C82.7523 12.6429 82.2174 15.6116 82.5057 18.5581C82.794 21.5045 83.8942 24.3133 85.6838 26.6717" stroke="#006598" stroke-miterlimit="10"/>
<path d="M98.8232 151.481C102.415 151.564 105.874 152.853 108.644 155.14C111.414 157.428 113.333 160.58 114.093 164.091" stroke="#006598" stroke-miterlimit="10"/>
<path d="M82.9033 163.522C83.7799 160.072 85.7822 157.012 88.5932 154.828C91.4042 152.644 94.8634 151.459 98.4233 151.462H98.8233" stroke="#006598" stroke-miterlimit="10"/>
<path d="M82.9038 163.521C82.5608 164.827 82.3861 166.171 82.3838 167.521C82.4396 169.732 82.9532 171.907 83.8919 173.91C84.8307 175.912 86.1744 177.698 87.8381 179.155C89.5018 180.612 91.4494 181.708 93.5581 182.374C95.6668 183.04 97.8907 183.262 100.089 183.026C102.288 182.789 104.414 182.1 106.333 181C108.252 179.901 109.922 178.416 111.238 176.638C112.554 174.861 113.487 172.83 113.978 170.674C114.47 168.518 114.509 166.284 114.094 164.111" stroke="#006598" stroke-miterlimit="10"/>
<path d="M165.474 72.4716H165.674C168.519 72.4642 171.311 71.6982 173.762 70.2525C176.212 68.8067 178.233 66.7336 179.616 64.2468C180.999 61.76 181.693 58.9494 181.628 56.1048C181.563 53.2601 180.74 50.4844 179.245 48.0635C177.75 45.6427 175.636 43.6645 173.121 42.3326C170.607 41.0008 167.783 40.3636 164.94 40.4867C162.097 40.6097 159.339 41.4887 156.949 43.0329C154.559 44.5771 152.624 46.7306 151.344 49.2716" stroke="#006598" stroke-miterlimit="10"/>
<path d="M151.844 64.5413C150.487 62.2439 149.73 59.642 149.642 56.9752C149.555 54.3084 150.14 51.6625 151.344 49.2812" stroke="#006598" stroke-miterlimit="10"/>
<path d="M165.474 72.472C162.71 72.4398 160.003 71.6924 157.614 70.3027C155.225 68.913 153.237 66.9283 151.844 64.542" stroke="#006598" stroke-miterlimit="10"/>
<path d="M32.3232 72.2916C34.7283 71.9342 37.0203 71.0334 39.0251 69.6576C41.0299 68.2818 42.6948 66.4672 43.8932 64.3516" stroke="#006598" stroke-miterlimit="10"/>
<path d="M44.7832 50.3623C43.6758 47.6874 41.8634 45.363 39.539 43.6369C37.2147 41.9109 34.4656 40.8478 31.5847 40.5611C28.7038 40.2744 25.7991 40.7747 23.1801 42.0087C20.5611 43.2427 18.3261 45.1642 16.7131 47.5685C15.1002 49.9727 14.1698 52.7695 14.0211 55.6608C13.8724 58.5521 14.511 61.4296 15.8689 63.9865C17.2267 66.5435 19.2529 68.6841 21.7315 70.1803C24.2101 71.6764 27.0481 72.4721 29.9432 72.4823C30.7403 72.4799 31.5359 72.4164 32.3232 72.2923" stroke="#006598" stroke-miterlimit="10"/>
<path d="M44.7836 50.3613C45.7084 52.6092 46.1089 55.0383 45.9547 57.4641C45.8005 59.8899 45.0956 62.2487 43.8936 64.3613" stroke="#006598" stroke-miterlimit="10"/>
<path d="M165.544 119.382C162.76 119.407 160.031 120.159 157.627 121.562C155.223 122.965 153.226 124.971 151.834 127.382" stroke="#263238" stroke-miterlimit="10"/>
<path d="M165.543 119.382H165.673C168.521 119.39 171.315 120.158 173.766 121.607C176.218 123.055 178.238 125.132 179.619 127.622C181 130.112 181.692 132.926 181.622 135.773C181.553 138.619 180.725 141.396 179.224 143.816C177.723 146.236 175.603 148.211 173.084 149.538C170.564 150.865 167.736 151.496 164.892 151.365C162.047 151.234 159.289 150.346 156.902 148.794C154.515 147.241 152.586 145.079 151.313 142.532" stroke="#263238" stroke-miterlimit="10"/>
<path d="M151.833 127.342C150.486 129.629 149.733 132.218 149.642 134.871C149.551 137.524 150.126 140.158 151.313 142.532" stroke="#263238" stroke-miterlimit="10"/>
<path d="M32.3841 119.582C31.5769 119.454 30.7613 119.388 29.9441 119.382C27.0521 119.392 24.217 120.186 21.7402 121.679C19.2634 123.172 17.2375 125.308 15.8781 127.86C14.5186 130.413 13.8764 133.286 14.0197 136.174C14.1629 139.063 15.0864 141.858 16.6918 144.264C18.2972 146.669 20.5246 148.595 23.137 149.835C25.7494 151.076 28.6491 151.585 31.5279 151.309C34.4066 151.032 37.1567 149.981 39.4856 148.267C41.8145 146.552 43.6352 144.239 44.7541 141.572" stroke="#006598" stroke-miterlimit="10"/>
<path d="M32.3838 119.582C34.8107 119.951 37.1201 120.874 39.1334 122.278C41.1466 123.683 42.8096 125.532 43.9938 127.682" stroke="#006598" stroke-miterlimit="10"/>
<path d="M44.7532 141.572C45.6802 139.349 46.0933 136.945 45.9617 134.54C45.8301 132.135 45.1572 129.79 43.9932 127.682" stroke="#006598" stroke-miterlimit="10"/>
<path d="M98.8232 151.482V132.322" stroke="#006598" stroke-miterlimit="10"/>
<path d="M98.8232 32.9824V57.0724" stroke="#006598" stroke-miterlimit="10"/>
<path d="M151.834 127.342L130.264 114.752" stroke="#006598" stroke-miterlimit="10"/>
<path d="M65.2936 76.8416L43.8936 64.3516" stroke="#006598" stroke-miterlimit="10"/>
<path d="M66.4432 114.541L43.9932 127.681" stroke="#006598" stroke-miterlimit="10"/>
<path d="M151.844 64.542L131.384 76.522" stroke="#006598" stroke-miterlimit="10"/>
<path d="M165.674 56.4414L164.744 56.9914" stroke="#006598" stroke-miterlimit="10"/>
<path d="M100.003 236.701V208.531L75.5934 194.441L51.1934 208.531V236.701L75.5934 250.791L100.003 236.701Z" stroke="#006598" stroke-miterlimit="10"/>
<path d="M124.623 279.022V250.842L100.223 236.752L75.8232 250.842V279.022L100.223 293.112L124.623 279.022Z" stroke="#006598" stroke-miterlimit="10"/>
<path d="M100.293 321.211V293.031L75.8934 278.941L51.4834 293.031V321.211L75.8934 335.301L100.293 321.211Z" stroke="#006598" stroke-miterlimit="10"/>
<path d="M85.7437 218.311V215.051C85.7411 212.815 84.8524 210.672 83.2723 209.09C81.6922 207.508 79.5496 206.617 77.3137 206.611H75.0037C72.7678 206.617 70.6252 207.508 69.0451 209.09C67.465 210.672 66.5763 212.815 66.5737 215.051V218.311H65.8037V235.571H86.5137V218.311H85.7437ZM71.5537 215.051C71.5537 214.135 71.9169 213.257 72.5636 212.608C73.2103 211.96 74.0878 211.594 75.0037 211.591H77.3137C78.2296 211.594 79.1071 211.96 79.7538 212.608C80.4006 213.257 80.7637 214.135 80.7637 215.051V218.311H71.5537V215.051Z" stroke="#006598" stroke-miterlimit="10"/>
<path d="M77.8639 225.752C77.8644 225.459 77.7891 225.171 77.6455 224.915C77.5018 224.66 77.2945 224.446 77.0438 224.294C76.7931 224.143 76.5074 224.058 76.2145 224.05C75.9216 224.041 75.6314 224.108 75.3721 224.244C75.1128 224.381 74.8932 224.582 74.7345 224.829C74.5759 225.075 74.4836 225.358 74.4667 225.651C74.4498 225.943 74.5088 226.235 74.6379 226.498C74.7671 226.761 74.962 226.986 75.2039 227.152V231.912H77.1239V227.152C77.3522 226.997 77.539 226.788 77.668 226.544C77.797 226.3 77.8642 226.028 77.8639 225.752Z" stroke="#006598" stroke-miterlimit="10"/>
<path d="M109.084 260.801V257.541C109.081 255.306 108.192 253.164 106.612 251.583C105.031 250.003 102.889 249.114 100.654 249.111H98.3536C96.1177 249.114 93.974 250.003 92.392 251.583C90.8101 253.163 89.9188 255.305 89.9136 257.541V260.801H89.1436V278.061H109.854V260.801H109.084ZM94.8936 257.541C94.8936 256.624 95.2581 255.744 95.907 255.095C96.5558 254.446 97.4359 254.081 98.3536 254.081H100.654C101.57 254.084 102.449 254.449 103.097 255.098C103.746 255.746 104.111 256.625 104.114 257.541V260.801H94.8936V257.541Z" stroke="#006598" stroke-miterlimit="10"/>
<path d="M101.223 268.291C101.225 267.998 101.152 267.709 101.009 267.452C100.867 267.196 100.66 266.98 100.41 266.827C100.159 266.674 99.8734 266.589 99.5801 266.579C99.2868 266.569 98.996 266.636 98.7359 266.771C98.4758 266.907 98.2554 267.108 98.096 267.355C97.9365 267.601 97.8436 267.884 97.8262 268.177C97.8088 268.47 97.8676 268.763 97.9967 269.026C98.1259 269.29 98.321 269.515 98.5632 269.681V274.441H100.493V269.681C100.719 269.526 100.903 269.319 101.031 269.077C101.158 268.834 101.224 268.565 101.223 268.291Z" stroke="#006598" stroke-miterlimit="10"/>
<path d="M85.5435 303.002V299.752C85.5409 297.516 84.6522 295.372 83.0721 293.79C81.492 292.208 79.3494 291.317 77.1135 291.312H74.8135C72.5759 291.314 70.4307 292.204 68.8485 293.786C67.2662 295.369 66.3762 297.514 66.3735 299.752V303.012H65.6035V320.272H86.3235V303.002H85.5435ZM71.3535 299.752C71.3535 298.834 71.7181 297.954 72.3669 297.305C73.0158 296.656 73.8959 296.292 74.8135 296.292H77.1135C78.0312 296.292 78.9112 296.656 79.5601 297.305C80.209 297.954 80.5735 298.834 80.5735 299.752V303.012H71.3535V299.752Z" stroke="#006598" stroke-miterlimit="10"/>
<path d="M77.6637 310.481C77.6642 310.188 77.5889 309.9 77.4453 309.645C77.3016 309.389 77.0943 309.175 76.8436 309.024C76.5929 308.872 76.3072 308.788 76.0143 308.779C75.7214 308.77 75.4312 308.837 75.1719 308.974C74.9126 309.11 74.693 309.312 74.5343 309.558C74.3757 309.804 74.2834 310.088 74.2665 310.38C74.2496 310.673 74.3086 310.965 74.4377 311.228C74.5669 311.491 74.7618 311.716 75.0037 311.881V316.641H76.9337V311.881C77.1589 311.724 77.3429 311.514 77.4699 311.271C77.597 311.027 77.6635 310.756 77.6637 310.481Z" stroke="#006598" stroke-miterlimit="10"/>
<path d="M22.9634 246.152L23.2934 245.572C22.9234 245.122 22.5234 244.692 22.1234 244.292C15.1234 241.102 8.1734 243.292 5.7234 244.292C5.4734 244.542 5.2234 244.812 4.9834 245.082L5.3634 245.852C5.4634 245.812 14.5934 241.372 22.9634 246.152Z" fill="#006598"/>
<path d="M27.0738 252.532C26.7914 251.643 26.4575 250.772 26.0738 249.922C22.8792 247.377 18.9277 245.97 14.8438 245.922C9.51379 245.922 4.28379 248.672 1.69379 250.272C1.39379 250.939 1.12379 251.629 0.883789 252.342C1.74379 251.732 8.35379 247.202 14.8838 247.202C19.4901 247.306 23.87 249.221 27.0738 252.532Z" fill="#006598"/>
<path d="M2.52366 270.112C2.52366 270.042 -0.726342 263.112 3.42366 256.612C4.44146 254.967 5.79509 253.555 7.39598 252.47C8.99688 251.384 10.809 250.649 12.7137 250.312C16.2937 249.662 19.3637 250.442 20.7137 251.442C22.6444 253.014 24.3533 254.841 25.7937 256.872C26.5899 257.979 27.4798 259.016 28.4537 259.972C28.4537 259.282 28.3637 258.612 28.2837 257.972C27.8137 257.422 27.2837 256.792 26.8037 256.122C25.3001 253.996 23.5098 252.087 21.4837 250.452C19.8737 249.252 16.4837 248.362 12.4837 249.082C10.4053 249.449 8.42782 250.251 6.68051 251.435C4.9332 252.618 3.45539 254.158 2.34366 255.952C-2.18634 263.072 1.22366 270.392 1.34366 270.692L2.52366 270.112Z" fill="#006598"/>
<path d="M26.9233 261.522C26.3932 260.819 25.9057 260.084 25.4633 259.322C23.6033 256.322 21.2833 252.492 14.4633 252.492C13.0559 252.428 11.652 252.68 10.3544 253.228C9.05668 253.776 7.89806 254.608 6.96328 255.662C4.38328 258.662 3.96328 263.012 4.42328 266.092C4.63273 267.381 4.50726 268.701 4.05893 269.927C3.61061 271.153 2.8545 272.243 1.86328 273.092C2.04995 273.479 2.24995 273.859 2.46328 274.232C3.67667 273.254 4.61247 271.974 5.17744 270.522C5.7424 269.069 5.91681 267.493 5.68328 265.952C5.26328 263.152 5.63328 259.222 7.93328 256.552C8.74527 255.622 9.75699 254.886 10.8929 254.402C12.0288 253.917 13.2596 253.695 14.4933 253.752C20.5633 253.752 22.4933 256.912 24.3633 259.972C24.8366 260.779 25.3575 261.557 25.9233 262.302C26.5784 263.15 27.3939 263.86 28.3233 264.392C28.3233 263.922 28.4133 263.392 28.4333 262.952C27.8655 262.549 27.3572 262.067 26.9233 261.522Z" fill="#006598"/>
<path d="M22.2232 261.612C21.958 261.055 21.6608 260.514 21.3332 259.992C20.1232 258.172 17.2732 253.912 11.4532 256.302C6.8832 258.192 7.3132 262.992 7.7032 267.222C7.8132 268.452 7.9232 269.612 7.9232 270.702C7.9232 273.702 5.7632 275.782 4.2832 276.832C4.5632 277.182 4.8432 277.502 5.1332 277.832C6.7832 276.602 9.2232 274.252 9.2232 270.752C9.2232 269.602 9.1132 268.362 9.0032 267.162C8.6232 262.992 8.2632 259.062 12.0032 257.542C16.8532 255.542 19.0032 258.802 20.3332 260.752C20.5632 261.112 20.8332 261.642 21.1432 262.252C22.4407 265.264 24.5446 267.859 27.2232 269.752C27.3532 269.322 27.4732 268.882 27.5832 268.442C25.2299 266.673 23.3818 264.318 22.2232 261.612Z" fill="#006598"/>
<path d="M21.2232 267.112C20.5506 266.346 20.0403 265.451 19.7232 264.482C19.1559 262.782 18.1151 261.28 16.7232 260.152C16.2474 259.742 15.6591 259.484 15.0349 259.413C14.4106 259.341 13.7794 259.46 13.2232 259.752C11.3732 260.752 10.2232 263.522 10.4032 266.362C10.6832 269.922 18.5632 276.212 21.8832 278.712C22.1932 278.422 22.4932 278.102 22.7832 277.782C18.9332 274.882 11.8932 269.052 11.6832 266.262C11.5032 263.952 12.4232 261.632 13.8332 260.882C14.1765 260.698 14.5691 260.627 14.9552 260.679C15.3413 260.731 15.701 260.903 15.9832 261.172C17.1799 262.17 18.0678 263.488 18.5432 264.972C18.9267 266.082 19.5323 267.103 20.3232 267.972C22.1726 269.616 24.1231 271.142 26.1632 272.542C26.3432 272.142 26.5232 271.752 26.6832 271.332C24.7771 270.04 22.9535 268.631 21.2232 267.112Z" fill="#006598"/>
<path d="M14.2236 263.521C14.4936 267.931 21.4836 274.311 23.9536 276.441C24.2036 276.101 24.4536 275.741 24.6836 275.381C21.5336 272.661 15.6836 266.951 15.5036 263.441L14.2236 263.521Z" fill="#006598"/>
<path d="M15.9039 276.111C14.9639 275.011 14.2139 274.111 12.9039 274.111C10.9039 274.111 7.90391 277.421 6.50391 279.111C6.82385 279.388 7.15761 279.648 7.50391 279.891C9.27391 277.781 11.7439 275.351 12.8839 275.351C13.5539 275.351 14.0139 275.841 14.8839 276.871C16.0782 278.338 17.4995 279.604 19.0939 280.621C19.5097 280.388 19.9135 280.135 20.3039 279.861C18.6269 278.882 17.1371 277.612 15.9039 276.111Z" fill="#006598"/>
<path d="M16.9239 281.632C16.0039 280.252 14.4839 278.202 13.3939 277.932C12.0939 277.602 10.9439 279.622 10.2139 281.372C10.6239 281.522 11.0339 281.652 11.4539 281.762C11.7738 280.777 12.334 279.887 13.0839 279.172C13.5439 279.282 14.5939 280.522 15.5739 281.932C16.0302 281.863 16.4812 281.763 16.9239 281.632Z" fill="#006598"/>
<path d="M35.8838 254.531H63.0338" stroke="#006598" stroke-miterlimit="10"/>
<path d="M35.8838 260.031H63.0338" stroke="#006598" stroke-miterlimit="10"/>
<path d="M35.8838 265.542H63.0338" stroke="#006598" stroke-miterlimit="10"/>
<path d="M35.8838 271.052H63.0338" stroke="#006598" stroke-miterlimit="10"/>
<defs>
<linearGradient id="paint0_linear_801_5772" x1="192.11" y1="246.162" x2="455.079" y2="246.356" gradientUnits="userSpaceOnUse">
<stop stop-color="#00A1FF"/>
<stop offset="1" stop-color="#00FF8F" stop-opacity="0.62"/>
</linearGradient>
<linearGradient id="paint1_linear_801_5772" x1="191.439" y1="202.747" x2="369.455" y2="24.7687" gradientUnits="userSpaceOnUse">
<stop stop-color="#00A1FF"/>
<stop offset="1" stop-color="#00FF8F" stop-opacity="0.62"/>
</linearGradient>
<linearGradient id="paint2_linear_801_5772" x1="228.364" y1="189.493" x2="314.016" y2="103.859" gradientUnits="userSpaceOnUse">
<stop stop-color="#00A1FF"/>
<stop offset="1" stop-color="#00FF8F" stop-opacity="0.62"/>
</linearGradient>
<linearGradient id="paint3_linear_801_5772" x1="221.721" y1="36.1333" x2="350.463" y2="5.31063" gradientUnits="userSpaceOnUse">
<stop stop-color="#00A1FF"/>
<stop offset="1" stop-color="#00FF8F" stop-opacity="0.62"/>
</linearGradient>
</defs>
</svg>
